<svg xmlns="http://www.w3.org/2000/svg" xmlns:xlink="http://www.w3.org/1999/xlink" viewBox="0 0 1920 1088"><defs><style>.cls-1{isolation:isolate;}.cls-2{fill:url(#linear-gradient);}.cls-3{fill:url(#linear-gradient-2);}.cls-102,.cls-104,.cls-106,.cls-108,.cls-29,.cls-4{opacity:0.5;}.cls-10,.cls-11,.cls-12,.cls-13,.cls-14,.cls-15,.cls-16,.cls-17,.cls-18,.cls-19,.cls-20,.cls-21,.cls-22,.cls-23,.cls-24,.cls-25,.cls-26,.cls-5,.cls-6,.cls-7,.cls-8,.cls-9{fill:#200041;}.cls-31,.cls-5{opacity:0;}.cls-6{opacity:0.04;}.cls-7{opacity:0.08;}.cls-8{opacity:0.11;}.cls-9{opacity:0.15;}.cls-10{opacity:0.19;}.cls-11{opacity:0.23;}.cls-12{opacity:0.27;}.cls-13{opacity:0.3;}.cls-14{opacity:0.34;}.cls-15{opacity:0.38;}.cls-16{opacity:0.42;}.cls-17{opacity:0.46;}.cls-18{opacity:0.5;}.cls-19{opacity:0.53;}.cls-20{opacity:0.57;}.cls-21{opacity:0.61;}.cls-22{opacity:0.65;}.cls-23{opacity:0.69;}.cls-24{opacity:0.72;}.cls-25{opacity:0.76;}.cls-26,.cls-54{opacity:0.8;}.cls-27,.cls-30{opacity:0.2;}.cls-102,.cls-103,.cls-104,.cls-105,.cls-106,.cls-107,.cls-108,.cls-109,.cls-114,.cls-27,.cls-45,.cls-67,.cls-72,.cls-83,.cls-98{mix-blend-mode:screen;}.cls-27{fill:url(#radial-gradient);}.cls-126,.cls-127,.cls-128,.cls-129,.cls-130,.cls-131,.cls-132,.cls-133,.cls-28{opacity:0.4;}.cls-125,.cls-28,.cls-53,.cls-68,.cls-73,.cls-76,.cls-82,.cls-84,.cls-85,.cls-91{mix-blend-mode:multiply;}.cls-28{fill:url(#linear-gradient-3);}.cls-29,.cls-42,.cls-44,.cls-52,.cls-57{mix-blend-mode:color-dodge;}.cls-29{fill:url(#radial-gradient-2);}.cls-32{opacity:0.09;}.cls-33{opacity:0.18;}.cls-34{opacity:0.27;}.cls-35{opacity:0.36;}.cls-36{opacity:0.45;}.cls-37{opacity:0.55;}.cls-38{opacity:0.64;}.cls-39{opacity:0.73;}.cls-40{opacity:0.82;}.cls-41{opacity:0.91;}.cls-42{fill:url(#radial-gradient-3);}.cls-43{fill:url(#linear-gradient-4);}.cls-44{fill:url(#radial-gradient-4);}.cls-45{opacity:0.6;fill:url(#radial-gradient-5);}.cls-46{fill:url(#linear-gradient-5);}.cls-47{fill:url(#linear-gradient-6);}.cls-48{fill:url(#linear-gradient-7);}.cls-49{fill:url(#New_Gradient_Swatch_copy_26);}.cls-50{fill:url(#linear-gradient-8);}.cls-51{fill:url(#linear-gradient-9);}.cls-52{fill:url(#radial-gradient-6);}.cls-53{fill:#bcbec0;}.cls-55{fill:url(#linear-gradient-10);}.cls-56{fill:#a56ef4;}.cls-57{fill:url(#radial-gradient-7);}.cls-58{fill:url(#radial-gradient-8);}.cls-59{fill:#dc3daa;}.cls-60{fill:#ff63ce;}.cls-61{fill:#fff;}.cls-62{fill:#f1f2f2;}.cls-63{opacity:0.3;}.cls-64{fill:#9c5f56;}.cls-65{fill:url(#linear-gradient-11);}.cls-66{fill:url(#linear-gradient-12);}.cls-67{fill:url(#Radial_Gradient_1);}.cls-68{fill:url(#linear-gradient-13);}.cls-69{fill:url(#linear-gradient-14);}.cls-70{fill:url(#linear-gradient-15);}.cls-71{fill:url(#linear-gradient-16);}.cls-72{fill:url(#Radial_Gradient_1-2);}.cls-73{fill:url(#linear-gradient-17);}.cls-74{fill:url(#linear-gradient-18);}.cls-75{fill:url(#New_Gradient_Swatch_copy_20);}.cls-76{fill:#e8dcdc;}.cls-77{fill:url(#New_Gradient_Swatch_copy_20-2);}.cls-78{fill:url(#linear-gradient-19);}.cls-79{fill:url(#linear-gradient-20);}.cls-80{fill:url(#linear-gradient-21);}.cls-81{fill:url(#linear-gradient-22);}.cls-82{fill:url(#linear-gradient-23);}.cls-83{fill:url(#linear-gradient-24);}.cls-84{fill:url(#linear-gradient-25);}.cls-85{fill:url(#linear-gradient-26);}.cls-86{fill:url(#linear-gradient-27);}.cls-87{fill:url(#linear-gradient-28);}.cls-88{fill:url(#linear-gradient-29);}.cls-89{fill:url(#linear-gradient-30);}.cls-90{fill:url(#linear-gradient-31);}.cls-91{fill:url(#linear-gradient-32);}.cls-92{fill:url(#linear-gradient-33);}.cls-93{fill:url(#linear-gradient-34);}.cls-94{fill:url(#linear-gradient-35);}.cls-95{fill:url(#linear-gradient-36);}.cls-96{fill:url(#New_Gradient_Swatch_copy_15);}.cls-97{fill:url(#New_Gradient_Swatch_copy_20-3);}.cls-98{fill:url(#linear-gradient-37);}.cls-99{fill:url(#linear-gradient-38);}.cls-100{fill:url(#linear-gradient-39);}.cls-101,.cls-103,.cls-105,.cls-107,.cls-109,.cls-121,.cls-122,.cls-123,.cls-124{opacity:0.7;}.cls-101{fill:url(#linear-gradient-40);}.cls-102{fill:url(#linear-gradient-41);}.cls-103{fill:url(#linear-gradient-42);}.cls-104{fill:url(#linear-gradient-43);}.cls-105{fill:url(#linear-gradient-44);}.cls-106{fill:url(#linear-gradient-45);}.cls-107{fill:url(#linear-gradient-46);}.cls-108{fill:url(#linear-gradient-47);}.cls-109{fill:url(#linear-gradient-48);}.cls-110{fill:url(#linear-gradient-49);}.cls-111{fill:url(#New_Gradient_Swatch_copy_8);}.cls-112{fill:url(#New_Gradient_Swatch_copy_8-2);}.cls-113{fill:url(#New_Gradient_Swatch_copy_20-4);}.cls-114{fill:url(#linear-gradient-50);}.cls-115{fill:url(#linear-gradient-51);}.cls-116{fill:url(#linear-gradient-52);}.cls-117{fill:url(#New_Gradient_Swatch_copy_7);}.cls-118{fill:url(#New_Gradient_Swatch_copy_7-2);}.cls-119{fill:url(#linear-gradient-53);}.cls-120{fill:url(#linear-gradient-54);}.cls-121{fill:url(#linear-gradient-55);}.cls-122{fill:url(#linear-gradient-56);}.cls-123{fill:url(#linear-gradient-57);}.cls-124{fill:url(#linear-gradient-58);}.cls-126{fill:url(#linear-gradient-59);}.cls-127{fill:url(#linear-gradient-60);}.cls-128{fill:url(#linear-gradient-61);}.cls-129{fill:url(#linear-gradient-62);}.cls-130{fill:url(#New_Gradient_Swatch_copy_26-2);}.cls-131{fill:url(#New_Gradient_Swatch_copy_26-3);}.cls-132{fill:url(#New_Gradient_Swatch_copy_26-4);}.cls-133{fill:url(#New_Gradient_Swatch_copy_26-5);}</style><linearGradient id="linear-gradient" x1="1814.97" y1="1324.08" x2="324.04" y2="-36.25" gradientUnits="userSpaceOnUse"><stop offset="0" stop-color="#3d065f"/><stop offset="1" stop-color="#12054e"/><stop offset="1" stop-color="#10054d"/></linearGradient><linearGradient id="linear-gradient-2" x1="1814.77" y1="1274.8" x2="-741.76" y2="-939.77" gradientUnits="userSpaceOnUse"><stop offset="0.02" stop-color="#45108a"/><stop offset="0.29" stop-color="#3d065f"/><stop offset="1" stop-color="#200554"/></linearGradient><radialGradient id="radial-gradient" cx="1162.11" cy="696.33" r="626.12" gradientTransform="translate(-103 52.8) scale(1.17 0.95)" gradientUnits="userSpaceOnUse"><stop offset="0.02" stop-color="#a56ef4"/><stop offset="0.58" stop-color="#573096"/><stop offset="1" stop-color="#200554"/></radialGradient><linearGradient id="linear-gradient-3" x1="709.73" y1="852.43" x2="1329.24" y2="852.43" gradientUnits="userSpaceOnUse"><stop offset="0.02" stop-color="#45108a"/><stop offset="1" stop-color="#3d065f"/></linearGradient><radialGradient id="radial-gradient-2" cx="-155.08" cy="148.38" r="521.54" gradientTransform="translate(1399.12 410.89) scale(0.7 0.9)" gradientUnits="userSpaceOnUse"><stop offset="0" stop-color="#fa45c1"/><stop offset="0.21" stop-color="#cb389d"/><stop offset="0.67" stop-color="#571843"/><stop offset="1"/></radialGradient><radialGradient id="radial-gradient-3" cx="1089.66" cy="-1197.5" r="100.86" gradientTransform="matrix(0.52, 0, 0, 0.66, 829.52, 1127.85)" gradientUnits="userSpaceOnUse"><stop offset="0" stop-color="#972a74"/><stop offset="0.04" stop-color="#8a266a"/><stop offset="0.19" stop-color="#601b4a"/><stop offset="0.35" stop-color="#3d112f"/><stop offset="0.51" stop-color="#230a1b"/><stop offset="0.67" stop-color="#0f040c"/><stop offset="0.83" stop-color="#040103"/><stop offset="1"/></radialGradient><linearGradient id="linear-gradient-4" x1="1121.64" y1="190.82" x2="1365.42" y2="613.05" gradientUnits="userSpaceOnUse"><stop offset="0.06" stop-color="#200041"/><stop offset="0.26" stop-color="#210243"/><stop offset="0.36" stop-color="#25084b"/><stop offset="0.43" stop-color="#2c1358"/><stop offset="0.47" stop-color="#311b61"/><stop offset="0.48" stop-color="#351f65"/><stop offset="0.5" stop-color="#422c73"/><stop offset="0.51" stop-color="#584188"/><stop offset="0.52" stop-color="#765fa7"/><stop offset="0.53" stop-color="#8770b8"/><stop offset="0.54" stop-color="#7e67ae"/><stop offset="0.56" stop-color="#5c468d"/><stop offset="0.59" stop-color="#442e75"/><stop offset="0.61" stop-color="#362066"/><stop offset="0.63" stop-color="#311b61"/><stop offset="0.67" stop-color="#2a1155"/><stop offset="0.75" stop-color="#230446"/><stop offset="0.81" stop-color="#200041"/><stop offset="1" stop-color="#200041"/></linearGradient><radialGradient id="radial-gradient-4" cx="1500.48" cy="362.36" r="457.47" gradientUnits="userSpaceOnUse"><stop offset="0" stop-color="#711f56"/><stop offset="0.16" stop-color="#6c1e52"/><stop offset="0.36" stop-color="#5c1946"/><stop offset="0.58" stop-color="#431233"/><stop offset="0.82" stop-color="#200918"/><stop offset="1"/></radialGradient><radialGradient id="radial-gradient-5" cx="1423.94" cy="329.68" r="269.52" gradientUnits="userSpaceOnUse"><stop offset="0" stop-color="#af8afc"/><stop offset="1" stop-color="#10054d"/></radialGradient><linearGradient id="linear-gradient-5" x1="1445.68" y1="580.19" x2="700.61" y2="346.95" gradientUnits="userSpaceOnUse"><stop offset="0.19" stop-color="#3d065f"/><stop offset="0.93" stop-color="#3d065f"/></linearGradient><linearGradient id="linear-gradient-6" x1="1455.39" y1="868.55" x2="1077.02" y2="69.06" gradientUnits="userSpaceOnUse"><stop offset="0" stop-color="#311b61"/><stop offset="0.2" stop-color="#290f52"/><stop offset="0.49" stop-color="#200041"/><stop offset="1" stop-color="#0f001f"/></linearGradient><linearGradient id="linear-gradient-7" x1="1178.07" y1="533.61" x2="1415.68" y2="533.61" xlink:href="#linear-gradient-6"/><linearGradient id="New_Gradient_Swatch_copy_26" x1="1480.98" y1="752.65" x2="818.51" y2="-35.54" gradientUnits="userSpaceOnUse"><stop offset="0.03" stop-color="#7c1dc9"/><stop offset="0.21" stop-color="#6e41d2"/><stop offset="0.62" stop-color="#4c9be8"/><stop offset="1" stop-color="#2af6ff"/></linearGradient><linearGradient id="linear-gradient-8" x1="608.68" y1="10377.85" x2="651.19" y2="10377.85" gradientTransform="matrix(-0.5, 1.44, -0.87, 0.5, 10741.33, -5642.32)" xlink:href="#linear-gradient-6"/><linearGradient id="linear-gradient-9" x1="1450.08" y1="456.32" x2="1420.77" y2="455.06" gradientUnits="userSpaceOnUse"><stop offset="0" stop-color="#3d065f"/><stop offset="1" stop-color="#5f27bd"/></linearGradient><radialGradient id="radial-gradient-6" cx="1435.34" cy="443.81" r="17.22" xlink:href="#radial-gradient-4"/><linearGradient id="linear-gradient-10" x1="918.14" y1="510.53" x2="1585.86" y2="360.85" gradientUnits="userSpaceOnUse"><stop offset="0.04" stop-color="#138bbd"/><stop offset="0.23" stop-color="#169ac7"/><stop offset="0.59" stop-color="#1fc3df"/><stop offset="1" stop-color="#2af6ff"/></linearGradient><radialGradient id="radial-gradient-7" cx="1701.57" cy="-5615.31" r="215.21" gradientTransform="matrix(0.33, 0, 0, 0.42, 617.69, 2545.63)" xlink:href="#radial-gradient-3"/><radialGradient id="radial-gradient-8" cx="1320.21" cy="746.29" r="453.53" gradientUnits="userSpaceOnUse"><stop offset="0.02" stop-color="#dc3daa"/><stop offset="0.26" stop-color="#7c1dc9"/><stop offset="0.49" stop-color="#6718b1"/><stop offset="0.81" stop-color="#4e1295"/><stop offset="0.99" stop-color="#45108a"/></radialGradient><linearGradient id="linear-gradient-11" x1="2031.68" y1="840.31" x2="2001.47" y2="799.84" gradientTransform="matrix(-1, 0, 0, 1, 3241.49, 0)" gradientUnits="userSpaceOnUse"><stop offset="0" stop-color="#010002"/><stop offset="0.03" stop-color="#030106"/><stop offset="0.19" stop-color="#0f0419"/><stop offset="0.36" stop-color="#170524"/><stop offset="0.54" stop-color="#190628"/><stop offset="0.7" stop-color="#0b0312"/><stop offset="0.86" stop-color="#030105"/><stop offset="1"/></linearGradient><linearGradient id="linear-gradient-12" x1="1991.26" y1="825.38" x2="2025.69" y2="825.38" gradientTransform="matrix(-1, 0, 0, 1, 3241.49, 0)" gradientUnits="userSpaceOnUse"><stop offset="0" stop-color="#100221"/><stop offset="1" stop-color="#10054d"/></linearGradient><radialGradient id="Radial_Gradient_1" cx="2012.02" cy="824.8" r="18.6" gradientTransform="matrix(-1, 0, 0, 1, 3241.49, 0)" gradientUnits="userSpaceOnUse"><stop offset="0" stop-color="#fff"/><stop offset="1"/></radialGradient><linearGradient id="linear-gradient-13" x1="1995.79" y1="825.66" x2="2022.3" y2="825.66" gradientTransform="matrix(-1, 0, 0, 1, 3241.49, 0)" gradientUnits="userSpaceOnUse"><stop offset="0" stop-color="#bcbec0"/><stop offset="1" stop-color="#e6e7e8"/></linearGradient><linearGradient id="linear-gradient-14" x1="1994.96" y1="825.99" x2="2021.48" y2="825.99" xlink:href="#linear-gradient-13"/><linearGradient id="linear-gradient-15" x1="2149.64" y1="908.33" x2="2119.43" y2="867.86" xlink:href="#linear-gradient-11"/><linearGradient id="linear-gradient-16" x1="2109.22" y1="893.4" x2="2143.65" y2="893.4" xlink:href="#linear-gradient-12"/><radialGradient id="Radial_Gradient_1-2" cx="2129.98" cy="892.82" r="18.6" xlink:href="#Radial_Gradient_1"/><linearGradient id="linear-gradient-17" x1="2113.75" y1="893.68" x2="2140.26" y2="893.68" xlink:href="#linear-gradient-13"/><linearGradient id="linear-gradient-18" x1="2112.92" y1="894.02" x2="2139.44" y2="894.02" xlink:href="#linear-gradient-13"/><radialGradient id="New_Gradient_Swatch_copy_20" cx="2189.48" cy="719.99" r="207.6" gradientTransform="matrix(-1, 0, 0, 1, 3318.05, 0)" gradientUnits="userSpaceOnUse"><stop offset="0" stop-color="#feeca8"/><stop offset="1" stop-color="#ffa98c"/></radialGradient><radialGradient id="New_Gradient_Swatch_copy_20-2" cx="2184.81" cy="719.95" r="204.95" gradientTransform="matrix(-1, 0, 0, 1, 3308.11, 0)" xlink:href="#New_Gradient_Swatch_copy_20"/><linearGradient id="linear-gradient-19" x1="2051.06" y1="731.22" x2="2131.9" y2="789.08" gradientTransform="matrix(-1, 0, 0, 1, 3308.11, 0)" gradientUnits="userSpaceOnUse"><stop offset="0.12" stop-color="#45108a"/><stop offset="0.35" stop-color="#44158c"/><stop offset="0.6" stop-color="#402292"/><stop offset="0.87" stop-color="#3b389d"/><stop offset="1" stop-color="#3746a3"/></linearGradient><linearGradient id="linear-gradient-20" x1="2038.11" y1="712.26" x2="2233.85" y2="844.81" xlink:href="#linear-gradient-19"/><linearGradient id="linear-gradient-21" x1="2032.6" y1="685.07" x2="2163.18" y2="773.49" gradientTransform="matrix(-1, 0, 0, 1, 3308.11, 0)" gradientUnits="userSpaceOnUse"><stop offset="0" stop-color="#25054d"/><stop offset="1" stop-color="#1b2b69"/></linearGradient><linearGradient id="linear-gradient-22" x1="2464.66" y1="992.25" x2="2473.39" y2="992.25" gradientTransform="matrix(-1, 0.05, 0.05, 1, 3424.34, -254.06)" xlink:href="#linear-gradient-13"/><linearGradient id="linear-gradient-23" x1="2464.66" y1="992.25" x2="2472.92" y2="992.25" gradientTransform="matrix(-1, 0.05, 0.05, 1, 3424.34, -254.06)" gradientUnits="userSpaceOnUse"><stop offset="0" stop-color="#9c9c9c"/><stop offset="0" stop-color="#9d9d9d"/><stop offset="0.31" stop-color="#c7c7c7"/><stop offset="0.59" stop-color="#e6e6e6"/><stop offset="0.83" stop-color="#f8f8f8"/><stop offset="1" stop-color="#fff"/></linearGradient><linearGradient id="linear-gradient-24" x1="2124.64" y1="800.67" x2="2194.08" y2="693.17" gradientTransform="matrix(-1, 0, 0, 1, 3308.11, 0)" gradientUnits="userSpaceOnUse"><stop offset="0" stop-color="#9c9c9c"/><stop offset="0.01" stop-color="#999"/><stop offset="0.26" stop-color="#636363"/><stop offset="0.49" stop-color="#383838"/><stop offset="0.7" stop-color="#191919"/><stop offset="0.88" stop-color="#070707"/><stop offset="1"/></linearGradient><linearGradient id="linear-gradient-25" x1="2136.07" y1="859.23" x2="2145.22" y2="844.17" gradientTransform="matrix(-1, 0, 0, 1, 3318.05, 0)" gradientUnits="userSpaceOnUse"><stop offset="0" stop-color="#9c9090"/><stop offset="0.08" stop-color="#a79d9d"/><stop offset="0.36" stop-color="#cdc7c7"/><stop offset="0.62" stop-color="#e8e6e6"/><stop offset="0.85" stop-color="#f9f8f8"/><stop offset="1" stop-color="#fff"/></linearGradient><linearGradient id="linear-gradient-26" x1="2054.3" y1="811.3" x2="2062.78" y2="797.35" xlink:href="#linear-gradient-25"/><linearGradient id="linear-gradient-27" x1="2465.59" y1="994.28" x2="2471.34" y2="994.28" gradientTransform="matrix(-1, 0.05, 0.05, 1, 3424.34, -254.06)" xlink:href="#linear-gradient-13"/><linearGradient id="linear-gradient-28" x1="-270.95" y1="994.22" x2="-266.98" y2="994.22" gradientTransform="translate(1226.19 -137.89) rotate(-3.02)" gradientUnits="userSpaceOnUse"><stop offset="0" stop-color="#bcbec0"/><stop offset="0.69" stop-color="#e9eaea"/><stop offset="1" stop-color="#fff"/></linearGradient><linearGradient id="linear-gradient-29" x1="2468.1" y1="989.55" x2="2472.29" y2="989.55" gradientTransform="matrix(-1, 0.05, 0.05, 1, 3424.34, -254.06)" xlink:href="#linear-gradient-13"/><linearGradient id="linear-gradient-30" x1="-271.67" y1="989.46" x2="-268.78" y2="989.46" xlink:href="#linear-gradient-28"/><linearGradient id="linear-gradient-31" x1="2236.74" y1="902.2" x2="2256.24" y2="902.2" gradientTransform="matrix(-1, 0, 0, 1, 3318.05, 0)" xlink:href="#linear-gradient-13"/><linearGradient id="linear-gradient-32" x1="2246.91" y1="905.84" x2="2246.45" y2="890.9" gradientTransform="matrix(-1, 0, 0, 1, 3318.05, 0)" xlink:href="#linear-gradient-23"/><linearGradient id="linear-gradient-33" x1="2239.89" y1="901.24" x2="2252.88" y2="901.24" gradientTransform="matrix(-1, 0, 0, 1, 3318.05, 0)" xlink:href="#linear-gradient-13"/><linearGradient id="linear-gradient-34" x1="-53.05" y1="902.18" x2="-47.24" y2="902.18" gradientTransform="translate(1565.44 148.63) rotate(30.31)" xlink:href="#linear-gradient-28"/><linearGradient id="linear-gradient-35" x1="2237.97" y1="902.43" x2="2245.73" y2="902.43" gradientTransform="matrix(-1, 0, 0, 1, 3318.05, 0)" xlink:href="#linear-gradient-13"/><linearGradient id="linear-gradient-36" x1="-45.65" y1="902.91" x2="-41.03" y2="902.91" gradientTransform="translate(1116.99)" xlink:href="#linear-gradient-28"/><radialGradient id="New_Gradient_Swatch_copy_15" cx="2239.93" cy="-2518.35" r="4.14" gradientTransform="matrix(-1, 0, 0, 1.67, 3318.05, 5098.24)" gradientUnits="userSpaceOnUse"><stop offset="0" stop-color="#ff63ce"/><stop offset="1" stop-color="#9f19ab"/></radialGradient><radialGradient id="New_Gradient_Swatch_copy_20-3" cx="2274.52" cy="891.52" r="44.2" gradientTransform="matrix(-1, 0, 0, 1, 3308.11, 0)" xlink:href="#New_Gradient_Swatch_copy_20"/><linearGradient id="linear-gradient-37" x1="2135.78" y1="821.66" x2="2143.46" y2="808.96" gradientTransform="matrix(-1, 0, 0, 1, 3318.05, 0)" xlink:href="#linear-gradient-24"/><linearGradient id="linear-gradient-38" x1="2228.95" y1="826.34" x2="2296.27" y2="826.34" gradientTransform="matrix(-1, 0, 0, 1, 3308.11, 0)" xlink:href="#linear-gradient-12"/><linearGradient id="linear-gradient-39" x1="2239.34" y1="882.55" x2="2272.36" y2="799.39" xlink:href="#linear-gradient-21"/><linearGradient id="linear-gradient-40" x1="2253.3" y1="780.39" x2="2264.06" y2="828.81" gradientTransform="matrix(-1, 0, 0, 1, 3308.11, 0)" gradientUnits="userSpaceOnUse"><stop offset="0.23" stop-color="#45108a"/><stop offset="0.43" stop-color="#43188e"/><stop offset="0.73" stop-color="#3e2d97"/><stop offset="1" stop-color="#3746a3"/></linearGradient><linearGradient id="linear-gradient-41" x1="6466.92" y1="10208.44" x2="6466.92" y2="10135.19" gradientTransform="translate(-4612.62 11563.24) rotate(-119.59)" gradientUnits="userSpaceOnUse"><stop offset="0" stop-color="#f15a29"/><stop offset="0.11" stop-color="#bd4620"/><stop offset="0.23" stop-color="#8b3418"/><stop offset="0.36" stop-color="#602410"/><stop offset="0.48" stop-color="#3e170a"/><stop offset="0.61" stop-color="#230d06"/><stop offset="0.73" stop-color="#0f0603"/><stop offset="0.86" stop-color="#040101"/><stop offset="1"/></linearGradient><linearGradient id="linear-gradient-42" x1="6465.38" y1="10208.34" x2="6465.38" y2="10132.99" gradientTransform="translate(-4612.62 11563.24) rotate(-119.59)" gradientUnits="userSpaceOnUse"><stop offset="0" stop-color="#fdd65b"/><stop offset="0.01" stop-color="#f7d159"/><stop offset="0.13" stop-color="#bea144"/><stop offset="0.25" stop-color="#8b7632"/><stop offset="0.37" stop-color="#605223"/><stop offset="0.49" stop-color="#3e3416"/><stop offset="0.62" stop-color="#231d0c"/><stop offset="0.74" stop-color="#0f0d05"/><stop offset="0.87" stop-color="#040301"/><stop offset="1"/></linearGradient><linearGradient id="linear-gradient-43" x1="6462.76" y1="10213.12" x2="6462.76" y2="10159.36" xlink:href="#linear-gradient-41"/><linearGradient id="linear-gradient-44" x1="6461.63" y1="10213.05" x2="6461.63" y2="10157.75" xlink:href="#linear-gradient-42"/><linearGradient id="linear-gradient-45" x1="6527.54" y1="10174.83" x2="6527.54" y2="10121.07" xlink:href="#linear-gradient-41"/><linearGradient id="linear-gradient-46" x1="6526.41" y1="10174.76" x2="6526.41" y2="10119.46" xlink:href="#linear-gradient-42"/><linearGradient id="linear-gradient-47" x1="6522.67" y1="10174.75" x2="6522.67" y2="10101.5" xlink:href="#linear-gradient-41"/><linearGradient id="linear-gradient-48" x1="6521.13" y1="10174.65" x2="6521.13" y2="10099.3" xlink:href="#linear-gradient-42"/><linearGradient id="linear-gradient-49" x1="-60.96" y1="663.19" x2="-84.18" y2="723.13" gradientTransform="translate(1267.4)" gradientUnits="userSpaceOnUse"><stop offset="0.74" stop-color="#45108a"/><stop offset="1" stop-color="#3746a3"/></linearGradient><linearGradient id="New_Gradient_Swatch_copy_8" x1="2181.66" y1="727.08" x2="2162.56" y2="771.76" gradientTransform="matrix(-1, 0, 0, 1, 3308.11, 0)" gradientUnits="userSpaceOnUse"><stop offset="0.04" stop-color="#ffa98c"/><stop offset="0.32" stop-color="#ffb892"/><stop offset="0.86" stop-color="#fee1a3"/><stop offset="1" stop-color="#feeca8"/></linearGradient><linearGradient id="New_Gradient_Swatch_copy_8-2" x1="2220.79" y1="762.03" x2="2271.32" y2="779.38" xlink:href="#New_Gradient_Swatch_copy_8"/><radialGradient id="New_Gradient_Swatch_copy_20-4" cx="2187.9" cy="737.2" r="147.62" gradientTransform="matrix(-1, 0, 0, 1, 3308.11, 0)" xlink:href="#New_Gradient_Swatch_copy_20"/><linearGradient id="linear-gradient-50" x1="2181.55" y1="770.55" x2="2194.67" y2="701.59" xlink:href="#linear-gradient-24"/><linearGradient id="linear-gradient-51" x1="2237.38" y1="793.11" x2="2279.69" y2="793.11" xlink:href="#linear-gradient-21"/><linearGradient id="linear-gradient-52" x1="2236.6" y1="793.18" x2="2280.56" y2="793.18" gradientTransform="matrix(-1, 0, 0, 1, 3308.11, 0)" xlink:href="#linear-gradient-12"/><linearGradient id="New_Gradient_Swatch_copy_7" x1="2255.19" y1="814.73" x2="2260.94" y2="783.95" gradientTransform="matrix(-1, 0, 0, 1, 3308.11, 0)" xlink:href="#linear-gradient-10"/><linearGradient id="New_Gradient_Swatch_copy_7-2" x1="1084.19" y1="779.44" x2="1089.94" y2="748.66" gradientTransform="translate(80.69)" xlink:href="#linear-gradient-10"/><linearGradient id="linear-gradient-53" x1="2074.42" y1="759.56" x2="2181.52" y2="856.4" xlink:href="#linear-gradient-19"/><linearGradient id="linear-gradient-54" x1="2078.75" y1="754.22" x2="2185.86" y2="851.06" xlink:href="#linear-gradient-19"/><linearGradient id="linear-gradient-55" x1="1215.66" y1="717.31" x2="1233.5" y2="755.86" gradientTransform="matrix(1, 0, 0, 1, 0, 0)" xlink:href="#linear-gradient-40"/><linearGradient id="linear-gradient-56" x1="1092.53" y1="764.42" x2="1110.38" y2="814.08" gradientTransform="matrix(1, 0, 0, 1, 0, 0)" xlink:href="#linear-gradient-40"/><linearGradient id="linear-gradient-57" x1="1173.62" y1="745.71" x2="1186.55" y2="777.01" gradientTransform="matrix(1, 0, 0, 1, 0, 0)" xlink:href="#linear-gradient-40"/><linearGradient id="linear-gradient-58" x1="1145.19" y1="757.77" x2="1156.84" y2="793.46" gradientTransform="matrix(1, 0, 0, 1, 0, 0)" xlink:href="#linear-gradient-40"/><linearGradient id="linear-gradient-59" x1="1142.42" y1="247.03" x2="1104.95" y2="270" gradientTransform="translate(283.5 -533.74) rotate(30.31)" gradientUnits="userSpaceOnUse"><stop offset="0" stop-color="#fff"/><stop offset="1" stop-color="#b086cc"/></linearGradient><linearGradient id="linear-gradient-60" x1="1142.86" y1="346.41" x2="1105.39" y2="371.29" gradientTransform="translate(334.2 -520.01) rotate(30.31)" xlink:href="#linear-gradient-59"/><linearGradient id="linear-gradient-61" x1="1143.28" y1="445.71" x2="1105.82" y2="472.61" gradientTransform="translate(384.9 -506.27) rotate(30.31)" xlink:href="#linear-gradient-59"/><linearGradient id="linear-gradient-62" x1="1143.69" y1="544.94" x2="1106.22" y2="573.95" gradientTransform="translate(435.59 -492.54) rotate(30.31)" xlink:href="#linear-gradient-59"/><linearGradient id="New_Gradient_Swatch_copy_26-2" x1="1175.9" y1="364" x2="1013.28" y2="161.59" gradientTransform="translate(285.8 -518.05) rotate(30.31)" xlink:href="#New_Gradient_Swatch_copy_26"/><linearGradient id="New_Gradient_Swatch_copy_26-3" x1="1169.68" y1="456.7" x2="1027.98" y2="280.34" gradientTransform="translate(336.5 -504.32) rotate(30.31)" xlink:href="#New_Gradient_Swatch_copy_26"/><linearGradient id="New_Gradient_Swatch_copy_26-4" x1="1163.45" y1="549.41" x2="1042.68" y2="399.09" gradientTransform="translate(387.2 -490.59) rotate(30.31)" xlink:href="#New_Gradient_Swatch_copy_26"/><linearGradient id="New_Gradient_Swatch_copy_26-5" x1="1157.22" y1="642.11" x2="1057.38" y2="517.85" gradientTransform="translate(437.89 -476.85) rotate(30.31)" xlink:href="#New_Gradient_Swatch_copy_26"/></defs><g class="cls-1"><g id="Layer_1" data-name="Layer 1"><rect class="cls-2" width="1920" height="1088"/><path class="cls-3" d="M1804.25,94H128.75C107.35,94,90,107.31,90,123.72V956.28C90,972.69,107.35,986,128.75,986h1675.5c21.4,0,38.75-13.31,38.75-29.72V123.72C1843,107.31,1825.65,94,1804.25,94Z"/><g class="cls-4"><rect class="cls-5" x="14" y="22.51" width="1887" height="1044.48" rx="68.86"/><rect class="cls-6" x="17.65" y="25.96" width="1879.71" height="1037.23" rx="65.58"/><path class="cls-7" d="M21.29,91.72c0-34.41,37.51-62.3,71.92-62.3h1738.2c34.4,0,62.3,37,62.3,71.35V997.09c0,34.41-37.51,62.3-71.92,62.3H83.59c-34.4,0-62.3-36.94-62.3-71.35Z"/><path class="cls-8" d="M24.94,91.89c0-32.59,40.85-59,73.44-59H1831c32.6,0,59,40,59,72.61V996.57c0,32.6-40.85,59-73.44,59H84c-32.6,0-59-40-59-72.6Z"/><path class="cls-9" d="M28.59,92.07c0-30.79,44.18-55.74,75-55.74H1830.67c30.79,0,55.74,43.06,55.74,73.85V996.05c0,30.79-44.18,55.74-75,55.74H84.33c-30.79,0-55.74-43.06-55.74-73.85Z"/><path class="cls-10" d="M32.23,92.24c0-29,47.53-52.46,76.5-52.46H1830.3c29,0,52.47,46.13,52.47,75.1V995.53c0,29-47.53,52.46-76.5,52.46H84.7c-29,0-52.47-46.12-52.47-75.1Z"/><path class="cls-11" d="M35.88,92.42c0-27.17,50.86-49.19,78-49.19h1716c27.16,0,49.18,49.19,49.18,76.35V995c0,27.16-50.86,49.18-78,49.18H85.06c-27.16,0-49.18-49.18-49.18-76.34Z"/><path class="cls-12" d="M39.53,92.59c0-25.35,54.2-45.9,79.55-45.9H1829.57c25.35,0,45.9,52.24,45.9,77.6v870.2c0,25.35-54.2,45.91-79.55,45.91H85.43c-25.35,0-45.9-52.25-45.9-77.6Z"/><path class="cls-13" d="M43.17,92.77c0-23.54,57.54-42.63,81.09-42.63H1829.2c23.54,0,42.63,55.31,42.63,78.85V994c0,23.54-57.54,42.63-81.09,42.63H85.8c-23.54,0-42.63-55.31-42.63-78.85Z"/><path class="cls-14" d="M46.82,92.94c0-21.73,60.88-39.34,82.61-39.34h1699.4c21.73,0,39.35,58.36,39.35,80.09V993.45c0,21.73-60.88,39.35-82.61,39.35H86.17c-21.73,0-39.35-58.37-39.35-80.1Z"/><path class="cls-15" d="M50.47,93.12c0-19.92,64.21-36.07,84.13-36.07H1828.47c19.92,0,36.06,61.42,36.06,81.34V992.93c0,19.92-64.21,36.07-84.13,36.07H86.53c-19.92,0-36.06-61.43-36.06-81.35Z"/><path class="cls-16" d="M54.11,93.29c0-18.11,67.56-32.79,85.67-32.79H1828.1c18.11,0,32.79,64.49,32.79,82.6V992.41c0,18.11-67.56,32.79-85.67,32.79H86.9c-18.11,0-32.79-64.48-32.79-82.59Z"/><path class="cls-17" d="M57.76,93.47C57.76,77.17,128.66,64,145,64H1827.73c16.3,0,29.51,67.54,29.51,83.84V991.89c0,16.3-70.9,29.51-87.19,29.51H87.27c-16.3,0-29.51-67.54-29.51-83.84Z"/><path class="cls-18" d="M61.41,93.64c0-14.48,74.23-26.23,88.72-26.23H1827.36c14.49,0,26.23,70.6,26.23,85.09V991.37c0,14.49-74.23,26.23-88.72,26.23H87.64c-14.49,0-26.23-70.6-26.23-85.09Z"/><path class="cls-19" d="M65.05,93.82c0-12.68,77.58-22.95,90.25-22.95H1827c12.67,0,23,73.66,23,86.33V990.85c0,12.67-77.58,22.95-90.25,22.95H88c-12.67,0-23-73.66-23-86.34Z"/><path class="cls-20" d="M68.7,94c0-10.86,80.91-19.67,91.78-19.67H1826.63c10.86,0,19.67,76.72,19.67,87.59V990.33c0,10.86-80.91,19.67-91.78,19.67H88.37c-10.86,0-19.67-76.72-19.67-87.59Z"/><path class="cls-21" d="M72.35,94.17c0-9.06,84.25-16.4,93.3-16.4H1826.26c9,0,16.39,79.78,16.39,88.84v823.2c0,9.05-84.25,16.39-93.3,16.39H88.74c-9,0-16.39-79.78-16.39-88.83Z"/><path class="cls-22" d="M76,94.34c0-7.24,87.59-13.11,94.84-13.11H1825.89c7.25,0,13.12,82.84,13.12,90.08v818c0,7.24-87.59,13.11-94.84,13.11H89.11c-7.25,0-13.12-82.84-13.12-90.08Z"/><path class="cls-23" d="M79.64,94.52c0-5.43,90.93-9.84,96.36-9.84H1825.52c5.44,0,9.84,85.9,9.84,91.33V988.77c0,5.43-90.93,9.83-96.36,9.83H89.48c-5.44,0-9.84-85.9-9.84-91.33Z"/><path class="cls-24" d="M83.28,94.69c0-3.62,94.28-6.55,97.9-6.55h1644c3.62,0,6.56,89,6.56,92.58V988.25c0,3.62-94.28,6.55-97.9,6.55H89.84c-3.62,0-6.56-89-6.56-92.58Z"/><path class="cls-25" d="M86.93,94.87c0-1.81,97.61-3.28,99.42-3.28H1824.79c1.81,0,3.28,92,3.28,93.83v802.3c0,1.82-97.61,3.28-99.42,3.28H90.21c-1.81,0-3.28-92-3.28-93.83Z"/><rect class="cls-26" x="90.58" y="95.04" width="1733.84" height="892.16"/></g><path class="cls-27" d="M1843,584.52V556.37l-90.77-41.88L1843,472.61V444.46l-121.28,56L1508.45,402l-30.31,14.16,213.08,98.31-278,128.26L996.79,452.07,1775.68,94h-61.13L966.17,438.05,214.76,94H153.54l909.32,416.12L805.6,629.9,91,304.3v28L775.25,644,540.8,753.18,91,549.29v28.32L510,767.53,91,955.45v1.28c0,8.53,4.71,16.2,12.2,21.63L385,853.91l302.66-2.11-1.3,134.67h30.2l1.35-140L963.26,728.51l534.86,239-41.12,19h61l11.1-5.13,11.47,5.13h62.51l-43.24-19.31,249.4-115.07L1843,867.55v-28l-3.27-1.5,3.27-1.51V808.37L1809.11,824,1443.86,656.77l277.86-128.2ZM438.35,829.08l102.94-47.92L648,827.61Zm266.17-4.64-132.4-57.63L805.64,658.09l127,56.72Zm1074.11,13.63L1528.84,953.32,836,644l257.3-119.79Z"/><polygon class="cls-28" points="1113.39 793.28 709.73 988.47 1017.37 988.47 1283.91 821.09 1283.91 785.7 1302.26 769.01 1329.24 744.6 1329.24 716.4 1239.82 784.28 1113.39 793.28"/><ellipse class="cls-29" cx="1289.98" cy="544.8" rx="367.07" ry="470.68"/><g class="cls-30"><path class="cls-31" d="M1435.51,915.52c-7.68,0-14.65-1.68-20.16-4.86L1293,841l-122.39-69.65c-7.35-4.25-11.56-11-11.56-18.42,0-8.18,5.08-15.81,13.93-20.91L1253,687a49.65,49.65,0,0,1,24.48-6.22c7.68,0,14.64,1.68,20.15,4.86l122.39,69.65,122.39,69.65c7.35,4.24,11.56,11,11.56,18.42,0,8.18-5.07,15.8-13.92,20.91L1460,909.29A49.54,49.54,0,0,1,1435.51,915.52Z"/><path class="cls-32" d="M1175.11,733.75l21.79-12.15c.88-.52,41.63-22.75,42.39-22.3l14-6.83c6.32-3.65,15.6-4.86,23.63-4.86a41.47,41.47,0,0,1,19.46,5.07l98,55.84,20.87,11.88,118.89,67.73a25.37,25.37,0,0,1,9.24,9,18.87,18.87,0,0,1,2.43,8.56c.24,7.86-4.6,15.32-13.3,20.34l-21.79,12.16c-.88.51-41.63,22.74-42.4,22.29l-13.94,6.84c-6.32,3.64-15.61,4.85-23.64,4.85a41.4,41.4,0,0,1-19.45-5.07l-98-55.84-20.87-11.88-118.9-67.73a25.37,25.37,0,0,1-9.24-9,18.85,18.85,0,0,1-2.42-8.56C1161.57,746.23,1166.4,738.77,1175.11,733.75Z"/><path class="cls-33" d="M1177.27,735.47l21.2-11.71c1.77-1,39.92-21.09,41.45-20.21l13.53-5.58c5.69-3.28,15.56-3.49,22.79-3.49,6.28,0,14.25,2.68,18.76,5.28L1390.15,754l20.25,11.55,115.41,65.8c3.45,2,7.39,5.57,9.11,8.57a18.59,18.59,0,0,1,2.65,8.14c.46,7.54-4.11,14.83-12.67,19.77l-21.19,11.71c-1.77,1-39.92,21.09-41.45,20.2l-13.53,5.59c-5.69,3.28-15.57,3.49-22.79,3.49-6.29,0-14.26-2.68-18.76-5.28L1312,849.29l-20.26-11.54L1176.37,772c-3.46-2-7.4-5.57-9.12-8.57a18.75,18.75,0,0,1-2.64-8.14C1164.15,747.69,1168.72,740.41,1177.27,735.47Z"/><path class="cls-34" d="M1179.44,737.2l20.61-11.28c2.65-1.53,38.2-19.44,40.49-18.11l13.12-4.33c5-2.92,15.52-2.13,21.95-2.13,5.58,0,14.05,3.18,18.06,5.49l92.27,52.67,19.64,11.21,111.91,63.88c3.07,1.77,7.41,5.49,9,8.12a18.4,18.4,0,0,1,2.87,7.72c.7,7.23-3.63,14.34-12,19.2l-20.61,11.27c-2.65,1.54-38.2,19.44-40.5,18.12l-13.11,4.33c-5.06,2.92-15.52,2.13-21.95,2.13-5.58,0-14.05-3.18-18.06-5.5l-92.27-52.66-19.64-11.21-111.91-63.88c-3.08-1.77-7.41-5.5-9-8.13a18.33,18.33,0,0,1-2.86-7.72C1166.71,749.16,1171,742.05,1179.44,737.2Z"/><path class="cls-35" d="M1181.61,738.92l20-10.84c3.54-2,36.48-17.78,39.55-16l12.7-3.09c4.42-2.55,15.48-.77,21.1-.77,4.89,0,13.86,3.69,17.36,5.71l89.4,51.09,19,10.87,108.42,62c2.69,1.55,7.43,5.42,8.87,7.69a18.18,18.18,0,0,1,3.09,7.3c.94,6.91-3.14,13.85-11.4,18.62l-20,10.84c-3.53,2-36.48,17.79-39.54,16l-12.7,3.08c-4.42,2.55-15.48.77-21.11.77-4.88,0-13.85-3.69-17.35-5.71l-89.4-51.08-19-10.87-108.43-62c-2.68-1.55-7.42-5.42-8.87-7.69a18.24,18.24,0,0,1-3.08-7.3C1169.27,750.63,1173.35,743.69,1181.61,738.92Z"/><path class="cls-36" d="M1183.78,740.64l19.42-10.39c4.42-2.56,34.76-16.14,38.59-13.93l12.29-1.83c3.79-2.19,15.44.59,20.26.59,4.19,0,13.66,4.19,16.66,5.93l86.52,49.49L1395.93,781l104.93,60c2.3,1.33,7.46,5.34,8.75,7.25,1.52,2.27,2.87,4.42,3.3,6.89,1.18,6.59-2.66,13.36-10.77,18l-19.42,10.39c-4.43,2.56-34.76,16.14-38.59,13.93l-12.29,1.83c-3.79,2.19-15.44-.59-20.26-.59-4.19,0-13.66-4.19-16.66-5.93l-86.52-49.49L1290,832.86l-104.93-60c-2.3-1.33-7.46-5.34-8.75-7.25-1.52-2.27-2.87-4.42-3.3-6.89C1171.83,752.1,1175.67,745.33,1183.78,740.64Z"/><path class="cls-37" d="M1186,742.37l18.83-10c5.31-3.06,33-14.48,37.64-11.83l11.87-.59c3.16-1.82,15.4,2,19.42,2,3.49,0,13.46,4.69,16,6.14L1373.31,776l17.79,10.19,101.44,58.1c1.92,1.11,7.51,5.26,8.63,6.82,1.55,2.18,3,4.14,3.53,6.46,1.41,6.28-2.18,12.88-10.15,17.48l-18.83,10c-5.31,3.06-33,14.48-37.64,11.83l-11.87.59c-3.16,1.82-15.4-2-19.42-2-3.49,0-13.46-4.69-16-6.14l-83.64-47.91-17.79-10.19L1188,773.12c-1.92-1.11-7.51-5.25-8.63-6.81-1.55-2.18-3-4.14-3.53-6.46C1174.39,753.56,1178,747,1186,742.37Z"/><path class="cls-38" d="M1188.12,744.09l18.23-9.52c6.2-3.57,31.33-12.83,36.69-9.73l11.46.66c2.53-1.46,15.36,3.32,18.57,3.32,2.8,0,13.27,5.19,15.27,6.35l80.76,46.32,17.18,9.86,98,56.18c1.53.88,7.57,5.15,8.5,6.37,1.58,2.1,3.14,3.87,3.75,6.05,1.66,6-1.7,12.39-9.52,16.9l-18.23,9.52c-6.2,3.58-31.33,12.83-36.69,9.74l-11.46-.66c-2.53,1.46-15.36-3.33-18.57-3.33-2.8,0-13.27-5.19-15.27-6.34L1306,839.45l-17.18-9.85-97.94-56.18c-1.54-.89-7.58-5.15-8.51-6.38-1.57-2.09-3.14-3.86-3.75-6C1177,755,1180.3,748.6,1188.12,744.09Z"/><path class="cls-39" d="M1190.29,745.81l17.64-9.07c7.08-4.09,29.61-11.19,35.74-7.65l11,1.91c1.89-1.09,15.32,4.69,17.73,4.69,2.1,0,13.06,5.69,14.57,6.56L1364.89,787l16.57,9.51,94.45,54.26c1.15.67,7.85,4.92,8.38,5.94a12.69,12.69,0,0,1,4,5.62c1.91,5.65-1.21,11.91-8.89,16.34l-17.64,9.07c-7.08,4.09-29.61,11.19-35.74,7.65l-11-1.91c-1.89,1.09-15.32-4.69-17.73-4.69-2.09,0-13.06-5.69-14.56-6.56l-77.89-44.74L1288.21,828l-94.46-54.26c-1.15-.66-7.85-4.92-8.38-5.94a12.69,12.69,0,0,1-4-5.62C1179.5,756.5,1182.62,750.24,1190.29,745.81Z"/><path class="cls-40" d="M1192.46,747.54l17-8.64c8-4.6,27.89-9.53,34.78-5.55l10.63,3.16c1.26-.73,15.28,6,16.89,6,1.39,0,12.86,6.19,13.86,6.77l75,43.15,16,9.18,91,52.33c.77.45,7.9,4.82,8.26,5.5a12.47,12.47,0,0,1,4.19,5.21c2.16,5.33-.73,11.42-8.25,15.76l-17,8.64c-8,4.6-27.89,9.53-34.79,5.55l-10.63-3.16c-1.26.73-15.28-6-16.89-6-1.39,0-12.86-6.2-13.86-6.77l-75-43.15-16-9.18-91-52.33c-.77-.45-7.9-4.83-8.26-5.51a12.38,12.38,0,0,1-4.19-5.2C1182,758,1184.93,751.88,1192.46,747.54Z"/><path class="cls-41" d="M1194.63,749.26l16.45-8.2c8.85-5.11,26.18-7.88,33.84-3.45l10.21,4.4c.63-.36,15.24,7.42,16,7.42s12.67,6.69,13.17,7L1356.47,798l15.34,8.84,87.47,50.41c.38.22,8,4.72,8.13,5.06a12.22,12.22,0,0,1,4.41,4.78c2.42,5-.25,10.94-7.62,15.2l-16.46,8.19c-8.85,5.11-26.17,7.88-33.83,3.46l-10.22-4.41c-.63.37-15.24-7.41-16-7.41s-12.67-6.7-13.17-7l-72.12-41.56L1287,824.71l-87.47-50.41c-.39-.22-8-4.72-8.14-5.06a12.24,12.24,0,0,1-4.41-4.79C1184.58,759.44,1187.25,753.52,1194.63,749.26Z"/><path d="M1407.86,893.19l-106.71-61.61L1194.43,770c-8.42-4.87-7.37-13.37,2.36-19l15.87-7.75c9.73-5.62,24.45-6.23,32.88-1.37l106.72,61.61L1459,865.09c8.43,4.86,7.37,13.36-2.36,19l-15.87,7.76C1431,897.45,1416.29,898.06,1407.86,893.19Z"/></g><ellipse class="cls-42" cx="1394.46" cy="332.88" rx="52.29" ry="66.95" transform="translate(-21.86 555.03) rotate(-22.34)"/><path class="cls-43" d="M1408,878.39,1221.38,770.64c-21.05-12.15-38.11-44.76-38.11-72.83v-497c0-14.27-11.74-17.43-4.63-22.55.27-.2,16.66-7.64,17-7.76,7.65-2.93,15.83-4.24,25.77,1.5L1408,279.74c21,12.15,38.11,44.76,38.11,72.83v497c0,14.92-4.81,25.55-12.49,30.42-.45.28-20.2,9.68-20.71,9.84C1406.12,892.1,1417.21,883.7,1408,878.39Z"/><path class="cls-44" d="M1406.29,280.31,1219.66,172.56C1209.72,166.82,1396,283.75,1396,283.75c21,12.15,38.12,44.76,38.12,72.83,0,0,10.32,508.48,10.32,493.57v-497C1444.41,325.07,1427.34,292.46,1406.29,280.31Z"/><path class="cls-45" d="M1393.51,885,1206.89,777.27c-21.06-12.15-38.12-44.76-38.12-72.83v-497c0-28.07,17.06-41,38.12-28.81l186.62,107.75c21,12.15,38.12,44.76,38.12,72.83v497C1431.63,884.27,1414.56,897.17,1393.51,885Z"/><path class="cls-46" d="M1390.19,886.81,1203.57,779.06c-21.06-12.15-38.12-44.76-38.12-72.83v-497c0-28.07,17.06-41,38.12-28.82l186.62,107.75c21,12.15,38.12,44.76,38.12,72.83V858C1428.31,886.07,1411.24,899,1390.19,886.81Z"/><path class="cls-47" d="M1170.65,709.54V211.92c0-24.6,15-35.91,33.41-25.26L1389.7,293.84c18.45,10.65,33.41,39.24,33.41,63.84V855.3c0,24.61-15,35.92-33.41,25.26L1204.06,773.39C1185.61,762.73,1170.65,734.15,1170.65,709.54Z"/><path class="cls-48" d="M1178.07,712.57V217.47c0-20.6,12.52-30.06,28-21.14l181.68,104.89c15.44,8.91,28,32.84,28,53.44V849.75c0,20.6-12.52,30.07-28,21.15L1206,766C1190.59,757.09,1178.07,733.16,1178.07,712.57Z"/><path class="cls-49" d="M1208.14,201.8c-14.55-8.41-26.36-1.68-26.36,15V717.5c0,16.7,11.81,37.06,26.36,45.46l177.47,102.46c14.56,8.41,26.36,1.68,26.36-15V349.73c0-16.71-11.8-37.06-26.36-45.47Z"/><path class="cls-50" d="M1433.32,476V442.44c0-4.29,2.61-9.28,5.82-11.14h0c3.22-1.85,5.83.12,5.83,4.41v33.55c0,4.29-2.61,9.27-5.83,11.13h0C1435.93,482.25,1433.32,480.28,1433.32,476Z"/><path class="cls-51" d="M1436.83,479.83c-1.66,0-2.25-2.07-2.25-3.84V442.43c0-3.81,2.38-8.41,5.19-10a3.62,3.62,0,0,1,1.69-.53c1.66,0,2.25,2.08,2.25,3.85v33.55c0,3.82-2.38,8.41-5.2,10A3.44,3.44,0,0,1,1436.83,479.83Z"/><path class="cls-52" d="M1436.3,476.85V443.29c0-3.81,2.38-8.41,5.19-10a3.71,3.71,0,0,1,1.5-.49,1.79,1.79,0,0,0-1.53-.9,3.62,3.62,0,0,0-1.69.53c-2.81,1.63-5.19,6.23-5.19,10.05V476c0,1.77.59,3.84,2.25,3.84l.19,0A5.59,5.59,0,0,1,1436.3,476.85Z"/><path class="cls-53" d="M1385.61,304.26,1208.14,201.8c-14.55-8.4-26.36-1.68-26.36,15V717.5c0,16.7,11.81,37.06,26.36,45.46l177.47,102.46c14.56,8.41,26.36,1.68,26.36-15V349.73C1412,333,1400.17,312.67,1385.61,304.26Zm24.07,546.13c0,5.19-1.22,9.45-3.53,12.33a10.75,10.75,0,0,1-8.7,4h0a22,22,0,0,1-10.68-3.31L1209.29,761c-13.9-8-25.21-27.53-25.21-43.48V216.83c0-10.09,4.68-16.36,12.23-16.36a22,22,0,0,1,10.69,3.32l177.47,102.46c13.9,8,25.21,27.53,25.21,43.48Z"/><g class="cls-54"><polygon class="cls-55" points="1272.62 242.03 1312.92 263.79 1263.76 350.03 1263.76 474.94 1225.88 524.11 1212.98 599.06 1183.16 640.16 1183.16 566.01 1202.51 501.54 1231.52 466.08 1244.41 415.31 1237.97 348.42 1272.62 242.03"/><path class="cls-56" d="M1382.5,404,1412,421v-6.39l-29.47-17V302.46l-5.54-3.2v95.15l-18.32-10.57-17.17-44.56-159.69-92.2v6.4l34.91,20.15v97.5L1181.78,351v6.4l34.91,20.16v57l-34.91-20.21v6.4l40.45,23.41V380.72l119.57,69V550.38l-14.87-8.59-51.46,15.54-93.69-54.1v6.4L1244.85,546v95.3l-63.07,28.07v6.06l65.23-29L1304.73,745l-54.53,42.24,5.18,3,92.36-71.54L1377,735.42V857.14h5.54V738.59l29,16.62.45-.79v-5.34l-29.47-16.87V650.54l29.47,17v-6.39l-29.47-17V580.27l29.47,17v-6.4l-29.47-17V473.25l29.47,17v-6.4l-29.47-17ZM1250.39,549.24l23.35,13.48,1,.6,51.46-15.53,15.56,9v63.89l-22-12.69-69.41,30.9ZM1377,729l-29.68-17-38.14,29.54-57-97.41,67.38-30,22.32,12.88v.17h.3L1377,647.34Zm0-88.08-29.62-17.09V560l29.62,17.1Zm0-70.28-29.62-17.09V453L1377,470.05Zm0-107-154.73-89.33v-97.5L1337,343.1l17.17,44.56L1377,400.81Z"/></g><ellipse class="cls-57" cx="1187.19" cy="200.12" rx="72.01" ry="89.9" transform="translate(37.95 558.9) rotate(-26.91)"/><path class="cls-58" d="M1241.59,789l-126.93,9L720.56,988.47h287.72L1274,821.62a10.9,10.9,0,0,0,5.1-9.22V783.56l20-18.13,25.38-23V726.14Z"/><polygon class="cls-59" points="1383.72 476.37 1383.84 463.66 1383.48 463.46 1383.48 352.6 1374.17 344.49 1374.17 458.32 1284.36 408.77 1284.36 556.03 1314.1 611.59 1314.1 735.46 1325.18 732.89 1325.18 608.81 1295.44 553.25 1295.44 427.45 1383.72 476.37"/><path class="cls-60" d="M1332.57,742c0,9-6.32,12.55-14.11,8s-14.11-15.4-14.11-24.34,6.32-12.55,14.11-8.05S1332.57,733.06,1332.57,742Z"/><path class="cls-61" d="M1332.57,622.12c0,8.94-6.32,12.54-14.11,8s-14.11-15.4-14.11-24.34,6.32-12.55,14.11-8.05S1332.57,613.17,1332.57,622.12Z"/><path class="cls-61" d="M1328.6,644.19a21.71,21.71,0,0,1-10.74-3.26c-12.79-7.39-23.19-25.33-23.19-40,0-10.44,5.36-17.19,13.65-17.19a21.6,21.6,0,0,1,10.74,3.27c12.79,7.38,23.19,25.32,23.19,40C1342.25,637.44,1336.89,644.19,1328.6,644.19Zm-20.28-58c-6.93,0-11.23,5.66-11.23,14.77,0,13.9,9.86,30.91,22,37.9a19.56,19.56,0,0,0,9.54,2.94c6.93,0,11.23-5.66,11.23-14.77,0-13.9-9.86-30.9-22-37.9A19.67,19.67,0,0,0,1308.32,586.16Z"/><ellipse class="cls-60" cx="1292.17" cy="555.13" rx="11.49" ry="19.9" transform="translate(-103.53 728.03) rotate(-30.31)"/><path class="cls-60" d="M1303.46,429.3c0,8.94-6.32,12.54-14.11,8S1275.23,422,1275.23,413s6.32-12.55,14.12-8.05S1303.46,420.35,1303.46,429.3Z"/><path class="cls-60" d="M1391.1,472.21c0,9-6.32,12.55-14.11,8.05s-14.11-15.4-14.11-24.34,6.32-12.55,14.11-8.05S1391.1,463.27,1391.1,472.21Z"/><path class="cls-60" d="M1391.1,359.18c0,8.95-6.32,12.55-14.11,8.05s-14.11-15.4-14.11-24.34,6.32-12.55,14.11-8.05S1391.1,350.24,1391.1,359.18Z"/><g class="cls-4"><path class="cls-62" d="M1151.44,831.12a2.42,2.42,0,0,1-1.21-4.51l10.46-6.06a2.42,2.42,0,0,1,2.42,4.19l-10.46,6A2.32,2.32,0,0,1,1151.44,831.12Z"/><path class="cls-62" d="M914.14,968.6a2.42,2.42,0,0,1-1.21-4.51l19.78-11.46a2.42,2.42,0,0,1,2.42,4.19l-19.78,11.45A2.4,2.4,0,0,1,914.14,968.6Zm39.55-22.91a2.42,2.42,0,0,1-1.21-4.51l19.78-11.46a2.41,2.41,0,1,1,2.42,4.18L954.9,945.36A2.4,2.4,0,0,1,953.69,945.69Zm39.55-22.92a2.42,2.42,0,0,1-1.21-4.51l19.78-11.45a2.41,2.41,0,0,1,2.42,4.18l-19.78,11.46A2.41,2.41,0,0,1,993.24,922.77Zm39.55-22.91a2.42,2.42,0,0,1-1.21-4.51l19.77-11.46a2.42,2.42,0,0,1,2.43,4.19L1034,899.54A2.38,2.38,0,0,1,1032.79,899.86ZM1072.34,877a2.42,2.42,0,0,1-1.21-4.51L1090.91,861a2.41,2.41,0,1,1,2.42,4.18l-19.78,11.46A2.42,2.42,0,0,1,1072.34,877ZM1111.89,854a2.42,2.42,0,0,1-1.21-4.51l19.77-11.45a2.42,2.42,0,1,1,2.43,4.18l-19.78,11.46A2.41,2.41,0,0,1,1111.89,854Z"/><path class="cls-62" d="M883.91,986.11a2.41,2.41,0,0,1-1.21-4.5l10.46-6.07a2.42,2.42,0,0,1,2.42,4.19l-10.46,6.06A2.41,2.41,0,0,1,883.91,986.11Z"/></g><path class="cls-63" d="M1273,822.31,1092,926.82c-7,3.43-8.53,3.43-17.64-2.14l-67.08-40.31a5.5,5.5,0,0,1,0-9.53l183.2-107a5.5,5.5,0,0,1,5.52,0l77,44.89A5.5,5.5,0,0,1,1273,822.31Z"/><polygon class="cls-64" points="1133.27 883.53 1105.22 867.23 1134.57 861.89 1133.27 883.53"/><polygon class="cls-64" points="1250.96 817.04 1222.91 800.74 1252.27 795.4 1250.96 817.04"/><path class="cls-65" d="M1205.83,829.66c0,5.33,1.84,9.1,4.83,10.93l9.54,5.52c3.11,1.74,1.12-2.21,5.84-4.93,9.51-5.49,17.22-18.79,17.22-29.7,0-5.39,5-5.43,1.93-7.24l-10.13-5.6c-3.1-1.68-7.34-1.37-12,1.33C1213.54,805.46,1205.83,818.75,1205.83,829.66Z"/><path class="cls-66" d="M1215.8,835.32c0,10.91,7.71,15.3,17.22,9.81s17.21-18.78,17.21-29.69-7.71-15.3-17.21-9.81S1215.8,824.41,1215.8,835.32Z"/><path class="cls-67" d="M1232.19,805.21c4.56-2.63,8.7-3,11.78-1.44-2.87-.81-6.43-.21-10.29,2-9.51,5.49-17.22,18.78-17.22,29.69,0,5.68,2.09,9.59,5.44,11.26-4.2-1.17-6.92-5.35-6.92-11.83C1215,824,1222.68,810.7,1232.19,805.21Z"/><path class="cls-68" d="M1219.19,833.32c0,8.4,5.93,11.78,13.25,7.56s13.26-14.47,13.26-22.87-5.93-11.79-13.26-7.56S1219.19,824.91,1219.19,833.32Zm8.75-5.3c0,.08,0,.16,0,.25s0,.16,0,.24a2.31,2.31,0,0,1-.56,1.46l-4.11,5.1c-.62.77-1.41.86-1.6.18a11.58,11.58,0,0,1-.39-3.14,17.31,17.31,0,0,1,.39-3.6c.19-.89,1-1.71,1.6-1.66l4.11.35C1227.74,827.23,1228,827.54,1227.94,828Zm-3.42-6.8a25.3,25.3,0,0,1,5.06-6.29c.7-.61,1.38-.41,1.38.42v5.43a2.4,2.4,0,0,1-.59,1.48c-.12.15-.25.3-.36.46a1.46,1.46,0,0,1-1.14.67l-4.11-.35C1224.14,823,1224,822.09,1224.52,821.22Zm10.79-9.6a6.53,6.53,0,0,1,5.06.44c.5.3.38,1.34-.24,2.1l-4.11,5.1a1.37,1.37,0,0,1-1.14.64,2.1,2.1,0,0,0-.36,0c-.37,0-.59-.33-.59-.8v-5.44A2.31,2.31,0,0,1,1235.31,811.62Zm7.91,4.45a11.71,11.71,0,0,1,.39,3.15,17.29,17.29,0,0,1-.39,3.59c-.19.9-1,1.72-1.6,1.67l-4.11-.35c-.36,0-.58-.34-.56-.82,0-.09,0-.17,0-.25s0-.17,0-.25a2.33,2.33,0,0,1,.56-1.46l4.11-5.1C1242.24,815.49,1243,815.39,1243.22,816.07Zm-2.85,14a25.06,25.06,0,0,1-5.06,6.28c-.7.62-1.38.41-1.38-.41v-5.44a2.42,2.42,0,0,1,.59-1.48c.12-.14.25-.3.36-.45a1.48,1.48,0,0,1,1.14-.68l4.11.36C1240.75,828.34,1240.87,829.24,1240.37,830.11Zm-10.79,9.59a6.49,6.49,0,0,1-5.06-.44c-.5-.29-.38-1.33.24-2.1l4.11-5.1a1.42,1.42,0,0,1,1.14-.64l.36,0c.37,0,.59.32.59.8v5.43A2.28,2.28,0,0,1,1229.58,839.7Z"/><path class="cls-69" d="M1220,833.65c0,8.4,5.94,11.78,13.26,7.56s13.26-14.47,13.26-22.87-5.94-11.79-13.26-7.56S1220,825.25,1220,833.65Zm8.76-5.3a2,2,0,0,0,0,.25,1.93,1.93,0,0,0,0,.24,2.37,2.37,0,0,1-.56,1.46l-4.11,5.1c-.62.77-1.42.86-1.6.18a11.56,11.56,0,0,1-.4-3.14,17.41,17.41,0,0,1,.4-3.6c.18-.89,1-1.71,1.6-1.66l4.11.35C1228.56,827.56,1228.79,827.87,1228.77,828.35Zm-3.43-6.8a25.33,25.33,0,0,1,5.07-6.29c.69-.61,1.38-.41,1.38.42v5.43a2.4,2.4,0,0,1-.59,1.48c-.13.15-.25.3-.37.46a1.43,1.43,0,0,1-1.13.67l-4.12-.35C1225,823.32,1224.84,822.42,1225.34,821.55Zm10.79-9.59a6.51,6.51,0,0,1,5.07.43c.5.3.37,1.34-.24,2.1l-4.11,5.1a1.39,1.39,0,0,1-1.14.64,2.22,2.22,0,0,0-.37,0c-.36,0-.58-.33-.58-.8V814A2.29,2.29,0,0,1,1236.13,812Zm7.92,4.44a12.12,12.12,0,0,1,.39,3.15,18,18,0,0,1-.39,3.59c-.19.9-1,1.72-1.6,1.67l-4.12-.35c-.35,0-.57-.34-.55-.82v-.49a2.38,2.38,0,0,1,.55-1.47l4.12-5.1C1243.06,815.82,1243.86,815.72,1244.05,816.4Zm-2.85,14a25.33,25.33,0,0,1-5.07,6.29c-.69.61-1.37.4-1.37-.42v-5.44a2.47,2.47,0,0,1,.58-1.48c.13-.14.25-.3.37-.45a1.43,1.43,0,0,1,1.14-.67l4.11.35C1241.57,828.67,1241.7,829.57,1241.2,830.44ZM1230.41,840a6.48,6.48,0,0,1-5.06-.44c-.51-.29-.38-1.33.23-2.1l4.12-5.1a1.42,1.42,0,0,1,1.13-.64l.37,0c.37,0,.59.32.59.8V838A2.3,2.3,0,0,1,1230.41,840Z"/><path class="cls-70" d="M1087.87,897.68c0,5.33,1.84,9.11,4.83,10.93l9.54,5.52c3.11,1.74,1.12-2.2,5.84-4.93,9.51-5.49,17.22-18.78,17.22-29.69,0-5.4,5-5.44,1.93-7.24l-10.13-5.61c-3.1-1.68-7.34-1.37-12,1.33C1095.58,873.48,1087.87,886.77,1087.87,897.68Z"/><path class="cls-71" d="M1097.84,903.34c0,10.91,7.71,15.3,17.21,9.82s17.22-18.79,17.22-29.7-7.71-15.3-17.22-9.81S1097.84,892.43,1097.84,903.34Z"/><path class="cls-72" d="M1114.23,873.23c4.56-2.63,8.7-3,11.78-1.44-2.87-.8-6.44-.2-10.29,2-9.51,5.49-17.22,18.79-17.22,29.7,0,5.68,2.09,9.58,5.44,11.26-4.21-1.18-6.93-5.36-6.93-11.84C1097,892,1104.72,878.72,1114.23,873.23Z"/><path class="cls-73" d="M1101.23,901.34c0,8.4,5.93,11.78,13.25,7.56s13.26-14.47,13.26-22.87-5.94-11.78-13.26-7.56S1101.23,892.94,1101.23,901.34ZM1110,896a2.09,2.09,0,0,0,0,.25,1.93,1.93,0,0,0,0,.24,2.35,2.35,0,0,1-.56,1.46l-4.11,5.1c-.62.77-1.41.87-1.6.19a11.71,11.71,0,0,1-.39-3.15,17.29,17.29,0,0,1,.39-3.59c.19-.9,1-1.72,1.6-1.67l4.11.35C1109.77,895.25,1110,895.56,1110,896Zm-3.42-6.8a25.07,25.07,0,0,1,5.06-6.29c.7-.61,1.38-.4,1.38.42v5.44a2.4,2.4,0,0,1-.59,1.47c-.13.15-.25.3-.37.46a1.43,1.43,0,0,1-1.13.67l-4.11-.35C1106.18,891,1106.06,890.11,1106.56,889.24Zm10.79-9.59a6.45,6.45,0,0,1,5.06.44c.5.29.38,1.33-.24,2.1l-4.11,5.09a1.38,1.38,0,0,1-1.14.64l-.36,0c-.37,0-.59-.32-.59-.8v-5.43A2.28,2.28,0,0,1,1117.35,879.65Zm7.91,4.44a12.12,12.12,0,0,1,.39,3.15,18,18,0,0,1-.39,3.59c-.19.9-1,1.72-1.6,1.67l-4.11-.35c-.36,0-.58-.34-.56-.82v-.49a2.29,2.29,0,0,1,.56-1.46l4.11-5.1C1124.27,883.51,1125.07,883.41,1125.26,884.09Zm-2.85,14a25.52,25.52,0,0,1-5.06,6.29c-.7.61-1.38.4-1.38-.42v-5.44a2.42,2.42,0,0,1,.59-1.48q.18-.21.36-.45a1.45,1.45,0,0,1,1.14-.67l4.11.35C1122.79,896.36,1122.91,897.26,1122.41,898.13Zm-10.79,9.59a6.44,6.44,0,0,1-5.06-.44c-.5-.29-.38-1.33.24-2.1l4.11-5.09a1.36,1.36,0,0,1,1.13-.64,2.22,2.22,0,0,0,.37,0c.37,0,.59.32.59.8v5.43A2.28,2.28,0,0,1,1111.62,907.72Z"/><path class="cls-74" d="M1102.05,901.67c0,8.4,5.94,11.78,13.26,7.56s13.26-14.47,13.26-22.87-5.94-11.78-13.26-7.56S1102.05,893.27,1102.05,901.67Zm8.75-5.3v.49a2.34,2.34,0,0,1-.55,1.46l-4.12,5.1c-.61.77-1.41.87-1.6.19a12.12,12.12,0,0,1-.39-3.15,18,18,0,0,1,.39-3.59c.19-.9,1-1.72,1.6-1.67l4.12.35C1110.6,895.58,1110.82,895.89,1110.8,896.37Zm-3.42-6.8a25.33,25.33,0,0,1,5.07-6.29c.69-.61,1.37-.4,1.37.42v5.44a2.49,2.49,0,0,1-.58,1.48,5.54,5.54,0,0,0-.37.45,1.43,1.43,0,0,1-1.14.67l-4.11-.35C1107,891.34,1106.88,890.44,1107.38,889.57Zm10.79-9.59a6.44,6.44,0,0,1,5.06.44c.51.29.38,1.33-.23,2.1l-4.12,5.09a1.36,1.36,0,0,1-1.13.64,2.22,2.22,0,0,0-.37,0c-.37,0-.59-.32-.59-.8V882A2.3,2.3,0,0,1,1118.17,880Zm7.91,4.44a11.69,11.69,0,0,1,.4,3.15,17.32,17.32,0,0,1-.4,3.59c-.18.9-1,1.72-1.6,1.67l-4.11-.35c-.35,0-.58-.34-.56-.82a2.09,2.09,0,0,0,0-.25,1.93,1.93,0,0,0,0-.24,2.35,2.35,0,0,1,.56-1.46l4.11-5.1C1125.1,883.84,1125.9,883.74,1126.08,884.42Zm-2.85,14a25.07,25.07,0,0,1-5.06,6.29c-.69.61-1.38.4-1.38-.42v-5.44a2.4,2.4,0,0,1,.59-1.47c.13-.15.25-.3.37-.46a1.43,1.43,0,0,1,1.13-.67l4.12.35C1123.61,896.69,1123.74,897.59,1123.23,898.46Zm-10.78,9.59a6.47,6.47,0,0,1-5.07-.44c-.5-.29-.37-1.33.24-2.1l4.11-5.09a1.39,1.39,0,0,1,1.14-.64,2.22,2.22,0,0,0,.37,0c.36,0,.58.32.58.8V906A2.29,2.29,0,0,1,1112.45,908.05Z"/><path class="cls-75" d="M1018.89,771.71a11,11,0,0,1,3.72-3.52L1192,670.6a10.94,10.94,0,0,1,10.72-.12l49,26.84a10.93,10.93,0,0,1,4.93,5.6l8.84,35.79a10.93,10.93,0,0,1,.75,3.79l0,59.16a10.94,10.94,0,0,1-5.55,9.74l-10,5.69a29.76,29.76,0,0,0,.44-4.91c0-12.13-8.57-17-19.14-10.91s-19.13,20.88-19.13,33a21.3,21.3,0,0,0,.36,4l-80,45.21c.07-.83.12-1.65.12-2.46,0-12.13-8.57-17-19.14-10.91s-19.14,20.88-19.14,33c0,.67,0,1.31.08,1.93l-11.35,6.76a10.94,10.94,0,0,1-10.25.29l-60.81-34.82a10.94,10.94,0,0,1-6.1-9.81V853C1006.68,850.87,1018.89,771.71,1018.89,771.71Z"/><path class="cls-76" d="M1081.75,803.31a16.93,16.93,0,0,1,6.83-7.29L1255,700.17a10.61,10.61,0,0,1,1.59,2.75l8.84,35.79a10.93,10.93,0,0,1,.75,3.79l0,59.16a10.94,10.94,0,0,1-5.55,9.74l-10,5.69a29.76,29.76,0,0,0,.44-4.91c0-12.13-8.57-17-19.14-10.91s-19.13,20.88-19.13,33a21.3,21.3,0,0,0,.36,4l-80,45.21c.07-.83.12-1.65.12-2.46,0-12.13-8.57-17-19.14-10.91s-19.14,20.88-19.14,33c0,.67,0,1.31.08,1.93l-11.35,6.76a10.89,10.89,0,0,1-7.31,1.24V890.24C1076.53,887.41,1081.75,803.31,1081.75,803.31Z"/><path class="cls-77" d="M1018.89,771.71a11,11,0,0,1,3.72-3.52L1192,670.6a10.94,10.94,0,0,1,10.72-.12l49,26.84a11.14,11.14,0,0,1,3.32,2.86L1088.58,796a16.93,16.93,0,0,0-6.83,7.29s-5.22,84.1-5.22,86.93v22.84a10.71,10.71,0,0,1-2.94-.93l-60.81-34.82a10.94,10.94,0,0,1-6.1-9.81V853C1006.68,850.87,1018.89,771.71,1018.89,771.71Z"/><path d="M1203,752v26.36a3.43,3.43,0,0,0,1,2.49,3.53,3.53,0,0,0,2.41,1h0a3.47,3.47,0,0,0,1.64-.41l41.72-23.26a7.61,7.61,0,0,0,4-6.7V723.83a3.45,3.45,0,0,0-5.2-3l-41.85,24.59A7.65,7.65,0,0,0,1203,752Z"/><path class="cls-78" d="M1250.34,721.82a2,2,0,0,1,2,2v27.63a6.15,6.15,0,0,1-3.25,5.42l-41.72,23.25a2,2,0,0,1-2.35-.32,2,2,0,0,1-.6-1.44V752a6.19,6.19,0,0,1,3-5.33l41.85-24.59A2,2,0,0,1,1250.34,721.82Z"/><path d="M1084.79,820.74V847.1a3.41,3.41,0,0,0,1,2.49,3.54,3.54,0,0,0,2.41,1h0a3.42,3.42,0,0,0,1.64-.42l41.72-23.25a7.61,7.61,0,0,0,4-6.71V792.56a3.47,3.47,0,0,0-5.21-3l-41.84,24.59A7.65,7.65,0,0,0,1084.79,820.74Z"/><path class="cls-79" d="M1132.15,790.55a2,2,0,0,1,2,2v27.63a6.16,6.16,0,0,1-3.24,5.43l-41.72,23.25a2,2,0,0,1-2.35-.33,2,2,0,0,1-.61-1.44V820.74a6.18,6.18,0,0,1,3.06-5.32l41.85-24.59A1.89,1.89,0,0,1,1132.15,790.55Z"/><path d="M1148.63,765.68v4.63a2.76,2.76,0,0,0,.84,2,2.83,2.83,0,0,0,1.92.77h0a2.74,2.74,0,0,0,1.31-.33l33.22-18.52a6.06,6.06,0,0,0,3.2-5.34v-5.64a2.75,2.75,0,0,0-4.15-2.38l-33.33,19.58A6.1,6.1,0,0,0,1148.63,765.68Z"/><path class="cls-80" d="M1186.36,741.64a1.6,1.6,0,0,1,1.6,1.6v5.64a4.89,4.89,0,0,1-2.59,4.32l-33.22,18.52a1.62,1.62,0,0,1-1.87-.26,1.6,1.6,0,0,1-.49-1.15v-4.63a4.94,4.94,0,0,1,2.44-4.24l33.32-19.58A1.59,1.59,0,0,1,1186.36,741.64Z"/><path class="cls-81" d="M1014.58,867.68l1.38,9.39s-8.34-4.58-8.92-6.49-.42-13.84-.42-13.84l2.48,2.7h0A11.59,11.59,0,0,1,1014.58,867.68Z"/><path class="cls-82" d="M1014.58,867.68l1.38,9.39s-5.63-8.49-6.22-10.4-3.12-9.93-3.12-9.93l2.48,2.7h0A11.59,11.59,0,0,1,1014.58,867.68Z"/><path class="cls-83" d="M1079.34,793l-42.73-24.33a2.91,2.91,0,0,1,0-5L1193.45,674a6.74,6.74,0,0,1,6.65,0l43.44,24.31a2.56,2.56,0,0,1,0,4.45L1086.42,793A7.13,7.13,0,0,1,1079.34,793Z"/><path class="cls-84" d="M1126.84,868.32l91.87-53.13c-3.58,6.06-5.8,12.91-5.8,19.09a21.3,21.3,0,0,0,.36,4l-80,45.21c.07-.83.12-1.65.12-2.46C1133.39,874.48,1130.85,870,1126.84,868.32Z"/><path class="cls-85" d="M1251.18,812.18c0-6.14-2.2-10.42-5.74-12.37l20.53-12,.27,13.88a10.94,10.94,0,0,1-5.55,9.74l-10,5.69A29.76,29.76,0,0,0,1251.18,812.18Z"/><path class="cls-86" d="M1008.73,866.78l2.62,4.85s3.85-3.26,3.06-4.75S1008.73,866.78,1008.73,866.78Z"/><path class="cls-87" d="M1012,870.15c.06,1.25-.8,1.81-1.92,1.23a4.33,4.33,0,0,1-2.16-3.31c-.07-1.25.79-1.8,1.92-1.23A4.4,4.4,0,0,1,1012,870.15Z"/><path class="cls-88" d="M1007.56,862.73l1.91,3.54s2.81-2.38,2.23-3.47S1007.56,862.73,1007.56,862.73Z"/><path class="cls-89" d="M1010,865.18c0,.92-.58,1.32-1.41.9a3.18,3.18,0,0,1-1.57-2.41c0-.92.58-1.32,1.4-.9A3.2,3.2,0,0,1,1010,865.18Z"/><path class="cls-90" d="M1080.86,895h0c-3.71,2.27-5.15,1.48-9.09-.37h0a6.06,6.06,0,0,0-8.4,3.76l-1.57,5.39,9.61,5c5.79,2.29,4.72,1.93,9.13-.16l.77-.46Z"/><path class="cls-91" d="M1080.86,895h0c-3.71,2.27-5.15,1.48-9.09-.37h0a6.06,6.06,0,0,0-8.4,3.76l-1.57,5.39,11.17.54A9.72,9.72,0,0,0,1080.86,895Z"/><path class="cls-92" d="M1065.17,898.67l3.45,7.3s10.5-6.5,9.46-8.74S1065.17,898.67,1065.17,898.67Z"/><ellipse class="cls-93" cx="1066.84" cy="902.18" rx="2.36" ry="4.09" transform="translate(-309.48 661.74) rotate(-30.31)"/><path class="cls-94" d="M1072.32,900.13l2.74,5.8s5.76-4.53,4.94-6.32S1072.32,900.13,1072.32,900.13Z"/><path class="cls-95" d="M1076,904.25c0,1.46-1,2-2.3,1.31a5.07,5.07,0,0,1-2.31-4c0-1.46,1-2.05,2.31-1.31A5.07,5.07,0,0,1,1076,904.25Z"/><path class="cls-96" d="M1076.6,896.22c2.35,0,2.2,0,4.26-1.23l.45,13.18s-2.9,2.11-4.86,2.08Z"/><path class="cls-64" d="M1058.85,889.56l-1.19,3.17a4.6,4.6,0,0,1-6.35,2.51c-4.39-2.17-7.93-4-13.59-7.38-6.31-3.74-9.88-6.26-12.53-8a4.58,4.58,0,0,1-2-3.56l-.34-5.83a1.29,1.29,0,0,1,2-1.15c3.7,2.45,9.87,6.68,16.5,10.44a160.73,160.73,0,0,0,16.84,8.19A1.3,1.3,0,0,1,1058.85,889.56Z"/><path class="cls-97" d="M1024,869.08a1.2,1.2,0,0,0-.15.68l.34,5.83a4.56,4.56,0,0,0,2,3.55c2.65,1.77,6.21,4.29,12.53,8,5.66,3.36,9.2,5.2,13.59,7.38a4.61,4.61,0,0,0,4.05,0,4.59,4.59,0,0,1-5.08.67c-4.39-2.17-7.93-4-13.59-7.38-6.31-3.74-9.88-6.26-12.53-8a4.58,4.58,0,0,1-2-3.56l-.34-5.83A1.3,1.3,0,0,1,1024,869.08Z"/><polygon class="cls-98" points="1264.98 760.98 1087.17 861.87 1097.12 865.8 1265.14 771.5 1264.98 760.98"/><path class="cls-99" d="M1079.15,821.58c-.66,11.3-1.27,26.13-2.28,43.28a2.18,2.18,0,0,1-2.17,2c-6.62,0-20.28-5.4-32.09-12.22-15.1-8.72-24.81-15.47-30.25-24.36a3.78,3.78,0,0,1-.47-2.53c2.26-14.82,4.32-28.65,6.12-39.85a2.53,2.53,0,0,1,3.75-1.8l55.41,31.81A3.92,3.92,0,0,1,1079.15,821.58Z"/><path class="cls-100" d="M1075.6,863.58c1.06-17.6,1.36-30,2-41.63a3.19,3.19,0,0,0-1.61-3l-55.29-31.74a.83.83,0,0,0-1.21.6c-1.92,12.32-3.7,23.57-6.06,39.2,5.19,9,15.29,16,30.14,24.52,11,6.37,24.75,12,31.32,12Z"/><path class="cls-101" d="M1013.76,825.18c2.22-14.65,3.93-25.52,5.77-37.33a.83.83,0,0,1,1.21-.6L1076,819a3.19,3.19,0,0,1,1.61,3c-.17,2.95-.32,5.94-.46,9a117.93,117.93,0,0,1-22.38,2.09C1038.81,833.09,1024.33,830.07,1013.76,825.18Z"/><path class="cls-64" d="M1016.22,842.07c4.41,7.19,12.26,12.66,24.49,19.72,9.55,5.51,20.61,9.89,26,9.89.93,0,.93,1,0,1-5.36,0-16.42-4.37-26-9.89-12.23-7.06-20.08-12.52-24.49-19.72C1015.84,842.48,1016,841.74,1016.22,842.07Z"/><path class="cls-102" d="M996.06,919.92l19,32.27s55.57-40.82,55.57-49.93c0-4-1.38-4.87-4.44-4.87S996.06,919.92,996.06,919.92Z"/><path class="cls-103" d="M1000.75,932.15l7,12.87s61.43-37.81,62.34-41.56.27-5.33-3-5.79S1000.75,932.15,1000.75,932.15Z"/><path class="cls-104" d="M1021.93,915.75l14,23.68s40.77-30,40.77-36.64c0-2.9-1-3.57-3.25-3.57S1021.93,915.75,1021.93,915.75Z"/><path class="cls-105" d="M1025.37,924.72l5.13,9.45s45.08-27.75,45.75-30.5.2-3.91-2.23-4.25S1025.37,924.72,1025.37,924.72Z"/><path class="cls-106" d="M956.65,878.33l14,23.68s40.77-30,40.77-36.64c0-2.9-1-3.57-3.26-3.57S956.65,878.33,956.65,878.33Z"/><path class="cls-107" d="M960.09,887.3l5.13,9.45S1010.3,869,1011,866.25s.21-3.91-2.22-4.25S960.09,887.3,960.09,887.3Z"/><path class="cls-108" d="M939.24,888.08l19,32.28s55.57-40.83,55.57-49.94c0-3.94-1.38-4.86-4.45-4.86S939.24,888.08,939.24,888.08Z"/><path class="cls-109" d="M943.93,900.31l7,12.88s61.42-37.82,62.34-41.56.27-5.34-3-5.8S943.93,900.31,943.93,900.31Z"/><path d="M1188.35,723.33,1155.83,704c-1.93-1.11-1.69-3,.54-4.34l30.32-18a8.33,8.33,0,0,1,7.51-.31l32.53,19.33c1.92,1.11,1.68,3.06-.54,4.34l-30.33,18A8.36,8.36,0,0,1,1188.35,723.33Z"/><path class="cls-110" d="M1191.61,722.49a7.12,7.12,0,0,0,3.46-.85l30.31-18c.87-.51,1.06-1,1.06-1.09s-.16-.31-.51-.51l-32.54-19.35a5.15,5.15,0,0,0-2.45-.53,7.15,7.15,0,0,0-3.46.85l-30.3,18c-.88.5-1.07,1-1.07,1.09s.16.31.51.51L1189.16,722a5.06,5.06,0,0,0,2.45.53Z"/><polygon class="cls-111" points="1097.68 781.52 1181.12 733.26 1176.48 727.44 1103.24 769.89 1097.68 781.52"/><polygon class="cls-112" points="1058.39 758.6 1097.7 781.52 1103.27 769.89 1063.95 746.99 1058.39 758.6"/><polygon class="cls-113" points="1063.95 746.99 1103.27 769.89 1176.48 727.44 1137.12 704.52 1063.95 746.99"/><polygon class="cls-114" points="1063.95 746.99 1103.27 769.89 1176.48 727.44 1137.12 704.52 1063.95 746.99"/><path class="cls-115" d="M1068.52,808.5a1.28,1.28,0,0,0,1.9-1.13,21,21,0,0,1,.28-4.07,4.93,4.93,0,0,0-2.69-4.88l-36.67-20.7a1.51,1.51,0,0,0-.68-.16,1.47,1.47,0,0,0-1.46,1.24c-.45,2.77-.59,3.59-.74,4.66a3.28,3.28,0,0,0,1.67,3.35Z"/><path class="cls-116" d="M1027.59,783.88a3.27,3.27,0,0,0,1.68,3.35l39.2,22.15a1.8,1.8,0,0,0,2.66-1.55,35.86,35.86,0,0,1,.36-4.44,5.74,5.74,0,0,0-3.12-5.67L1031.69,777a2.25,2.25,0,0,0-1.63-.17,2.33,2.33,0,0,0-1.65,1.92C1027.92,781.76,1027.76,782.73,1027.59,783.88Zm42.83,23.31a1.39,1.39,0,0,1-2.06,1.23l-38.23-21.61a3.28,3.28,0,0,1-1.67-3.35c.15-1.07.29-1.89.74-4.66a1.47,1.47,0,0,1,1.46-1.24,1.51,1.51,0,0,1,.68.16l36.67,20.7a4.93,4.93,0,0,1,2.69,4.88A22.46,22.46,0,0,0,1070.42,807.19Z"/><polygon class="cls-117" points="1032.84 781.61 1064.66 800.05 1064.68 803.23 1032.84 784.77 1032.84 781.61"/><polygon class="cls-118" points="1184.96 746.32 1153.13 764.76 1153.12 767.94 1184.96 749.49 1184.96 746.32"/><path d="M1195.29,753a3.5,3.5,0,0,0-1.74.47l-49.38,28.68a7.64,7.64,0,0,0-3.77,6.58V869.2a3.41,3.41,0,0,0,1,2.49,3.52,3.52,0,0,0,2.41,1,3.42,3.42,0,0,0,1.64-.42l49.25-28.49a7.61,7.61,0,0,0,4-6.7V756.48A3.47,3.47,0,0,0,1195.29,753Z"/><path class="cls-119" d="M1195.29,754.47a2,2,0,0,1,2,2v80.58a6.14,6.14,0,0,1-3.24,5.42L1173.82,854a2,2,0,0,1-2.35-.32,2,2,0,0,1-.61-1.44V771.77a6.2,6.2,0,0,1,3.06-5.32l20.37-11.7A2,2,0,0,1,1195.29,754.47Z"/><path class="cls-120" d="M1166.28,771.45a2,2,0,0,1,2,2V854a6.15,6.15,0,0,1-3.25,5.43L1144.81,871a2,2,0,0,1-2.35-.33,2,2,0,0,1-.61-1.44V788.75a6.16,6.16,0,0,1,3.06-5.32l20.36-11.7A2,2,0,0,1,1166.28,771.45Z"/><path class="cls-121" d="M1250.34,721.82a2,2,0,0,0-1,.27l-41.85,24.59a6.19,6.19,0,0,0-3,5.33v14.22a6.19,6.19,0,0,1,3-5.32l41.85-24.59a2,2,0,0,1,1-.28,2,2,0,0,1,2,2V723.83A2,2,0,0,0,1250.34,721.82Z"/><path class="cls-122" d="M1132.15,790.55a1.89,1.89,0,0,0-1,.28l-41.85,24.59a6.18,6.18,0,0,0-3.06,5.32V835a6.16,6.16,0,0,1,3.06-5.32l41.85-24.59a1.89,1.89,0,0,1,1-.28,2,2,0,0,1,2,2V792.56A2,2,0,0,0,1132.15,790.55Z"/><path class="cls-123" d="M1195.29,754.47a2,2,0,0,0-1,.28l-20.37,11.7a6.2,6.2,0,0,0-3.06,5.32V786a6.2,6.2,0,0,1,3.06-5.32l20.37-11.7a1.89,1.89,0,0,1,1-.28,2,2,0,0,1,2,2V756.48A2,2,0,0,0,1195.29,754.47Z"/><path class="cls-124" d="M1166.28,771.45a2,2,0,0,0-1,.28l-20.36,11.7a6.16,6.16,0,0,0-3.06,5.32V803a6.18,6.18,0,0,1,3.06-5.32l20.36-11.7a2,2,0,0,1,1-.27,2,2,0,0,1,2,2V773.46A2,2,0,0,0,1166.28,771.45Z"/><g class="cls-125"><ellipse class="cls-126" cx="1127.03" cy="256.47" rx="24.9" ry="43.14" transform="translate(24.63 603.85) rotate(-30.31)"/></g><g class="cls-125"><ellipse class="cls-127" cx="1127.03" cy="356.93" rx="24.9" ry="43.14" transform="translate(-26.07 617.59) rotate(-30.31)"/></g><g class="cls-125"><ellipse class="cls-128" cx="1127.03" cy="457.38" rx="24.9" ry="43.14" transform="translate(-76.77 631.32) rotate(-30.31)"/></g><g class="cls-125"><ellipse class="cls-129" cx="1127.03" cy="557.84" rx="24.9" ry="43.14" transform="translate(-127.47 645.05) rotate(-30.31)"/></g><ellipse class="cls-130" cx="1099.22" cy="268.56" rx="24.9" ry="43.14" transform="matrix(0.86, -0.5, 0.5, 0.86, 14.72, 591.47)"/><path class="cls-56" d="M1085.49,230.45c-9.66,0-15.66,7.83-15.66,20.44,0,19,13.46,42.18,30,51.73,4.64,2.68,9.06,4,13.13,4,9.65,0,15.65-7.83,15.65-20.44,0-19-13.46-42.18-30-51.73C1094,231.81,1089.56,230.45,1085.49,230.45ZM1113,309.08c-4.5,0-9.33-1.47-14.34-4.37-17.21-9.93-31.2-34.07-31.2-53.82,0-13.88,7.09-22.85,18.07-22.85,4.5,0,9.32,1.46,14.34,4.36,17.2,9.93,31.2,34.08,31.2,53.82C1131,300.11,1123.94,309.08,1113,309.08Z"/><ellipse class="cls-131" cx="1099.22" cy="369.01" rx="24.9" ry="43.14" transform="translate(-35.98 605.21) rotate(-30.31)"/><path class="cls-56" d="M1085.49,330.91c-9.66,0-15.66,7.83-15.66,20.44,0,19,13.46,42.18,30,51.73,4.64,2.68,9.06,4,13.13,4,9.65,0,15.65-7.83,15.65-20.44,0-19-13.46-42.18-30-51.73C1094,332.27,1089.56,330.91,1085.49,330.91ZM1113,409.54c-4.5,0-9.33-1.47-14.34-4.37-17.21-9.93-31.2-34.08-31.2-53.82,0-13.89,7.09-22.86,18.07-22.86,4.5,0,9.32,1.47,14.34,4.37,17.2,9.93,31.2,34.07,31.2,53.82C1131,400.56,1123.93,409.54,1113,409.54Z"/><ellipse class="cls-132" cx="1099.22" cy="469.47" rx="24.9" ry="43.14" transform="translate(-86.68 618.94) rotate(-30.31)"/><path class="cls-56" d="M1085.49,431.37c-9.66,0-15.66,7.83-15.66,20.44,0,19,13.46,42.18,30,51.73,4.64,2.68,9.06,4,13.12,4,9.66,0,15.66-7.83,15.66-20.44,0-19-13.46-42.18-30-51.73C1094,432.73,1089.56,431.37,1085.49,431.37ZM1113,510c-4.49,0-9.32-1.46-14.33-4.36-17.21-9.94-31.2-34.08-31.2-53.82,0-13.89,7.09-22.86,18.07-22.86,4.5,0,9.32,1.47,14.34,4.37,17.2,9.93,31.2,34.07,31.2,53.82C1131,501,1123.93,510,1113,510Z"/><ellipse class="cls-133" cx="1099.22" cy="569.93" rx="24.9" ry="43.14" transform="translate(-137.38 632.67) rotate(-30.31)"/><path class="cls-56" d="M1085.49,531.83c-9.66,0-15.66,7.83-15.66,20.43,0,19,13.46,42.18,30,51.74,4.64,2.67,9.06,4,13.12,4,9.66,0,15.66-7.83,15.66-20.44,0-19-13.46-42.18-30-51.72C1094,533.19,1089.56,531.83,1085.49,531.83ZM1113,610.45c-4.49,0-9.32-1.47-14.33-4.36-17.21-9.94-31.2-34.08-31.2-53.83,0-13.88,7.09-22.85,18.07-22.85,4.49,0,9.32,1.47,14.34,4.36,17.2,9.94,31.2,34.08,31.2,53.82C1131,601.48,1123.93,610.45,1113,610.45Z"/><path class="cls-61" d="M1207.66,232.62c0,4.5-3.18,6.3-7.09,4a15.6,15.6,0,0,1-7.09-12.22c0-4.49,3.17-6.3,7.09-4A15.63,15.63,0,0,1,1207.66,232.62Z"/><path class="cls-61" d="M1207.66,255.9c0,4.49-3.18,6.3-7.09,4a15.62,15.62,0,0,1-7.09-12.23c0-4.49,3.17-6.3,7.09-4A15.63,15.63,0,0,1,1207.66,255.9Z"/><path class="cls-61" d="M1207.66,279.17c0,4.49-3.18,6.3-7.09,4a15.62,15.62,0,0,1-7.09-12.23c0-4.49,3.17-6.3,7.09-4A15.64,15.64,0,0,1,1207.66,279.17Z"/><path class="cls-61" d="M1207.66,302.44c0,4.49-3.18,6.3-7.09,4a15.6,15.6,0,0,1-7.09-12.23c0-4.49,3.17-6.3,7.09-4A15.64,15.64,0,0,1,1207.66,302.44Z"/><polygon class="cls-61" points="1102.06 264.62 1082.89 253.56 1082.89 266.87 1102.06 277.94 1102.06 287.41 1120.33 281.82 1102.06 255.15 1102.06 264.62"/><path class="cls-61" d="M1099.29,348.59c-7.3-4.21-13.21-.84-13.21,7.54,0,15.73,13.21,36.59,13.21,36.59a23.38,23.38,0,0,0,13.22-21.33C1112.51,363,1106.59,352.81,1099.29,348.59Zm0,22.06a13.22,13.22,0,0,1-6-10.36c0-3.81,2.69-5.34,6-3.42a13.22,13.22,0,0,1,6,10.36C1105.3,371,1102.61,372.57,1099.29,370.65Z"/><path class="cls-61" d="M1112.77,488.25l-5.16-8.62c-.87-1.5-2.18-2.4-3.19-2.32l-1.37-2.36c3.63-3.41,3.27-11.47-1.1-19-4.77-8.23-12.51-12.7-17.28-10s-4.77,11.6,0,19.83c4.37,7.54,11.21,11.9,16,10.5l1.37,2.37c-.59.83-.46,2.41.41,3.9l5.16,8.63c1,1.78,2.71,2.75,3.74,2.16l1.42-.81C1113.8,492,1113.8,490,1112.77,488.25ZM1099,470.7c-3.14,1.79-8.24-1.15-11.38-6.58s-3.15-11.27,0-13.06,8.24,1.15,11.38,6.57S1102.15,468.9,1099,470.7Zm-3.46-15.32-4.43-2.55v4.26l-3.72-2.14V460l3.72,2.15v4.26l4.43,2.56v-4.26l3.72,2.14V461.8l-3.72-2.15Z"/><path class="cls-61" d="M1114,589.86l-5.16-8.62c-.86-1.5-2.18-2.4-3.19-2.32l-1.37-2.37c3.63-3.4,3.27-11.46-1.1-19-4.77-8.23-12.51-12.7-17.28-10s-4.77,11.6,0,19.83c4.37,7.54,11.21,11.9,16,10.5l1.37,2.37c-.59.82-.46,2.41.41,3.9l5.16,8.62c1,1.79,2.71,2.76,3.75,2.17l1.41-.81C1115.08,593.57,1115.08,591.65,1114,589.86Zm-13.77-17.56c-3.14,1.8-8.24-1.15-11.38-6.57s-3.14-11.27,0-13.06,8.24,1.15,11.38,6.57S1103.42,570.51,1100.27,572.3Zm-11.61-10.66,11.87,6.85v-5.08l-11.87-6.86Z"/></g></g></svg>