<svg width="33" height="33" viewBox="0 0 33 33" fill="none" xmlns="http://www.w3.org/2000/svg">
<path d="M28.5 0H4.5C2.019 0 0 2.019 0 4.5V28.5C0 30.98 2.019 33 4.5 33H28.5C30.98 33 33 30.98 33 28.5V4.5C33 2.019 30.98 0 28.5 0ZM31.5 28.5C31.5 30.148 30.15 31.5 28.5 31.5H4.5C2.85 31.5 1.5 30.148 1.5 28.5V4.5C1.5 2.851 2.85 1.5 4.5 1.5H28.5C30.15 1.5 31.5 2.851 31.5 4.5V28.5Z" fill="#989898"/>
<path d="M9.24999 6.046C9.95305 6.046 10.523 5.47606 10.523 4.773C10.523 4.06994 9.95305 3.5 9.24999 3.5C8.54693 3.5 7.97699 4.06994 7.97699 4.773C7.97699 5.47606 8.54693 6.046 9.24999 6.046Z" fill="#989898"/>
<path d="M16.5 6.046C17.2031 6.046 17.773 5.47606 17.773 4.773C17.773 4.06994 17.2031 3.5 16.5 3.5C15.7969 3.5 15.227 4.06994 15.227 4.773C15.227 5.47606 15.7969 6.046 16.5 6.046Z" fill="#989898"/>
<path d="M23.75 6.046C24.4531 6.046 25.023 5.47606 25.023 4.773C25.023 4.06994 24.4531 3.5 23.75 3.5C23.0469 3.5 22.477 4.06994 22.477 4.773C22.477 5.47606 23.0469 6.046 23.75 6.046Z" fill="#989898"/>
<path d="M15.73 12.902H11.134V16.99H15.73V12.902Z" fill="#989898"/>
<path d="M21.866 12.902H17.271V16.99H21.866V12.902Z" fill="#989898"/>
<path d="M28 12.902H23.404V16.99H28V12.902Z" fill="#989898"/>
<path d="M9.595 18.359H5V22.445H9.595V18.359Z" fill="#989898"/>
<path d="M15.73 18.359H11.134V22.445H15.73V18.359Z" fill="#989898"/>
<path d="M21.866 18.359H17.271V22.445H21.866V18.359Z" fill="#989898"/>
<path d="M28 18.359H23.404V22.445H28V18.359Z" fill="#989898"/>
<path d="M9.595 23.816H5V27.902H9.595V23.816Z" fill="#989898"/>
<path d="M15.73 23.816H11.134V27.902H15.73V23.816Z" fill="#989898"/>
<path d="M21.866 23.816H17.271V27.902H21.866V23.816Z" fill="#989898"/>
<path d="M28 23.816H23.404V27.902H28V23.816Z" fill="#989898"/>
</svg>
