<svg width="40" height="40" viewBox="0 0 40 40" fill="none" xmlns="http://www.w3.org/2000/svg">
<g clip-path="url(#clip0)">
<path d="M33.3334 0C29.6575 0 26.6668 2.9907 26.6668 6.66664C26.6668 9.85523 31.3909 16.3088 32.4978 17.7776C32.4975 18.252 32.4978 18.7179 32.4863 19.1455C32.4741 19.6052 32.8371 19.9886 33.2976 20.0008C33.305 20.0008 33.3123 20.0008 33.3204 20.0008C33.7696 20.0008 34.1407 19.6419 34.1529 19.1895C34.1644 18.7507 34.1641 18.2718 34.1644 17.7838C35.2639 16.3251 40 9.85898 40 6.66664C40 2.9907 37.0093 0 33.3334 0ZM33.3334 16.1052C31.5015 13.5848 28.3334 8.78828 28.3334 6.66664C28.3334 3.90945 30.5762 1.66664 33.3334 1.66664C36.0906 1.66664 38.3334 3.90945 38.3334 6.66664C38.3334 8.78828 35.1653 13.5848 33.3334 16.1052Z" fill="white"/>
<path d="M33.3334 5C32.4146 5 31.6667 5.74789 31.6667 6.66664C31.6667 7.58539 32.4146 8.33328 33.3334 8.33328C34.2521 8.33328 35 7.58547 35 6.66664C35 5.74789 34.2521 5 33.3334 5Z" fill="white"/>
<path d="M10 18.3334C7.24281 18.3334 5 20.5762 5 23.3334C5 26.0906 7.24281 28.3334 10 28.3334C12.7572 28.3334 15 26.0906 15 23.3334C15 20.5762 12.7572 18.3334 10 18.3334ZM10 26.6667C8.16164 26.6667 6.66664 25.1717 6.66664 23.3333C6.66664 21.4949 8.16164 20 10 20C11.8384 20 13.3334 21.4949 13.3334 23.3334C13.3334 25.1718 11.8384 26.6667 10 26.6667Z" fill="white"/>
<path d="M22.6229 30.0342C22.1916 29.8665 21.7114 30.0806 21.5446 30.5103C21.1711 31.4754 20.704 32.6009 20.0741 33.632C19.834 34.025 19.9585 34.5378 20.3508 34.7778C20.4867 34.8609 20.6364 34.9 20.7845 34.9C21.0653 34.9 21.3395 34.7583 21.4967 34.5012C22.1949 33.357 22.6986 32.146 23.099 31.1125C23.265 30.6836 23.0518 30.201 22.6229 30.0342Z" fill="white"/>
<path d="M17.924 36.1157C17.089 36.7774 16.1401 37.2754 15.0219 37.6392C14.5841 37.7816 14.3448 38.252 14.4872 38.6898C14.602 39.0414 14.9283 39.2652 15.2799 39.2652C15.3654 39.2652 15.4524 39.2522 15.5379 39.2245C16.8293 38.8046 17.98 38.1983 18.9591 37.4227C19.3197 37.1362 19.3807 36.6121 19.095 36.2516C18.8069 35.892 18.2836 35.8277 17.924 36.1157Z" fill="white"/>
<path d="M25.5078 24.0177C24.1325 24.7982 23.3684 26.1531 22.9126 27.1036C22.7132 27.5187 22.8882 28.0168 23.3032 28.2153C23.4196 28.2715 23.5425 28.2975 23.6629 28.2975C23.9738 28.2975 24.2717 28.1233 24.4149 27.8247C24.9935 26.6178 25.5843 25.8911 26.3314 25.4662C26.731 25.2392 26.8717 24.7305 26.6439 24.3301C26.4177 23.9298 25.9107 23.789 25.5078 24.0177Z" fill="white"/>
<path d="M33.0241 21.9547C32.6457 21.6984 32.1257 21.7969 31.8668 22.1777C31.5926 22.583 31.0311 23.1404 29.3326 23.2926C28.8744 23.3341 28.5359 23.7386 28.5774 24.1976C28.6164 24.6305 28.9802 24.956 29.4067 24.956C29.4319 24.956 29.4571 24.9552 29.4824 24.9527C31.2866 24.7908 32.5178 24.1886 33.2471 23.1119C33.5051 22.7311 33.405 22.2127 33.0241 21.9547Z" fill="white"/>
<path d="M11.9746 38.3442C14.6041 35.5401 20 29.0892 20 23.3334C20 17.7263 15.6071 13.3334 10 13.3334C4.39289 13.3334 0 17.7263 0 23.3334C0 30.7756 9.04297 39.4084 9.42789 39.7722C9.5882 39.9244 9.79414 40.0001 10 40.0001C10.6071 40.0001 11.1841 39.9789 11.7309 39.9374C12.1899 39.9024 12.5341 39.5028 12.4991 39.0438C12.4741 38.7153 12.2616 38.4592 11.9746 38.3442ZM10 37.9916C8.03141 35.9831 1.66664 29.0463 1.66664 23.3334C1.66664 18.6605 5.32719 15 10 15C14.6728 15 18.3334 18.6605 18.3334 23.3334C18.3334 29.0463 11.9686 35.9831 10 37.9916Z" fill="white"/>
</g>
<defs>
<clipPath id="clip0">
<rect width="40" height="40" fill="white"/>
</clipPath>
</defs>
</svg>
