<svg width="1752" height="894" viewBox="0 0 1752 894" fill="none" xmlns="http://www.w3.org/2000/svg">
<path style="mix-blend-mode:screen" opacity="0.2" d="M1752 491.4V463.25L1661.23 421.37L1752 379.49V351.34L1630.72 407.34L1417.45 308.88L1387.14 323.04L1600.22 421.35L1322.22 549.61L905.79 358.95L1684.68 0.879883H1623.55L875.17 344.93L123.76 0.879883H62.54L971.86 417L714.6 536.78L0 211.18V239.18L684.25 550.88L449.8 660.06L0 456.17V484.49L419 674.41L0 862.33V863.61C0 872.14 4.71 879.81 12.2 885.24L294 760.79L596.66 758.68L595.36 893.35H625.56L626.91 753.35L872.26 635.39L1407.12 874.39L1366 893.39H1427L1438.1 888.26L1449.57 893.39H1512.08L1468.84 874.08L1718.24 759.01L1752 774.43V746.43L1748.73 744.93L1752 743.42V715.25L1718.11 730.88L1352.86 563.65L1630.72 435.45L1752 491.4ZM347.35 735.96L450.29 688.04L557 734.49L347.35 735.96ZM613.52 731.32L481.12 673.69L714.64 564.97L841.64 621.69L613.52 731.32ZM1687.63 744.95L1437.84 860.2L745 550.88L1002.3 431.09L1687.63 744.95Z" fill="url(#paint0_radial)"/>
<defs>
<radialGradient id="paint0_radial" cx="0" cy="0" r="1" gradientUnits="userSpaceOnUse" gradientTransform="translate(1165.67 621.193) scale(732.56 594.814)">
<stop offset="0.02" stop-color="#A56EF4"/>
<stop offset="0.58" stop-color="#573096"/>
<stop offset="1" stop-color="#200554"/>
</radialGradient>
</defs>
</svg>
