<svg width="1505" height="3000" viewBox="0 0 1505 3000" fill="none" xmlns="http://www.w3.org/2000/svg">
<path d="M1463 37.1426H43.0001C37.4773 37.1426 33.0001 41.6197 33.0001 47.1426V1490C33.0001 1495.52 37.4772 1500 43.0001 1500H1463C1468.52 1500 1473 1495.52 1473 1490V47.1426C1473 41.6197 1468.52 37.1426 1463 37.1426Z" fill="url(#paint0_linear)"/>
<g opacity="0.5">
<path opacity="0.0381" d="M35.7677 125.994C35.7677 79.5936 64.1346 41.9885 94.1984 41.9885H1408.49C1438.56 41.9885 1462.92 84.8737 1462.92 131.274V1405.41C1462.92 1451.81 1438.55 1494.69 1408.49 1494.69H90.1966C60.1327 1494.69 35.7677 1451.29 35.7677 1404.9V125.994Z" fill="#200041"/>
<path opacity="0.1143" d="M41.3031 127.269C41.3031 85.5041 75.2236 51.6526 102.275 51.6526H1408.39C1435.45 51.6526 1457.38 101.316 1457.38 143.081V1392.6C1457.38 1434.37 1435.45 1484.03 1408.39 1484.03H90.2963C63.2362 1484.03 41.3031 1432.83 41.3031 1391.06V127.269Z" fill="#200041"/>
<path opacity="0.1905" d="M46.8387 128.544C46.8387 91.4289 86.3128 61.3308 110.36 61.3308H1408.29C1432.34 61.3308 1451.84 117.787 1451.84 154.902V1379.82C1451.84 1416.93 1432.35 1473.39 1408.29 1473.39H90.3873C66.3398 1473.39 46.8387 1414.37 46.8387 1377.26V128.544Z" fill="#200041"/>
<path opacity="0.2667" d="M52.3741 129.818C52.3741 97.3391 97.4018 71.0085 118.446 71.0085H1408.2C1429.25 71.0085 1446.31 134.244 1446.31 166.723V1367.03C1446.31 1399.51 1429.25 1462.74 1408.2 1462.74H90.478C69.4342 1462.74 52.3741 1395.92 52.3741 1363.45V129.818Z" fill="#200041"/>
<path opacity="0.3048" d="M55.1417 130.448C55.1417 100.294 102.946 75.8406 122.484 75.8406H1408.15C1427.69 75.8406 1443.53 142.479 1443.53 172.633V1360.64C1443.53 1390.8 1427.69 1457.42 1408.15 1457.42H90.5232C70.9858 1457.42 55.1417 1386.7 55.1417 1356.54V130.448Z" fill="#200041"/>
<path opacity="0.3429" d="M57.9186 131.092C57.9186 103.249 108.5 80.6863 126.54 80.6863H1408.12C1426.16 80.6863 1440.78 150.714 1440.78 178.543V1354.26C1440.78 1382.1 1426.16 1452.11 1408.12 1452.11H90.5777C72.5376 1452.11 57.9186 1377.48 57.9186 1349.65V131.092Z" fill="#200041"/>
<path opacity="0.419" d="M63.4542 132.367C63.4542 109.174 119.589 90.364 134.616 90.364H1408.01C1423.04 90.364 1435.23 167.171 1435.23 190.378V1341.47C1435.23 1364.66 1423.04 1441.47 1408.01 1441.47H90.6686C75.6413 1441.47 63.4542 1359.03 63.4542 1335.83V132.367Z" fill="#200041"/>
<path opacity="0.4952" d="M68.9896 133.641C68.9896 115.084 130.678 100.042 142.702 100.042H1407.92C1419.95 100.042 1429.69 183.641 1429.69 202.199V1328.7C1429.69 1347.26 1419.95 1430.84 1407.92 1430.84H90.7593C78.7356 1430.84 68.9896 1340.59 68.9896 1322.03V133.641Z" fill="#200041"/>
<path opacity="0.5333" d="M71.7615 134.272C71.759 134.272 71.757 134.27 71.757 134.267C71.769 118.037 136.223 104.874 146.74 104.874H1407.88C1418.39 104.874 1426.92 191.863 1426.92 208.096V1322.3C1426.92 1338.53 1418.39 1425.5 1407.88 1425.5H90.8134C80.2961 1425.5 71.766 1331.36 71.766 1315.11V134.277C71.766 134.274 71.764 134.272 71.7615 134.272Z" fill="#200041"/>
<path opacity="0.5714" d="M74.525 134.916C74.525 120.994 141.767 109.706 150.787 109.706H1407.83C1416.85 109.706 1424.17 200.084 1424.17 214.005V1315.9C1424.17 1329.82 1416.85 1420.18 1407.83 1420.18H90.8591C81.8391 1420.18 74.525 1322.13 74.525 1308.21V134.916Z" fill="#200041"/>
<path opacity="0.6095" d="M77.2926 135.546C77.2926 123.949 147.311 114.537 154.825 114.537H1407.78C1415.29 114.537 1421.39 208.305 1421.39 219.901V1309.5C1421.39 1321.09 1415.3 1414.85 1407.78 1414.85H90.9043C83.3907 1414.85 77.2926 1312.88 77.2926 1301.29V135.546Z" fill="#200041"/>
<path opacity="0.6476" d="M80.0607 136.191C80.0607 126.905 152.856 119.384 158.864 119.384H1407.72C1413.74 119.384 1418.61 216.541 1418.61 225.826V1303.11C1418.61 1312.39 1413.74 1409.54 1407.72 1409.54H90.9501C84.9337 1409.54 80.0607 1303.67 80.0607 1294.4V136.191Z" fill="#200041"/>
<path opacity="0.6857" d="M82.8325 136.821C82.8351 136.821 82.8371 136.819 82.8371 136.817C82.8684 129.858 158.41 124.216 162.92 124.216H1407.7C1412.21 124.216 1415.86 224.776 1415.86 231.737V1296.72C1415.86 1303.68 1412.21 1404.23 1407.7 1404.23H90.9951C86.485 1404.23 82.828 1294.47 82.828 1287.51V136.825C82.828 136.823 82.83 136.821 82.8325 136.821Z" fill="#200041"/>
<path opacity="0.7238" d="M85.6004 137.451C85.6029 137.451 85.6049 137.45 85.6049 137.447C85.6506 132.813 163.955 129.048 166.958 129.048H1407.64C1410.64 129.048 1413.09 232.998 1413.09 237.634V1290.32C1413.09 1294.96 1410.64 1398.89 1407.64 1398.89H91.0405C88.0369 1398.89 85.5958 1285.22 85.5958 1280.59V137.456C85.5958 137.453 85.5979 137.451 85.6004 137.451Z" fill="#200041"/>
<path opacity="0.7619" d="M88.3727 138.096C88.3727 135.771 169.499 133.894 170.996 133.894H1407.59C1409.09 133.894 1410.31 241.233 1410.31 243.558V1283.94C1410.31 1286.26 1409.09 1393.59 1407.59 1393.59H91.095C89.5887 1393.59 88.3727 1276.01 88.3727 1273.68V138.096Z" fill="#200041"/>
<path opacity="0.8" d="M1397.55 138.726H101.141C95.6177 138.726 91.1405 143.203 91.1405 148.726V1378.25C91.1405 1383.77 95.6177 1388.25 101.141 1388.25H1397.55C1403.07 1388.25 1407.55 1383.77 1407.55 1378.25V148.726C1407.55 143.203 1403.07 138.726 1397.55 138.726Z" fill="#200041"/>
</g>
<path d="M1471.74 0H33.2623C14.8893 0 0.00012207 22.915 0.00012207 51.172V1484.54C0.00012207 1512.8 14.8893 1535.71 33.2623 1535.71H1471.74C1490.11 1535.71 1505 1512.8 1505 1484.54V51.172C1505 22.915 1490.11 0 1471.74 0Z" fill="url(#paint1_linear)"/>
<path opacity="0.2" d="M1456.21 824.428C1462.62 830.335 1472.99 825.791 1472.99 817.076V798.05C1472.99 795.257 1471.82 792.592 1469.77 790.698L1406.36 732.237C1402.07 728.277 1402.07 721.494 1406.36 717.533L1469.77 659.072C1471.82 657.179 1472.99 654.513 1472.99 651.72V632.695C1472.99 623.98 1462.62 619.436 1456.21 625.343L1380.09 695.522C1376.27 699.052 1370.37 699.052 1366.54 695.522L1204.85 546.448C1201 542.901 1195.07 542.92 1191.24 546.493L1180.99 556.071C1176.74 560.042 1176.76 566.789 1181.04 570.731L1340.27 717.533C1344.57 721.493 1344.57 728.277 1340.27 732.238L1126.52 929.3C1122.7 932.821 1116.83 932.832 1112.99 929.326L785.529 629.719C781.202 625.76 781.195 618.944 785.515 614.976L1398.76 51.6498C1405.47 45.4836 1401.11 34.2854 1391.99 34.2854H1371.31C1368.81 34.2854 1366.39 35.226 1364.55 36.9209L759.065 593.117C755.245 596.626 749.376 596.632 745.549 593.131L137.586 36.9073C135.743 35.2208 133.335 34.2854 130.836 34.2854H110.158C101.032 34.2854 96.6745 45.5067 103.409 51.6652L823.784 710.387C828.094 714.329 828.123 721.11 823.847 725.089L627.072 908.133C623.263 911.676 617.375 911.707 613.529 908.205L49.7323 394.897C43.3103 389.05 33.0001 393.606 33.0001 402.291V421.162C33.0001 423.976 34.1865 426.661 36.2679 428.556L587.361 930.293C591.686 934.231 591.723 941.025 587.44 945.009L409.416 1110.61C405.615 1114.15 399.74 1114.19 395.892 1110.7L49.7133 797.149C43.2853 791.326 33.0001 795.888 33.0001 804.56V824.084C33.0001 826.908 34.194 829.6 36.2869 831.496L369.137 1132.98C373.535 1136.96 373.517 1143.88 369.098 1147.84L34.5744 1447.65C33.5726 1448.55 33.0001 1449.83 33.0001 1451.18C33.0001 1460.57 34.7425 1469.34 37.7487 1476.78C39.9922 1482.33 46.9782 1483.21 51.4696 1479.25L271.879 1284.77C273.669 1283.19 275.967 1282.3 278.355 1282.27L513.218 1278.98C518.814 1278.9 523.385 1283.43 523.358 1289.03L522.389 1489.95C522.362 1495.49 526.847 1500 532.389 1500H537.211C542.715 1500 547.185 1495.55 547.211 1490.05L548.257 1274.27C548.27 1271.56 549.379 1268.98 551.33 1267.11L743.252 1082.77C747.021 1079.15 752.941 1079.04 756.839 1082.52L1181.31 1461.49C1185.71 1465.43 1185.77 1472.3 1181.43 1476.3L1174.56 1482.63C1167.87 1488.8 1172.23 1499.98 1181.34 1499.98H1202.14C1204.55 1499.98 1206.86 1499.08 1208.63 1497.45C1212.25 1494.12 1217.81 1494.07 1221.48 1497.35L1221.64 1497.49C1223.44 1499.1 1225.76 1499.98 1228.17 1499.98H1249.59C1258.77 1499.98 1263.1 1488.64 1256.25 1482.52L1248.51 1475.61C1244.1 1471.68 1244.04 1464.8 1248.39 1460.8L1438.5 1285.51C1442.32 1281.99 1448.2 1281.98 1452.03 1285.49L1456.25 1289.34C1462.67 1295.21 1473 1290.66 1473 1281.97V1259.69C1473 1259.02 1472.72 1258.39 1472.23 1257.94C1471.2 1257 1471.2 1255.37 1472.23 1254.43C1472.72 1253.98 1473 1253.34 1473 1252.67V1230.34C1473 1221.62 1462.63 1217.08 1456.22 1222.98L1451.89 1226.97C1448.08 1230.49 1442.2 1230.5 1438.37 1227L1152.97 965.896C1148.65 961.942 1148.64 955.137 1152.94 951.166L1366.54 754.249C1370.37 750.718 1376.27 750.719 1380.09 754.249L1456.21 824.428ZM344.456 1241.17C335.304 1241.29 330.804 1230.08 337.505 1223.85L396.521 1168.94C400.266 1165.46 406.037 1165.36 409.896 1168.72L471.077 1221.94C478.002 1227.97 473.831 1239.36 464.653 1239.49L344.456 1241.17ZM543.852 1227.58C540.119 1231.17 534.267 1231.31 530.362 1227.91L436.826 1146.54C432.345 1142.65 432.229 1135.72 436.578 1131.68L613.7 966.899C617.481 963.382 623.318 963.322 627.17 966.761L716.669 1046.66C721.014 1050.54 721.137 1057.29 716.936 1061.33L543.852 1227.58ZM1412.06 1248.95C1416.38 1252.9 1416.39 1259.71 1412.08 1263.68L1221.45 1439.42C1217.67 1442.9 1211.86 1442.95 1208.02 1439.53L653.5 944.807C649.105 940.886 649.034 934.035 653.346 930.023L850.035 747.041C853.85 743.491 859.753 743.467 863.597 746.986L1412.06 1248.95Z" fill="url(#paint2_radial)"/>
<path d="M1463.15 2961.79L49.8149 2961.79C44.2921 2961.79 39.8149 2957.31 39.8149 2951.79L39.8148 1466.74C39.8148 1461.22 44.292 1456.74 49.8148 1456.74L1463.15 1456.74C1468.67 1456.74 1473.15 1461.22 1473.15 1466.74L1473.15 2951.79C1473.15 2957.31 1468.67 2961.79 1463.15 2961.79Z" fill="url(#paint3_linear)"/>
<g opacity="0.5">
<path opacity="0.0381" d="M42.5698 2870.37C42.5698 2918.11 70.8054 2956.8 100.73 2956.8L1408.94 2956.8C1438.87 2956.8 1463.12 2912.68 1463.12 2864.94L1463.12 1554.07C1463.12 1506.33 1438.86 1462.21 1408.94 1462.21L96.7466 1462.21C66.822 1462.21 42.5697 1506.86 42.5697 1554.58L42.5698 2870.37Z" fill="#200041"/>
<path opacity="0.1143" d="M48.0796 2869.06C48.0796 2912.03 81.843 2946.86 108.769 2946.86L1408.83 2946.86C1435.77 2946.86 1457.6 2895.76 1457.6 2852.79L1457.6 1567.24C1457.6 1524.27 1435.77 1473.17 1408.83 1473.17L96.8459 1473.17C69.911 1473.17 48.0795 1525.85 48.0795 1568.82L48.0796 2869.06Z" fill="#200041"/>
<path opacity="0.1905" d="M53.5896 2867.75C53.5896 2905.93 92.8809 2936.9 116.817 2936.9L1408.74 2936.9C1432.68 2936.9 1452.09 2878.82 1452.09 2840.63L1452.09 1580.39C1452.09 1542.21 1432.69 1484.12 1408.74 1484.12L96.9364 1484.12C73.0003 1484.12 53.5895 1544.84 53.5895 1583.03L53.5896 2867.75Z" fill="#200041"/>
<path opacity="0.2667" d="M59.0996 2866.44C59.0996 2899.85 103.919 2926.94 124.865 2926.94L1408.65 2926.94C1429.6 2926.94 1446.58 2861.88 1446.58 2828.47L1446.58 1593.55C1446.58 1560.13 1429.6 1495.07 1408.65 1495.07L97.0269 1495.07C76.0806 1495.07 59.0995 1563.82 59.0995 1597.24L59.0996 2866.44Z" fill="#200041"/>
<path opacity="0.3048" d="M61.854 2865.79C61.854 2896.81 109.437 2921.97 128.884 2921.97L1408.6 2921.97C1428.04 2921.97 1443.82 2853.41 1443.82 2822.39L1443.82 1600.12C1443.82 1569.1 1428.04 1500.55 1408.6 1500.55L97.0716 1500.55C77.6246 1500.55 61.8539 1573.32 61.8539 1604.34L61.854 2865.79Z" fill="#200041"/>
<path opacity="0.3429" d="M64.6179 2865.13C64.6179 2893.77 114.965 2916.99 132.922 2916.99L1408.57 2916.99C1426.53 2916.99 1441.08 2844.94 1441.08 2816.31L1441.08 1606.69C1441.08 1578.04 1426.53 1506.01 1408.57 1506.01L97.1258 1506.01C79.1692 1506.01 64.6178 1582.8 64.6178 1611.43L64.6179 2865.13Z" fill="#200041"/>
<path opacity="0.419" d="M70.1279 2863.82C70.1279 2887.68 126.003 2907.03 140.961 2907.03L1408.46 2907.03C1423.42 2907.03 1435.55 2828.01 1435.55 2804.13L1435.55 1619.85C1435.55 1595.98 1423.42 1516.96 1408.46 1516.96L97.2163 1516.96C82.2585 1516.96 70.1278 1601.78 70.1279 1625.65L70.1279 2863.82Z" fill="#200041"/>
<path opacity="0.4952" d="M75.6377 2862.51C75.6377 2881.6 137.041 2897.07 149.009 2897.07L1408.37 2897.07C1420.34 2897.07 1430.04 2811.06 1430.04 2791.97L1430.04 1632.99C1430.04 1613.9 1420.34 1527.9 1408.37 1527.9L97.3065 1527.9C85.3385 1527.9 75.6376 1620.75 75.6376 1639.85L75.6377 2862.51Z" fill="#200041"/>
<path opacity="0.5333" d="M78.3969 2861.86C78.3944 2861.86 78.3923 2861.86 78.3923 2861.86C78.4039 2878.56 142.56 2892.1 153.028 2892.1L1408.33 2892.1C1418.8 2892.1 1427.29 2802.6 1427.29 2785.9L1427.29 1639.57C1427.29 1622.87 1418.79 1533.39 1408.33 1533.39L97.3605 1533.39C86.8918 1533.39 78.4013 1630.25 78.4013 1646.96L78.4014 2861.85C78.4014 2861.85 78.3993 2861.86 78.3969 2861.86Z" fill="#200041"/>
<path opacity="0.5714" d="M81.1475 2861.19C81.1475 2875.52 148.078 2887.13 157.056 2887.13L1408.28 2887.13C1417.26 2887.13 1424.54 2794.15 1424.54 2779.82L1424.54 1646.16C1424.54 1631.83 1417.26 1538.86 1408.28 1538.86L97.4059 1538.86C88.4276 1538.86 81.1474 1639.75 81.1474 1654.07L81.1475 2861.19Z" fill="#200041"/>
<path opacity="0.6095" d="M83.9023 2860.54C83.9023 2872.48 153.597 2882.16 161.076 2882.16L1408.23 2882.16C1415.71 2882.16 1421.78 2785.69 1421.78 2773.76L1421.78 1652.74C1421.78 1640.81 1415.72 1544.35 1408.23 1544.35L97.451 1544.35C89.9721 1544.35 83.9023 1649.26 83.9023 1661.19L83.9023 2860.54Z" fill="#200041"/>
<path opacity="0.6476" d="M86.6577 2859.88C86.6577 2869.44 159.116 2877.17 165.096 2877.17L1408.17 2877.17C1414.16 2877.17 1419.01 2777.22 1419.01 2767.66L1419.01 1659.31C1419.01 1649.76 1414.16 1549.82 1408.17 1549.82L97.4966 1549.82C91.5081 1549.82 86.6576 1658.74 86.6576 1668.28L86.6577 2859.88Z" fill="#200041"/>
<path opacity="0.6857" d="M89.4166 2859.23C89.4191 2859.23 89.4211 2859.24 89.4212 2859.24C89.4515 2866.4 164.645 2872.2 169.133 2872.2L1408.15 2872.2C1412.64 2872.2 1416.28 2768.74 1416.28 2761.58L1416.28 1665.88C1416.28 1658.72 1412.64 1555.28 1408.15 1555.28L97.5413 1555.28C93.0521 1555.28 89.412 1668.2 89.412 1675.37L89.4121 2859.23C89.4121 2859.23 89.4141 2859.23 89.4166 2859.23Z" fill="#200041"/>
<path opacity="0.7238" d="M92.1715 2858.59C92.174 2858.59 92.176 2858.59 92.1761 2858.59C92.2203 2863.36 170.163 2867.23 173.152 2867.23L1408.09 2867.23C1411.08 2867.23 1413.51 2760.28 1413.51 2755.51L1413.51 1672.47C1413.51 1667.7 1411.08 1560.77 1408.09 1560.77L97.5864 1560.77C94.5967 1560.77 92.1669 1677.71 92.1669 1682.48L92.167 2858.58C92.167 2858.58 92.169 2858.59 92.1715 2858.59Z" fill="#200041"/>
<path opacity="0.7619" d="M94.9312 2857.92C94.9312 2860.31 175.682 2862.25 177.172 2862.25L1408.04 2862.25C1409.54 2862.25 1410.75 2751.81 1410.75 2749.42L1410.75 1679.04C1410.75 1676.65 1409.54 1566.23 1408.04 1566.23L97.6408 1566.23C96.1414 1566.23 94.9311 1687.2 94.9311 1689.59L94.9312 2857.92Z" fill="#200041"/>
<path opacity="0.8" d="M1398 2857.27L107.686 2857.27C102.163 2857.27 97.6863 2852.8 97.6863 2847.27L97.6862 1581.72C97.6862 1576.19 102.163 1571.72 107.686 1571.72L1398 1571.72C1403.52 1571.72 1408 1576.19 1408 1581.72L1408 2847.27C1408 2852.8 1403.52 2857.27 1398 2857.27Z" fill="#200041"/>
</g>
<path d="M1471.74 3000L33.2622 3000C14.8892 3000 -1.44275e-06 2976.42 -3.22182e-06 2947.35L-9.34678e-05 1472.65C-9.52469e-05 1443.58 14.8891 1420 33.2621 1420L1471.74 1420C1490.11 1420 1505 1443.58 1505 1472.65L1505 2947.35C1505 2976.42 1490.11 3000 1471.74 3000Z" fill="url(#paint4_linear)"/>
<path opacity="0.2" d="M1452.42 2121.12C1458.79 2115.05 1469.32 2119.57 1469.32 2128.36L1469.32 2148.29C1469.32 2151.03 1468.2 2153.65 1466.22 2155.53L1402.66 2216.11C1398.53 2220.05 1398.53 2226.64 1402.66 2230.58L1466.22 2291.16C1468.2 2293.04 1469.32 2295.66 1469.32 2298.4L1469.32 2318.33C1469.32 2327.12 1458.79 2331.64 1452.42 2325.57L1377.01 2253.7C1373.15 2250.02 1367.07 2250.02 1363.21 2253.7L1202.57 2406.78C1198.69 2410.48 1192.58 2410.46 1188.73 2406.74L1178.33 2396.7C1174.24 2392.75 1174.27 2386.19 1178.38 2382.27L1337.56 2230.58C1341.69 2226.64 1341.69 2220.05 1337.56 2216.11L1124.61 2013.18C1120.76 2009.51 1114.71 2009.5 1110.84 2013.15L784.702 2321.58C780.536 2325.52 780.529 2332.15 784.688 2336.1L1396.08 2916.61C1402.63 2922.83 1398.23 2933.86 1389.19 2933.86L1368.23 2933.86C1365.67 2933.86 1363.2 2932.88 1361.35 2931.11L758.855 2359.06C755.001 2355.4 748.959 2355.39 745.098 2359.04L140.141 2931.13C138.284 2932.88 135.825 2933.86 133.27 2933.86L112.303 2933.86C103.258 2933.86 98.8604 2922.81 105.434 2916.59L823.464 2237.94C827.614 2234.02 827.642 2227.42 823.526 2223.46L627.471 2034.96C623.63 2031.26 617.568 2031.23 613.687 2034.88L52.8532 2562.66C46.4713 2568.67 36 2564.14 36 2555.38L36 2535.6C36 2532.85 37.1387 2530.21 39.1468 2528.32L588.136 2011.69C592.301 2007.77 592.336 2001.17 588.214 1997.2L410.823 1826.64C406.989 1822.95 400.94 1822.91 397.057 1826.55L52.8344 2148.81C46.446 2154.79 36 2150.26 36 2141.51L36 2121.06C36 2118.29 37.146 2115.65 39.1655 2113.76L370.93 1803.16C375.166 1799.19 375.149 1792.46 370.892 1788.52L37.5955 1479.76C36.5782 1478.82 35.9999 1477.5 35.9999 1476.11C35.9999 1466.49 37.7166 1457.52 40.6809 1449.89C42.896 1444.18 50.0506 1443.28 54.5708 1447.4L273.733 1647.28C275.538 1648.93 277.884 1649.86 280.327 1649.89L513.944 1653.27C519.541 1653.35 524.115 1648.83 524.089 1643.23L523.122 1435.93C523.096 1430.38 527.581 1425.88 533.122 1425.88L537.829 1425.88C543.334 1425.88 547.803 1430.33 547.829 1435.83L548.872 1658.34C548.885 1660.99 549.947 1663.52 551.827 1665.39L742.819 1855C746.617 1858.77 752.712 1858.88 756.646 1855.25L1179.34 1465.18C1183.58 1461.26 1183.64 1454.57 1179.45 1450.59L1171.63 1443.14C1165.1 1436.91 1169.5 1425.9 1178.53 1425.9L1199.7 1425.9C1202.11 1425.9 1204.42 1426.82 1206.17 1428.48C1209.75 1431.89 1215.36 1431.94 1219 1428.59L1219.15 1428.44C1220.93 1426.8 1223.25 1425.9 1225.67 1425.9L1247.47 1425.9C1256.57 1425.9 1260.94 1437.07 1254.25 1443.25L1245.53 1451.29C1241.28 1455.2 1241.23 1461.89 1245.41 1465.88L1434.85 1646.41C1438.7 1650.08 1444.75 1650.09 1448.62 1646.43L1452.46 1642.8C1458.84 1636.77 1469.33 1641.29 1469.33 1650.06L1469.33 1673.13C1469.33 1673.81 1469.05 1674.46 1468.56 1674.93C1467.52 1675.9 1467.53 1677.55 1468.56 1678.53C1469.05 1679 1469.33 1679.65 1469.33 1680.33L1469.33 1703.45C1469.33 1712.25 1458.8 1716.76 1452.44 1710.69L1448.48 1706.92C1444.62 1703.25 1438.57 1703.24 1434.71 1706.9L1150.44 1975.71C1146.28 1979.64 1146.27 1986.26 1150.42 1990.21L1363.21 2192.99C1367.07 2196.67 1373.15 2196.67 1377.01 2192.99L1452.42 2121.12ZM345.526 1692.17C336.453 1692.04 331.909 1703.09 338.45 1709.38L397.692 1766.34C401.47 1769.98 407.412 1770.08 411.309 1766.57L472.724 1711.35C479.488 1705.27 475.277 1694.04 466.182 1693.91L345.526 1692.17ZM544.63 1706.3C540.867 1702.56 534.841 1702.41 530.898 1705.96L437.605 1789.84C433.286 1793.73 433.174 1800.46 437.36 1804.49L613.863 1974.21C617.676 1977.88 623.687 1977.94 627.575 1974.35L716.843 1891.98C721.029 1888.12 721.149 1881.55 717.107 1877.54L544.63 1706.3ZM1409.02 1683.85C1413.18 1679.91 1413.19 1673.29 1409.04 1669.34L1219.1 1488.35C1215.28 1484.71 1209.3 1484.67 1205.42 1488.24L653.281 1997.4C649.048 2001.31 648.978 2007.97 653.129 2011.96L849.102 2200.41C852.95 2204.11 859.027 2204.13 862.905 2200.46L1409.02 1683.85Z" fill="url(#paint5_radial)"/>
<defs>
<linearGradient id="paint0_linear" x1="1438.64" y1="1700.65" x2="-154.801" y2="724.863" gradientUnits="userSpaceOnUse">
<stop stop-color="#3D065F"/>
<stop offset="1" stop-color="#10054D"/>
</linearGradient>
<linearGradient id="paint1_linear" x1="1532.71" y1="1864.2" x2="-1669.9" y2="154.004" gradientUnits="userSpaceOnUse">
<stop offset="0.0202" stop-color="#45108A"/>
<stop offset="0.2929" stop-color="#3D065F"/>
<stop offset="1" stop-color="#200554"/>
</linearGradient>
<radialGradient id="paint2_radial" cx="0" cy="0" r="1" gradientUnits="userSpaceOnUse" gradientTransform="translate(989.898 1049.02) scale(601.46 973.251)">
<stop offset="0.0202" stop-color="#A56EF4"/>
<stop offset="0.5802" stop-color="#573096"/>
<stop offset="1" stop-color="#200554"/>
</radialGradient>
<linearGradient id="paint3_linear" x1="1438.95" y1="1250.31" x2="-175.293" y2="2206.68" gradientUnits="userSpaceOnUse">
<stop stop-color="#3D065F"/>
<stop offset="1" stop-color="#10054D"/>
</linearGradient>
<linearGradient id="paint4_linear" x1="1532.71" y1="1082.04" x2="-1709.66" y2="2764.94" gradientUnits="userSpaceOnUse">
<stop offset="0.0202" stop-color="#45108A"/>
<stop offset="0.2929" stop-color="#3D065F"/>
<stop offset="1" stop-color="#200554"/>
</linearGradient>
<radialGradient id="paint5_radial" cx="0" cy="0" r="1" gradientUnits="userSpaceOnUse" gradientTransform="translate(988.468 1889.86) scale(598.676 1001.32)">
<stop offset="0.0202" stop-color="#A56EF4"/>
<stop offset="0.5802" stop-color="#573096"/>
<stop offset="1" stop-color="#200554"/>
</radialGradient>
</defs>
</svg>
