<svg width="1149" height="539" viewBox="0 0 1149 539" fill="none" xmlns="http://www.w3.org/2000/svg">
<g filter="url(#filter0_d)">
<path fill-rule="evenodd" clip-rule="evenodd" d="M756 5.5C756 31.1812 735.181 52 709.5 52C683.819 52 663 31.1812 663 5.5C663 3.6391 663.109 1.80377 663.322 0H95C51.3696 0 16 35.3695 16 79V424C16 467.63 51.3696 503 95 503H664.322C667.042 479.911 686.68 462 710.5 462C734.32 462 753.958 479.911 756.678 503H1054C1097.63 503 1133 467.63 1133 424V79C1133 35.3695 1097.63 0 1054 0H755.678C755.891 1.80377 756 3.6391 756 5.5Z" fill="white"/>
</g>
<defs>
<filter id="filter0_d" x="0" y="0" width="1149" height="539" filterUnits="userSpaceOnUse" color-interpolation-filters="sRGB">
<feFlood flood-opacity="0" result="BackgroundImageFix"/>
<feColorMatrix in="SourceAlpha" type="matrix" values="0 0 0 0 0 0 0 0 0 0 0 0 0 0 0 0 0 0 127 0" result="hardAlpha"/>
<feOffset dy="20"/>
<feGaussianBlur stdDeviation="8"/>
<feColorMatrix type="matrix" values="0 0 0 0 0 0 0 0 0 0 0 0 0 0 0 0 0 0 0.25 0"/>
<feBlend mode="normal" in2="BackgroundImageFix" result="effect1_dropShadow"/>
<feBlend mode="normal" in="SourceGraphic" in2="effect1_dropShadow" result="shape"/>
</filter>
</defs>
</svg>
