<svg xmlns="http://www.w3.org/2000/svg" xmlns:xlink="http://www.w3.org/1999/xlink" viewBox="0 0 1752 892.47"><defs><style>.cls-1{isolation:isolate;}.cls-2{opacity:0.2;mix-blend-mode:screen;fill:url(#radial-gradient);}</style><radialGradient id="radial-gradient" cx="1162.11" cy="696.33" r="626.12" gradientTransform="translate(-103 52.8) scale(1.17 0.95)" gradientUnits="userSpaceOnUse"><stop offset="0.02" stop-color="#a56ef4"/><stop offset="0.58" stop-color="#573096"/><stop offset="1" stop-color="#200554"/></radialGradient></defs><g class="cls-1"><g id="Layer_1" data-name="Layer 1"><path class="cls-2" d="M1843,584.52V556.37l-90.77-41.88L1843,472.61V444.46l-121.28,56L1508.45,402l-30.31,14.16,213.08,98.31-278,128.26L996.79,452.07,1775.68,94h-61.13L966.17,438.05,214.76,94H153.54l909.32,416.12L805.6,629.9,91,304.3v28L775.25,644,540.8,753.18,91,549.29v28.32L510,767.53,91,955.45v1.28c0,8.53,4.71,16.2,12.2,21.63L385,853.91l302.66-2.11-1.3,134.67h30.2l1.35-140L963.26,728.51l534.86,239-41.12,19h61l11.1-5.13,11.47,5.13h62.51l-43.24-19.31,249.4-115.07L1843,867.55v-28l-3.27-1.5,3.27-1.51V808.37L1809.11,824,1443.86,656.77l277.86-128.2ZM438.35,829.08l102.94-47.92L648,827.61Zm266.17-4.64-132.4-57.63L805.64,658.09l127,56.72Zm1074.11,13.63L1528.84,953.32,836,644l257.3-119.79Z" transform="translate(-91 -94)"/></g></g></svg>