<svg width="47" height="47" viewBox="0 0 47 47" fill="none" xmlns="http://www.w3.org/2000/svg">
<path d="M19.5683 3.36675L1.56954 38.1276C1.19845 38.871 1.00209 39.7139 1.00002 40.5724C0.997939 41.4309 1.19021 42.2751 1.5577 43.021C1.92518 43.7668 2.45508 44.3883 3.09467 44.8237C3.73426 45.2591 4.46124 45.4931 5.20329 45.5026H41.2008C41.9428 45.4931 42.6698 45.2591 43.3094 44.8237C43.949 44.3883 44.4789 43.7668 44.8464 43.021C45.2139 42.2751 45.4061 41.4309 45.4041 40.5724C45.402 39.7139 45.2056 38.871 44.8345 38.1276L26.8358 3.36675C26.457 2.64426 25.9236 2.04691 25.2871 1.63235C24.6506 1.21779 23.9325 1 23.202 1C22.4716 1 21.7535 1.21779 21.117 1.63235C20.4805 2.04691 19.9471 2.64426 19.5683 3.36675V3.36675Z" stroke="#E71103" stroke-width="2" stroke-linecap="round" stroke-linejoin="round"/>
<path d="M23.7019 9.87744V32.8774" stroke="#E71103" stroke-width="2" stroke-linecap="round" stroke-linejoin="round"/>
<path d="M23.7019 37.8774H23.7232" stroke="#E71103" stroke-width="2" stroke-linecap="round" stroke-linejoin="round"/>
</svg>
