<svg width="65" height="65" viewBox="0 0 65 65" fill="none" xmlns="http://www.w3.org/2000/svg">
<path d="M32.2629 62.5259C38.2484 62.5259 44.0994 60.751 49.0761 57.4257C54.0529 54.1003 57.9317 49.3739 60.2223 43.8441C62.5128 38.3143 63.1121 32.2294 61.9444 26.3589C60.7767 20.4885 57.8944 15.0962 53.6621 10.8638C49.4297 6.63148 44.0374 3.74921 38.167 2.58151C32.2965 1.41381 26.2116 2.01311 20.6818 4.30364C15.152 6.59417 10.4256 10.4731 7.10023 15.4498C3.77489 20.4265 2 26.2775 2 32.263C2 40.2892 5.18841 47.9867 10.8638 53.6621C16.5392 59.3375 24.2367 62.5259 32.2629 62.5259V62.5259ZM26.2354 26.2354L47.7262 16.7962L38.287 38.2871L16.7962 47.7262L26.2354 26.2354Z" stroke="white" stroke-width="3"/>
<path d="M32.2626 35.3856C34.1794 35.3856 35.7333 33.8317 35.7333 31.915C35.7333 29.9982 34.1794 28.4443 32.2626 28.4443C30.3458 28.4443 28.792 29.9982 28.792 31.915C28.792 33.8317 30.3458 35.3856 32.2626 35.3856Z" stroke="white" stroke-width="3"/>
</svg>
