<svg width="77" height="279" viewBox="0 0 77 279" fill="none" xmlns="http://www.w3.org/2000/svg">
<ellipse cx="38" cy="239.5" rx="38" ry="39.5" fill="#00D7DF"/>
<path d="M73 39.5C73 59.2535 57.6331 75 39 75C20.3669 75 5 59.2535 5 39.5C5 19.7465 20.3669 4 39 4C57.6331 4 73 19.7465 73 39.5Z" stroke="#00D7DF" stroke-width="8"/>
<line x1="38.5" y1="79" x2="38.5" y2="86" stroke="#4F5360"/>
<line x1="38.5" y1="91" x2="38.5" y2="98" stroke="#4F5360"/>
<line x1="38.5" y1="103" x2="38.5" y2="110" stroke="#4F5360"/>
<line x1="38.5" y1="115" x2="38.5" y2="122" stroke="#4F5360"/>
<line x1="38.5" y1="127" x2="38.5" y2="134" stroke="#4F5360"/>
<line x1="38.5" y1="139" x2="38.5" y2="146" stroke="#4F5360"/>
<line x1="38.5" y1="151" x2="38.5" y2="158" stroke="#4F5360"/>
<line x1="38.5" y1="163" x2="38.5" y2="170" stroke="#4F5360"/>
<line x1="38.5" y1="176" x2="38.5" y2="183" stroke="#4F5360"/>
<line x1="38.5" y1="188" x2="38.5" y2="195" stroke="#4F5360"/>
</svg>
