<svg width="1149" height="539" viewBox="0 0 1149 539" fill="none" xmlns="http://www.w3.org/2000/svg">
<g filter="url(#filter0_d)">
<path fill-rule="evenodd" clip-rule="evenodd" d="M756 5.5C756 31.1812 735.181 52 709.5 52C683.819 52 663 31.1812 663 5.5C663 3.6391 663.109 1.80377 663.322 0H95C51.3696 0 16 35.3695 16 79V424C16 467.63 51.3696 503 95 503H664.322C667.042 479.911 686.68 462 710.5 462C734.32 462 753.958 479.911 756.678 503H1054C1097.63 503 1133 467.63 1133 424V79C1133 35.3695 1097.63 0 1054 0H755.678C755.891 1.80377 756 3.6391 756 5.5Z" fill="white"/>
</g>
<path d="M804.438 149H798.901V113.385C798.901 110.423 798.993 107.62 799.175 104.977C798.696 105.455 798.161 105.956 797.568 106.48C796.976 107.005 794.264 109.226 789.434 113.146L786.426 109.249L799.653 99.0293H804.438V149ZM856.323 149H823.477V144.112L836.636 130.885C840.646 126.829 843.289 123.935 844.565 122.203C845.841 120.471 846.799 118.785 847.437 117.145C848.075 115.504 848.394 113.738 848.394 111.847C848.394 109.181 847.585 107.073 845.967 105.523C844.349 103.951 842.104 103.165 839.233 103.165C837.16 103.165 835.189 103.507 833.32 104.19C831.475 104.874 829.412 106.116 827.134 107.916L824.126 104.054C828.729 100.226 833.742 98.3115 839.165 98.3115C843.859 98.3115 847.539 99.5192 850.205 101.935C852.871 104.327 854.204 107.551 854.204 111.607C854.204 114.775 853.315 117.908 851.538 121.007C849.761 124.106 846.434 128.025 841.558 132.765L830.62 143.463V143.736H856.323V149ZM865.312 145.377C865.312 143.85 865.654 142.7 866.338 141.925C867.044 141.127 868.047 140.729 869.346 140.729C870.667 140.729 871.693 141.127 872.422 141.925C873.174 142.7 873.55 143.85 873.55 145.377C873.55 146.858 873.174 147.997 872.422 148.795C871.67 149.592 870.645 149.991 869.346 149.991C868.184 149.991 867.215 149.638 866.44 148.932C865.688 148.202 865.312 147.018 865.312 145.377ZM865.312 115.196C865.312 112.12 866.657 110.582 869.346 110.582C872.148 110.582 873.55 112.12 873.55 115.196C873.55 116.677 873.174 117.817 872.422 118.614C871.67 119.412 870.645 119.811 869.346 119.811C868.184 119.811 867.215 119.457 866.44 118.751C865.688 118.022 865.312 116.837 865.312 115.196ZM915.317 123.946C915.317 132.582 913.95 139.031 911.216 143.292C908.504 147.553 904.346 149.684 898.74 149.684C893.363 149.684 889.272 147.507 886.47 143.155C883.667 138.78 882.266 132.377 882.266 123.946C882.266 115.242 883.621 108.782 886.333 104.566C889.045 100.351 893.18 98.2432 898.74 98.2432C904.163 98.2432 908.276 100.442 911.079 104.84C913.905 109.238 915.317 115.606 915.317 123.946ZM888.008 123.946C888.008 131.215 888.862 136.513 890.571 139.84C892.28 143.144 895.003 144.796 898.74 144.796C902.523 144.796 905.257 143.121 906.943 139.771C908.652 136.399 909.507 131.124 909.507 123.946C909.507 116.769 908.652 111.516 906.943 108.189C905.257 104.84 902.523 103.165 898.74 103.165C895.003 103.165 892.28 104.817 890.571 108.121C888.862 111.402 888.008 116.677 888.008 123.946ZM955.376 123.946C955.376 132.582 954.009 139.031 951.274 143.292C948.563 147.553 944.404 149.684 938.799 149.684C933.421 149.684 929.331 147.507 926.528 143.155C923.726 138.78 922.324 132.377 922.324 123.946C922.324 115.242 923.68 108.782 926.392 104.566C929.103 100.351 933.239 98.2432 938.799 98.2432C944.222 98.2432 948.335 100.442 951.138 104.84C953.963 109.238 955.376 115.606 955.376 123.946ZM928.066 123.946C928.066 131.215 928.921 136.513 930.63 139.84C932.339 143.144 935.062 144.796 938.799 144.796C942.581 144.796 945.316 143.121 947.002 139.771C948.711 136.399 949.565 131.124 949.565 123.946C949.565 116.769 948.711 111.516 947.002 108.189C945.316 104.84 942.581 103.165 938.799 103.165C935.062 103.165 932.339 104.817 930.63 108.121C928.921 111.402 928.066 116.677 928.066 123.946ZM1015.63 113.59C1015.63 118.648 1013.9 122.545 1010.44 125.279C1007 127.991 1002.07 129.347 995.64 129.347H989.761V149H983.95V99.0293H996.904C1009.39 99.0293 1015.63 103.883 1015.63 113.59ZM989.761 124.356H994.99C1000.14 124.356 1003.87 123.525 1006.17 121.861C1008.47 120.198 1009.62 117.532 1009.62 113.863C1009.62 110.559 1008.54 108.098 1006.37 106.48C1004.21 104.863 1000.83 104.054 996.255 104.054H989.761V124.356ZM1048.24 149L1031.29 104.703H1031.02C1031.33 108.212 1031.49 112.382 1031.49 117.213V149H1026.13V99.0293H1034.88L1050.7 140.25H1050.98L1066.94 99.0293H1075.62V149H1069.81V116.803C1069.81 113.111 1069.97 109.101 1070.29 104.771H1070.01L1052.92 149H1048.24Z" fill="black"/>
<path d="M818.523 412.824C818.523 414.992 817.781 416.662 816.297 417.834C814.822 418.996 812.708 419.577 809.954 419.577H807.435V428H804.944V406.584H810.496C815.848 406.584 818.523 408.664 818.523 412.824ZM807.435 417.438H809.676C811.883 417.438 813.479 417.082 814.466 416.369C815.452 415.656 815.945 414.514 815.945 412.941C815.945 411.525 815.481 410.471 814.554 409.777C813.626 409.084 812.181 408.737 810.218 408.737H807.435V417.438ZM829.979 411.652C830.691 411.652 831.331 411.711 831.897 411.828L831.561 414.084C830.896 413.938 830.311 413.864 829.803 413.864C828.504 413.864 827.391 414.392 826.463 415.446C825.545 416.501 825.086 417.814 825.086 419.387V428H822.654V411.945H824.661L824.939 414.919H825.057C825.652 413.874 826.37 413.068 827.21 412.502C828.05 411.936 828.973 411.652 829.979 411.652ZM837.332 428H834.9V411.945H837.332V428ZM834.695 407.595C834.695 407.038 834.832 406.633 835.105 406.379C835.379 406.115 835.721 405.983 836.131 405.983C836.521 405.983 836.858 406.115 837.142 406.379C837.425 406.643 837.566 407.048 837.566 407.595C837.566 408.142 837.425 408.552 837.142 408.825C836.858 409.089 836.521 409.221 836.131 409.221C835.721 409.221 835.379 409.089 835.105 408.825C834.832 408.552 834.695 408.142 834.695 407.595ZM848.904 428.293C846.58 428.293 844.778 427.58 843.499 426.154C842.229 424.719 841.595 422.692 841.595 420.075C841.595 417.39 842.239 415.314 843.528 413.85C844.827 412.385 846.673 411.652 849.065 411.652C849.837 411.652 850.608 411.735 851.38 411.901C852.151 412.067 852.757 412.263 853.196 412.487L852.449 414.553C851.912 414.338 851.326 414.162 850.691 414.025C850.057 413.879 849.495 413.806 849.007 413.806C845.745 413.806 844.114 415.886 844.114 420.046C844.114 422.019 844.51 423.532 845.301 424.587C846.102 425.642 847.283 426.169 848.846 426.169C850.184 426.169 851.556 425.881 852.962 425.305V427.458C851.888 428.015 850.535 428.293 848.904 428.293ZM863.567 428.293C861.194 428.293 859.319 427.57 857.942 426.125C856.575 424.68 855.892 422.673 855.892 420.104C855.892 417.517 856.526 415.461 857.796 413.938C859.075 412.414 860.789 411.652 862.938 411.652C864.949 411.652 866.541 412.316 867.713 413.645C868.885 414.963 869.471 416.706 869.471 418.874V420.412H858.411C858.46 422.297 858.934 423.728 859.832 424.704C860.74 425.681 862.015 426.169 863.655 426.169C865.384 426.169 867.093 425.808 868.782 425.085V427.253C867.923 427.624 867.107 427.888 866.336 428.044C865.574 428.21 864.651 428.293 863.567 428.293ZM862.908 413.688C861.619 413.688 860.589 414.108 859.817 414.948C859.056 415.788 858.606 416.95 858.47 418.435H866.863C866.863 416.901 866.521 415.729 865.838 414.919C865.154 414.099 864.178 413.688 862.908 413.688ZM881.072 426.447C881.072 425.793 881.219 425.3 881.512 424.968C881.814 424.626 882.244 424.455 882.801 424.455C883.367 424.455 883.807 424.626 884.119 424.968C884.441 425.3 884.603 425.793 884.603 426.447C884.603 427.082 884.441 427.57 884.119 427.912C883.797 428.254 883.357 428.425 882.801 428.425C882.303 428.425 881.888 428.273 881.556 427.971C881.233 427.658 881.072 427.15 881.072 426.447ZM881.072 413.513C881.072 412.194 881.648 411.535 882.801 411.535C884.002 411.535 884.603 412.194 884.603 413.513C884.603 414.147 884.441 414.636 884.119 414.978C883.797 415.319 883.357 415.49 882.801 415.49C882.303 415.49 881.888 415.339 881.556 415.036C881.233 414.724 881.072 414.216 881.072 413.513Z" fill="#4F5360"/>
<path d="M908.641 399.035C911.245 399.035 913.309 399.641 914.832 400.852C916.355 402.062 917.117 403.736 917.117 405.871C917.117 407.277 916.681 408.56 915.809 409.719C914.936 410.878 913.543 411.932 911.629 412.883C913.947 413.99 915.594 415.155 916.57 416.379C917.547 417.59 918.035 418.996 918.035 420.598C918.035 422.967 917.208 424.862 915.555 426.281C913.901 427.688 911.635 428.391 908.758 428.391C905.711 428.391 903.367 427.727 901.727 426.398C900.086 425.057 899.266 423.163 899.266 420.715C899.266 417.447 901.258 414.901 905.242 413.078C903.445 412.062 902.156 410.969 901.375 409.797C900.594 408.612 900.203 407.29 900.203 405.832C900.203 403.762 900.965 402.115 902.488 400.891C904.025 399.654 906.076 399.035 908.641 399.035ZM902.469 420.793C902.469 422.355 903.009 423.573 904.09 424.445C905.184 425.318 906.714 425.754 908.68 425.754C910.62 425.754 912.13 425.298 913.211 424.387C914.292 423.475 914.832 422.225 914.832 420.637C914.832 419.374 914.324 418.254 913.309 417.277C912.293 416.288 910.522 415.331 907.996 414.406C906.056 415.24 904.65 416.164 903.777 417.18C902.905 418.182 902.469 419.387 902.469 420.793ZM908.602 401.672C906.974 401.672 905.698 402.062 904.773 402.844C903.849 403.625 903.387 404.667 903.387 405.969C903.387 407.167 903.771 408.195 904.539 409.055C905.307 409.914 906.727 410.773 908.797 411.633C910.659 410.852 911.974 410.012 912.742 409.113C913.523 408.215 913.914 407.167 913.914 405.969C913.914 404.654 913.439 403.612 912.488 402.844C911.551 402.062 910.255 401.672 908.602 401.672ZM941.004 413.684C941.004 418.618 940.223 422.303 938.66 424.738C937.111 427.173 934.734 428.391 931.531 428.391C928.458 428.391 926.121 427.147 924.52 424.66C922.918 422.16 922.117 418.501 922.117 413.684C922.117 408.71 922.892 405.018 924.441 402.609C925.991 400.201 928.354 398.996 931.531 398.996C934.63 398.996 936.98 400.253 938.582 402.766C940.197 405.279 941.004 408.918 941.004 413.684ZM925.398 413.684C925.398 417.837 925.887 420.865 926.863 422.766C927.84 424.654 929.396 425.598 931.531 425.598C933.693 425.598 935.255 424.641 936.219 422.727C937.195 420.799 937.684 417.785 937.684 413.684C937.684 409.582 937.195 406.581 936.219 404.68C935.255 402.766 933.693 401.809 931.531 401.809C929.396 401.809 927.84 402.753 926.863 404.641C925.887 406.516 925.398 409.53 925.398 413.684Z" fill="#F30A18"/>
<path d="M963.895 413.684C963.895 418.618 963.113 422.303 961.551 424.738C960.001 427.173 957.625 428.391 954.422 428.391C951.349 428.391 949.012 427.147 947.41 424.66C945.809 422.16 945.008 418.501 945.008 413.684C945.008 408.71 945.783 405.018 947.332 402.609C948.882 400.201 951.245 398.996 954.422 398.996C957.521 398.996 959.871 400.253 961.473 402.766C963.087 405.279 963.895 408.918 963.895 413.684ZM948.289 413.684C948.289 417.837 948.777 420.865 949.754 422.766C950.73 424.654 952.286 425.598 954.422 425.598C956.583 425.598 958.146 424.641 959.109 422.727C960.086 420.799 960.574 417.785 960.574 413.684C960.574 409.582 960.086 406.581 959.109 404.68C958.146 402.766 956.583 401.809 954.422 401.809C952.286 401.809 950.73 402.753 949.754 404.641C948.777 406.516 948.289 409.53 948.289 413.684ZM989.012 428H985.691V402.395H976.648V399.445H998.055V402.395H989.012V428ZM1023 428H1019.09L1008.68 414.152L1005.69 416.809V428H1002.37V399.445H1005.69V413.605L1018.64 399.445H1022.57L1011.08 411.848L1023 428Z" fill="#F30A18" fill-opacity="0.98"/>
<path d="M275.078 121.174C275.078 128.244 273.154 133.654 269.307 137.404C265.479 141.135 259.961 143 252.754 143H240.889V100.168H254.014C260.674 100.168 265.85 102.014 269.541 105.705C273.232 109.396 275.078 114.553 275.078 121.174ZM269.805 121.35C269.805 115.764 268.398 111.555 265.586 108.723C262.793 105.891 258.633 104.475 253.105 104.475H245.869V138.693H251.934C257.871 138.693 262.334 137.238 265.322 134.328C268.311 131.398 269.805 127.072 269.805 121.35ZM305.898 143V122.229C305.898 119.611 305.303 117.658 304.111 116.369C302.92 115.08 301.055 114.436 298.516 114.436C295.137 114.436 292.666 115.354 291.104 117.189C289.561 119.025 288.789 122.033 288.789 126.213V143H283.926V97.4141H288.789V111.213C288.789 112.873 288.711 114.25 288.555 115.344H288.848C289.805 113.801 291.162 112.59 292.92 111.711C294.697 110.812 296.719 110.363 298.984 110.363C302.91 110.363 305.85 111.301 307.803 113.176C309.775 115.031 310.762 117.99 310.762 122.053V143H305.898ZM340.527 143L339.561 138.43H339.326C337.725 140.441 336.123 141.809 334.521 142.531C332.939 143.234 330.957 143.586 328.574 143.586C325.391 143.586 322.891 142.766 321.074 141.125C319.277 139.484 318.379 137.15 318.379 134.123C318.379 127.639 323.564 124.24 333.936 123.928L339.385 123.752V121.76C339.385 119.24 338.838 117.385 337.744 116.193C336.67 114.982 334.941 114.377 332.559 114.377C329.883 114.377 326.855 115.197 323.477 116.838L321.982 113.117C323.564 112.258 325.293 111.584 327.168 111.096C329.062 110.607 330.957 110.363 332.852 110.363C336.68 110.363 339.512 111.213 341.348 112.912C343.203 114.611 344.131 117.336 344.131 121.086V143H340.527ZM329.541 139.572C332.568 139.572 334.941 138.742 336.66 137.082C338.398 135.422 339.268 133.098 339.268 130.109V127.209L334.404 127.414C330.537 127.551 327.744 128.156 326.025 129.23C324.326 130.285 323.477 131.936 323.477 134.182C323.477 135.939 324.004 137.277 325.059 138.195C326.133 139.113 327.627 139.572 329.541 139.572ZM358.984 126.564C359.824 125.373 361.104 123.811 362.822 121.877L373.193 110.891H378.965L365.957 124.572L379.873 143H373.984L362.646 127.824L358.984 130.988V143H354.18V97.4141H358.984V121.584C358.984 122.658 358.906 124.318 358.75 126.564H358.984ZM405.449 143L404.482 138.43H404.248C402.646 140.441 401.045 141.809 399.443 142.531C397.861 143.234 395.879 143.586 393.496 143.586C390.312 143.586 387.812 142.766 385.996 141.125C384.199 139.484 383.301 137.15 383.301 134.123C383.301 127.639 388.486 124.24 398.857 123.928L404.307 123.752V121.76C404.307 119.24 403.76 117.385 402.666 116.193C401.592 114.982 399.863 114.377 397.48 114.377C394.805 114.377 391.777 115.197 388.398 116.838L386.904 113.117C388.486 112.258 390.215 111.584 392.09 111.096C393.984 110.607 395.879 110.363 397.773 110.363C401.602 110.363 404.434 111.213 406.27 112.912C408.125 114.611 409.053 117.336 409.053 121.086V143H405.449ZM394.463 139.572C397.49 139.572 399.863 138.742 401.582 137.082C403.32 135.422 404.189 133.098 404.189 130.109V127.209L399.326 127.414C395.459 127.551 392.666 128.156 390.947 129.23C389.248 130.285 388.398 131.936 388.398 134.182C388.398 135.939 388.926 137.277 389.98 138.195C391.055 139.113 392.549 139.572 394.463 139.572Z" fill="black"/>
<path d="M272.723 216H253.953V213.207L261.473 205.648C263.764 203.331 265.275 201.677 266.004 200.688C266.733 199.698 267.28 198.734 267.645 197.797C268.009 196.859 268.191 195.85 268.191 194.77C268.191 193.246 267.729 192.042 266.805 191.156C265.88 190.258 264.598 189.809 262.957 189.809C261.772 189.809 260.646 190.004 259.578 190.395C258.523 190.785 257.345 191.495 256.043 192.523L254.324 190.316C256.954 188.129 259.819 187.035 262.918 187.035C265.6 187.035 267.703 187.725 269.227 189.105C270.75 190.473 271.512 192.315 271.512 194.633C271.512 196.443 271.004 198.233 269.988 200.004C268.973 201.775 267.072 204.014 264.285 206.723L258.035 212.836V212.992H272.723V216ZM285.77 198.559C288.777 198.559 291.141 199.307 292.859 200.805C294.591 202.289 295.457 204.327 295.457 206.918C295.457 209.874 294.513 212.191 292.625 213.871C290.75 215.551 288.159 216.391 284.852 216.391C281.635 216.391 279.181 215.876 277.488 214.848V211.723C278.4 212.309 279.533 212.771 280.887 213.109C282.241 213.435 283.576 213.598 284.891 213.598C287.182 213.598 288.96 213.057 290.223 211.977C291.499 210.896 292.137 209.333 292.137 207.289C292.137 203.305 289.695 201.312 284.812 201.312C283.576 201.312 281.922 201.501 279.852 201.879L278.172 200.805L279.246 187.445H293.445V190.434H282.02L281.297 199.008C282.794 198.708 284.285 198.559 285.77 198.559ZM330.047 216L326.492 206.918H315.047L311.531 216H308.172L319.461 187.328H322.254L333.484 216H330.047ZM325.457 203.93L322.137 195.082C321.707 193.962 321.264 192.589 320.809 190.961C320.522 192.211 320.112 193.585 319.578 195.082L316.219 203.93H325.457ZM339.969 194.594V208.48C339.969 210.225 340.366 211.527 341.16 212.387C341.954 213.246 343.198 213.676 344.891 213.676C347.13 213.676 348.764 213.064 349.793 211.84C350.835 210.616 351.355 208.617 351.355 205.844V194.594H354.598V216H351.922L351.453 213.129H351.277C350.613 214.184 349.689 214.991 348.504 215.551C347.332 216.111 345.991 216.391 344.48 216.391C341.876 216.391 339.923 215.772 338.621 214.535C337.332 213.298 336.688 211.319 336.688 208.598V194.594H339.969ZM379.012 194.594V196.645L375.047 197.113C375.411 197.569 375.737 198.168 376.023 198.91C376.31 199.639 376.453 200.466 376.453 201.391C376.453 203.487 375.737 205.16 374.305 206.41C372.872 207.66 370.906 208.285 368.406 208.285C367.768 208.285 367.169 208.233 366.609 208.129C365.229 208.858 364.539 209.776 364.539 210.883C364.539 211.469 364.78 211.905 365.262 212.191C365.743 212.465 366.57 212.602 367.742 212.602H371.531C373.849 212.602 375.626 213.09 376.863 214.066C378.113 215.043 378.738 216.462 378.738 218.324C378.738 220.694 377.788 222.497 375.887 223.734C373.986 224.984 371.212 225.609 367.566 225.609C364.767 225.609 362.605 225.089 361.082 224.047C359.572 223.005 358.816 221.534 358.816 219.633C358.816 218.331 359.233 217.204 360.066 216.254C360.9 215.303 362.072 214.659 363.582 214.32C363.035 214.073 362.573 213.689 362.195 213.168C361.831 212.647 361.648 212.042 361.648 211.352C361.648 210.57 361.857 209.887 362.273 209.301C362.69 208.715 363.348 208.148 364.246 207.602C363.139 207.146 362.234 206.371 361.531 205.277C360.841 204.184 360.496 202.934 360.496 201.527C360.496 199.184 361.199 197.38 362.605 196.117C364.012 194.841 366.004 194.203 368.582 194.203C369.702 194.203 370.711 194.333 371.609 194.594H379.012ZM361.941 219.594C361.941 220.753 362.43 221.632 363.406 222.23C364.383 222.829 365.783 223.129 367.605 223.129C370.327 223.129 372.339 222.719 373.641 221.898C374.956 221.091 375.613 219.991 375.613 218.598C375.613 217.439 375.255 216.632 374.539 216.176C373.823 215.733 372.475 215.512 370.496 215.512H366.609C365.138 215.512 363.992 215.863 363.172 216.566C362.352 217.27 361.941 218.279 361.941 219.594ZM363.699 201.449C363.699 202.947 364.122 204.079 364.969 204.848C365.815 205.616 366.993 206 368.504 206C371.668 206 373.25 204.464 373.25 201.391C373.25 198.174 371.648 196.566 368.445 196.566C366.922 196.566 365.75 196.977 364.93 197.797C364.109 198.617 363.699 199.835 363.699 201.449ZM386.453 194.594V208.48C386.453 210.225 386.85 211.527 387.645 212.387C388.439 213.246 389.682 213.676 391.375 213.676C393.615 213.676 395.249 213.064 396.277 211.84C397.319 210.616 397.84 208.617 397.84 205.844V194.594H401.082V216H398.406L397.938 213.129H397.762C397.098 214.184 396.173 214.991 394.988 215.551C393.816 216.111 392.475 216.391 390.965 216.391C388.361 216.391 386.408 215.772 385.105 214.535C383.816 213.298 383.172 211.319 383.172 208.598V194.594H386.453ZM421.785 210.16C421.785 212.152 421.043 213.689 419.559 214.77C418.074 215.85 415.991 216.391 413.309 216.391C410.47 216.391 408.257 215.941 406.668 215.043V212.035C407.697 212.556 408.797 212.966 409.969 213.266C411.154 213.565 412.293 213.715 413.387 213.715C415.079 213.715 416.382 213.448 417.293 212.914C418.204 212.367 418.66 211.54 418.66 210.434C418.66 209.6 418.296 208.891 417.566 208.305C416.85 207.706 415.444 207.003 413.348 206.195C411.355 205.453 409.936 204.809 409.09 204.262C408.257 203.702 407.632 203.07 407.215 202.367C406.811 201.664 406.609 200.824 406.609 199.848C406.609 198.103 407.319 196.729 408.738 195.727C410.158 194.711 412.104 194.203 414.578 194.203C416.883 194.203 419.135 194.672 421.336 195.609L420.184 198.246C418.035 197.361 416.089 196.918 414.344 196.918C412.807 196.918 411.648 197.159 410.867 197.641C410.086 198.122 409.695 198.786 409.695 199.633C409.695 200.206 409.839 200.694 410.125 201.098C410.424 201.501 410.9 201.885 411.551 202.25C412.202 202.615 413.452 203.142 415.301 203.832C417.84 204.757 419.552 205.688 420.438 206.625C421.336 207.562 421.785 208.741 421.785 210.16ZM433.992 213.715C434.565 213.715 435.118 213.676 435.652 213.598C436.186 213.507 436.609 213.415 436.922 213.324V215.805C436.57 215.974 436.049 216.111 435.359 216.215C434.682 216.332 434.07 216.391 433.523 216.391C429.383 216.391 427.312 214.21 427.312 209.848V197.113H424.246V195.551L427.312 194.203L428.68 189.633H430.555V194.594H436.766V197.113H430.555V209.711C430.555 211 430.861 211.99 431.473 212.68C432.085 213.37 432.924 213.715 433.992 213.715ZM444.617 211.352L444.91 211.801C444.572 213.103 444.083 214.613 443.445 216.332C442.807 218.064 442.143 219.672 441.453 221.156H439.012C439.363 219.802 439.747 218.129 440.164 216.137C440.594 214.145 440.893 212.549 441.062 211.352H444.617ZM478.699 216H459.93V213.207L467.449 205.648C469.741 203.331 471.251 201.677 471.98 200.688C472.71 199.698 473.257 198.734 473.621 197.797C473.986 196.859 474.168 195.85 474.168 194.77C474.168 193.246 473.706 192.042 472.781 191.156C471.857 190.258 470.574 189.809 468.934 189.809C467.749 189.809 466.622 190.004 465.555 190.395C464.5 190.785 463.322 191.495 462.02 192.523L460.301 190.316C462.931 188.129 465.796 187.035 468.895 187.035C471.577 187.035 473.68 187.725 475.203 189.105C476.727 190.473 477.488 192.315 477.488 194.633C477.488 196.443 476.98 198.233 475.965 200.004C474.949 201.775 473.048 204.014 470.262 206.723L464.012 212.836V212.992H478.699V216ZM501.746 201.684C501.746 206.618 500.965 210.303 499.402 212.738C497.853 215.173 495.477 216.391 492.273 216.391C489.201 216.391 486.863 215.147 485.262 212.66C483.66 210.16 482.859 206.501 482.859 201.684C482.859 196.71 483.634 193.018 485.184 190.609C486.733 188.201 489.096 186.996 492.273 186.996C495.372 186.996 497.723 188.253 499.324 190.766C500.939 193.279 501.746 196.918 501.746 201.684ZM486.141 201.684C486.141 205.837 486.629 208.865 487.605 210.766C488.582 212.654 490.138 213.598 492.273 213.598C494.435 213.598 495.997 212.641 496.961 210.727C497.938 208.799 498.426 205.785 498.426 201.684C498.426 197.582 497.938 194.581 496.961 192.68C495.997 190.766 494.435 189.809 492.273 189.809C490.138 189.809 488.582 190.753 487.605 192.641C486.629 194.516 486.141 197.53 486.141 201.684ZM524.48 216H505.711V213.207L513.23 205.648C515.522 203.331 517.033 201.677 517.762 200.688C518.491 199.698 519.038 198.734 519.402 197.797C519.767 196.859 519.949 195.85 519.949 194.77C519.949 193.246 519.487 192.042 518.562 191.156C517.638 190.258 516.355 189.809 514.715 189.809C513.53 189.809 512.404 190.004 511.336 190.395C510.281 190.785 509.103 191.495 507.801 192.523L506.082 190.316C508.712 188.129 511.577 187.035 514.676 187.035C517.358 187.035 519.461 187.725 520.984 189.105C522.508 190.473 523.27 192.315 523.27 194.633C523.27 196.443 522.762 198.233 521.746 200.004C520.73 201.775 518.829 204.014 516.043 206.723L509.793 212.836V212.992H524.48V216ZM547.527 201.684C547.527 206.618 546.746 210.303 545.184 212.738C543.634 215.173 541.258 216.391 538.055 216.391C534.982 216.391 532.645 215.147 531.043 212.66C529.441 210.16 528.641 206.501 528.641 201.684C528.641 196.71 529.415 193.018 530.965 190.609C532.514 188.201 534.878 186.996 538.055 186.996C541.154 186.996 543.504 188.253 545.105 190.766C546.72 193.279 547.527 196.918 547.527 201.684ZM531.922 201.684C531.922 205.837 532.41 208.865 533.387 210.766C534.363 212.654 535.919 213.598 538.055 213.598C540.216 213.598 541.779 212.641 542.742 210.727C543.719 208.799 544.207 205.785 544.207 201.684C544.207 197.582 543.719 194.581 542.742 192.68C541.779 190.766 540.216 189.809 538.055 189.809C535.919 189.809 534.363 190.753 533.387 192.641C532.41 194.516 531.922 197.53 531.922 201.684Z" fill="black"/>
<path d="M258.869 332.188V350H253.889V307.168H265.637C270.891 307.168 274.768 308.174 277.268 310.186C279.787 312.197 281.047 315.225 281.047 319.268C281.047 324.932 278.176 328.76 272.434 330.752L284.064 350H278.176L267.805 332.188H258.869ZM258.869 327.91H265.695C269.211 327.91 271.789 327.217 273.43 325.83C275.07 324.424 275.891 322.324 275.891 319.531C275.891 316.699 275.051 314.658 273.371 313.408C271.711 312.158 269.035 311.533 265.344 311.533H258.869V327.91ZM309.992 350L309.025 345.43H308.791C307.189 347.441 305.588 348.809 303.986 349.531C302.404 350.234 300.422 350.586 298.039 350.586C294.855 350.586 292.355 349.766 290.539 348.125C288.742 346.484 287.844 344.15 287.844 341.123C287.844 334.639 293.029 331.24 303.4 330.928L308.85 330.752V328.76C308.85 326.24 308.303 324.385 307.209 323.193C306.135 321.982 304.406 321.377 302.023 321.377C299.348 321.377 296.32 322.197 292.941 323.838L291.447 320.117C293.029 319.258 294.758 318.584 296.633 318.096C298.527 317.607 300.422 317.363 302.316 317.363C306.145 317.363 308.977 318.213 310.812 319.912C312.668 321.611 313.596 324.336 313.596 328.086V350H309.992ZM299.006 346.572C302.033 346.572 304.406 345.742 306.125 344.082C307.863 342.422 308.732 340.098 308.732 337.109V334.209L303.869 334.414C300.002 334.551 297.209 335.156 295.49 336.23C293.791 337.285 292.941 338.936 292.941 341.182C292.941 342.939 293.469 344.277 294.523 345.195C295.598 346.113 297.092 346.572 299.006 346.572ZM319.748 364.414C317.893 364.414 316.389 364.17 315.236 363.682V359.727C316.584 360.117 317.912 360.312 319.221 360.312C320.744 360.312 321.857 359.893 322.561 359.053C323.283 358.232 323.645 356.973 323.645 355.273V317.891H328.508V354.922C328.508 361.25 325.588 364.414 319.748 364.414ZM323.234 309.189C323.234 308.076 323.508 307.266 324.055 306.758C324.602 306.23 325.285 305.967 326.105 305.967C326.887 305.967 327.561 306.23 328.127 306.758C328.693 307.285 328.977 308.096 328.977 309.189C328.977 310.283 328.693 311.104 328.127 311.65C327.561 312.178 326.887 312.441 326.105 312.441C325.285 312.441 324.602 312.178 324.055 311.65C323.508 311.104 323.234 310.283 323.234 309.189ZM359.533 341.24C359.533 344.229 358.42 346.533 356.193 348.154C353.967 349.775 350.842 350.586 346.818 350.586C342.561 350.586 339.24 349.912 336.857 348.564V344.053C338.4 344.834 340.051 345.449 341.809 345.898C343.586 346.348 345.295 346.572 346.936 346.572C349.475 346.572 351.428 346.172 352.795 345.371C354.162 344.551 354.846 343.311 354.846 341.65C354.846 340.4 354.299 339.336 353.205 338.457C352.131 337.559 350.021 336.504 346.877 335.293C343.889 334.18 341.76 333.213 340.49 332.393C339.24 331.553 338.303 330.605 337.678 329.551C337.072 328.496 336.77 327.236 336.77 325.771C336.77 323.154 337.834 321.094 339.963 319.59C342.092 318.066 345.012 317.305 348.723 317.305C352.18 317.305 355.559 318.008 358.859 319.414L357.131 323.369C353.908 322.041 350.988 321.377 348.371 321.377C346.066 321.377 344.328 321.738 343.156 322.461C341.984 323.184 341.398 324.18 341.398 325.449C341.398 326.309 341.613 327.041 342.043 327.646C342.492 328.252 343.205 328.828 344.182 329.375C345.158 329.922 347.033 330.713 349.807 331.748C353.615 333.135 356.184 334.531 357.512 335.938C358.859 337.344 359.533 339.111 359.533 341.24ZM389.445 350V329.229C389.445 326.611 388.85 324.658 387.658 323.369C386.467 322.08 384.602 321.436 382.062 321.436C378.684 321.436 376.213 322.354 374.65 324.189C373.107 326.025 372.336 329.033 372.336 333.213V350H367.473V304.414H372.336V318.213C372.336 319.873 372.258 321.25 372.102 322.344H372.395C373.352 320.801 374.709 319.59 376.467 318.711C378.244 317.812 380.266 317.363 382.531 317.363C386.457 317.363 389.396 318.301 391.35 320.176C393.322 322.031 394.309 324.99 394.309 329.053V350H389.445ZM424.074 350L423.107 345.43H422.873C421.271 347.441 419.67 348.809 418.068 349.531C416.486 350.234 414.504 350.586 412.121 350.586C408.938 350.586 406.438 349.766 404.621 348.125C402.824 346.484 401.926 344.15 401.926 341.123C401.926 334.639 407.111 331.24 417.482 330.928L422.932 330.752V328.76C422.932 326.24 422.385 324.385 421.291 323.193C420.217 321.982 418.488 321.377 416.105 321.377C413.43 321.377 410.402 322.197 407.023 323.838L405.529 320.117C407.111 319.258 408.84 318.584 410.715 318.096C412.609 317.607 414.504 317.363 416.398 317.363C420.227 317.363 423.059 318.213 424.895 319.912C426.75 321.611 427.678 324.336 427.678 328.086V350H424.074ZM413.088 346.572C416.115 346.572 418.488 345.742 420.207 344.082C421.945 342.422 422.814 340.098 422.814 337.109V334.209L417.951 334.414C414.084 334.551 411.291 335.156 409.572 336.23C407.873 337.285 407.023 338.936 407.023 341.182C407.023 342.939 407.551 344.277 408.605 345.195C409.68 346.113 411.174 346.572 413.088 346.572ZM459.699 350V329.229C459.699 326.611 459.104 324.658 457.912 323.369C456.721 322.08 454.855 321.436 452.316 321.436C448.938 321.436 446.467 322.354 444.904 324.189C443.361 326.025 442.59 329.033 442.59 333.213V350H437.727V304.414H442.59V318.213C442.59 319.873 442.512 321.25 442.355 322.344H442.648C443.605 320.801 444.963 319.59 446.721 318.711C448.498 317.812 450.52 317.363 452.785 317.363C456.711 317.363 459.65 318.301 461.604 320.176C463.576 322.031 464.562 324.99 464.562 329.053V350H459.699ZM479.445 350H474.582V317.891H479.445V350ZM474.172 309.189C474.172 308.076 474.445 307.266 474.992 306.758C475.539 306.23 476.223 305.967 477.043 305.967C477.824 305.967 478.498 306.23 479.064 306.758C479.631 307.285 479.914 308.096 479.914 309.189C479.914 310.283 479.631 311.104 479.064 311.65C478.498 312.178 477.824 312.441 477.043 312.441C476.223 312.441 475.539 312.178 474.992 311.65C474.445 311.104 474.172 310.283 474.172 309.189Z" fill="black"/>
<path d="M272.723 422H253.953V419.207L261.473 411.648C263.764 409.331 265.275 407.677 266.004 406.688C266.733 405.698 267.28 404.734 267.645 403.797C268.009 402.859 268.191 401.85 268.191 400.77C268.191 399.246 267.729 398.042 266.805 397.156C265.88 396.258 264.598 395.809 262.957 395.809C261.772 395.809 260.646 396.004 259.578 396.395C258.523 396.785 257.345 397.495 256.043 398.523L254.324 396.316C256.954 394.129 259.819 393.035 262.918 393.035C265.6 393.035 267.703 393.725 269.227 395.105C270.75 396.473 271.512 398.315 271.512 400.633C271.512 402.443 271.004 404.233 269.988 406.004C268.973 407.775 267.072 410.014 264.285 412.723L258.035 418.836V418.992H272.723V422ZM285.77 404.559C288.777 404.559 291.141 405.307 292.859 406.805C294.591 408.289 295.457 410.327 295.457 412.918C295.457 415.874 294.513 418.191 292.625 419.871C290.75 421.551 288.159 422.391 284.852 422.391C281.635 422.391 279.181 421.876 277.488 420.848V417.723C278.4 418.309 279.533 418.771 280.887 419.109C282.241 419.435 283.576 419.598 284.891 419.598C287.182 419.598 288.96 419.057 290.223 417.977C291.499 416.896 292.137 415.333 292.137 413.289C292.137 409.305 289.695 407.312 284.812 407.312C283.576 407.312 281.922 407.501 279.852 407.879L278.172 406.805L279.246 393.445H293.445V396.434H282.02L281.297 405.008C282.794 404.708 284.285 404.559 285.77 404.559ZM330.047 422L326.492 412.918H315.047L311.531 422H308.172L319.461 393.328H322.254L333.484 422H330.047ZM325.457 409.93L322.137 401.082C321.707 399.962 321.264 398.589 320.809 396.961C320.522 398.211 320.112 399.585 319.578 401.082L316.219 409.93H325.457ZM339.969 400.594V414.48C339.969 416.225 340.366 417.527 341.16 418.387C341.954 419.246 343.198 419.676 344.891 419.676C347.13 419.676 348.764 419.064 349.793 417.84C350.835 416.616 351.355 414.617 351.355 411.844V400.594H354.598V422H351.922L351.453 419.129H351.277C350.613 420.184 349.689 420.991 348.504 421.551C347.332 422.111 345.991 422.391 344.48 422.391C341.876 422.391 339.923 421.772 338.621 420.535C337.332 419.298 336.688 417.319 336.688 414.598V400.594H339.969ZM379.012 400.594V402.645L375.047 403.113C375.411 403.569 375.737 404.168 376.023 404.91C376.31 405.639 376.453 406.466 376.453 407.391C376.453 409.487 375.737 411.16 374.305 412.41C372.872 413.66 370.906 414.285 368.406 414.285C367.768 414.285 367.169 414.233 366.609 414.129C365.229 414.858 364.539 415.776 364.539 416.883C364.539 417.469 364.78 417.905 365.262 418.191C365.743 418.465 366.57 418.602 367.742 418.602H371.531C373.849 418.602 375.626 419.09 376.863 420.066C378.113 421.043 378.738 422.462 378.738 424.324C378.738 426.694 377.788 428.497 375.887 429.734C373.986 430.984 371.212 431.609 367.566 431.609C364.767 431.609 362.605 431.089 361.082 430.047C359.572 429.005 358.816 427.534 358.816 425.633C358.816 424.331 359.233 423.204 360.066 422.254C360.9 421.303 362.072 420.659 363.582 420.32C363.035 420.073 362.573 419.689 362.195 419.168C361.831 418.647 361.648 418.042 361.648 417.352C361.648 416.57 361.857 415.887 362.273 415.301C362.69 414.715 363.348 414.148 364.246 413.602C363.139 413.146 362.234 412.371 361.531 411.277C360.841 410.184 360.496 408.934 360.496 407.527C360.496 405.184 361.199 403.38 362.605 402.117C364.012 400.841 366.004 400.203 368.582 400.203C369.702 400.203 370.711 400.333 371.609 400.594H379.012ZM361.941 425.594C361.941 426.753 362.43 427.632 363.406 428.23C364.383 428.829 365.783 429.129 367.605 429.129C370.327 429.129 372.339 428.719 373.641 427.898C374.956 427.091 375.613 425.991 375.613 424.598C375.613 423.439 375.255 422.632 374.539 422.176C373.823 421.733 372.475 421.512 370.496 421.512H366.609C365.138 421.512 363.992 421.863 363.172 422.566C362.352 423.27 361.941 424.279 361.941 425.594ZM363.699 407.449C363.699 408.947 364.122 410.079 364.969 410.848C365.815 411.616 366.993 412 368.504 412C371.668 412 373.25 410.464 373.25 407.391C373.25 404.174 371.648 402.566 368.445 402.566C366.922 402.566 365.75 402.977 364.93 403.797C364.109 404.617 363.699 405.835 363.699 407.449ZM386.453 400.594V414.48C386.453 416.225 386.85 417.527 387.645 418.387C388.439 419.246 389.682 419.676 391.375 419.676C393.615 419.676 395.249 419.064 396.277 417.84C397.319 416.616 397.84 414.617 397.84 411.844V400.594H401.082V422H398.406L397.938 419.129H397.762C397.098 420.184 396.173 420.991 394.988 421.551C393.816 422.111 392.475 422.391 390.965 422.391C388.361 422.391 386.408 421.772 385.105 420.535C383.816 419.298 383.172 417.319 383.172 414.598V400.594H386.453ZM421.785 416.16C421.785 418.152 421.043 419.689 419.559 420.77C418.074 421.85 415.991 422.391 413.309 422.391C410.47 422.391 408.257 421.941 406.668 421.043V418.035C407.697 418.556 408.797 418.966 409.969 419.266C411.154 419.565 412.293 419.715 413.387 419.715C415.079 419.715 416.382 419.448 417.293 418.914C418.204 418.367 418.66 417.54 418.66 416.434C418.66 415.6 418.296 414.891 417.566 414.305C416.85 413.706 415.444 413.003 413.348 412.195C411.355 411.453 409.936 410.809 409.09 410.262C408.257 409.702 407.632 409.07 407.215 408.367C406.811 407.664 406.609 406.824 406.609 405.848C406.609 404.103 407.319 402.729 408.738 401.727C410.158 400.711 412.104 400.203 414.578 400.203C416.883 400.203 419.135 400.672 421.336 401.609L420.184 404.246C418.035 403.361 416.089 402.918 414.344 402.918C412.807 402.918 411.648 403.159 410.867 403.641C410.086 404.122 409.695 404.786 409.695 405.633C409.695 406.206 409.839 406.694 410.125 407.098C410.424 407.501 410.9 407.885 411.551 408.25C412.202 408.615 413.452 409.142 415.301 409.832C417.84 410.757 419.552 411.688 420.438 412.625C421.336 413.562 421.785 414.741 421.785 416.16ZM433.992 419.715C434.565 419.715 435.118 419.676 435.652 419.598C436.186 419.507 436.609 419.415 436.922 419.324V421.805C436.57 421.974 436.049 422.111 435.359 422.215C434.682 422.332 434.07 422.391 433.523 422.391C429.383 422.391 427.312 420.21 427.312 415.848V403.113H424.246V401.551L427.312 400.203L428.68 395.633H430.555V400.594H436.766V403.113H430.555V415.711C430.555 417 430.861 417.99 431.473 418.68C432.085 419.37 432.924 419.715 433.992 419.715ZM444.617 417.352L444.91 417.801C444.572 419.103 444.083 420.613 443.445 422.332C442.807 424.064 442.143 425.672 441.453 427.156H439.012C439.363 425.802 439.747 424.129 440.164 422.137C440.594 420.145 440.893 418.549 441.062 417.352H444.617ZM478.699 422H459.93V419.207L467.449 411.648C469.741 409.331 471.251 407.677 471.98 406.688C472.71 405.698 473.257 404.734 473.621 403.797C473.986 402.859 474.168 401.85 474.168 400.77C474.168 399.246 473.706 398.042 472.781 397.156C471.857 396.258 470.574 395.809 468.934 395.809C467.749 395.809 466.622 396.004 465.555 396.395C464.5 396.785 463.322 397.495 462.02 398.523L460.301 396.316C462.931 394.129 465.796 393.035 468.895 393.035C471.577 393.035 473.68 393.725 475.203 395.105C476.727 396.473 477.488 398.315 477.488 400.633C477.488 402.443 476.98 404.233 475.965 406.004C474.949 407.775 473.048 410.014 470.262 412.723L464.012 418.836V418.992H478.699V422ZM501.746 407.684C501.746 412.618 500.965 416.303 499.402 418.738C497.853 421.173 495.477 422.391 492.273 422.391C489.201 422.391 486.863 421.147 485.262 418.66C483.66 416.16 482.859 412.501 482.859 407.684C482.859 402.71 483.634 399.018 485.184 396.609C486.733 394.201 489.096 392.996 492.273 392.996C495.372 392.996 497.723 394.253 499.324 396.766C500.939 399.279 501.746 402.918 501.746 407.684ZM486.141 407.684C486.141 411.837 486.629 414.865 487.605 416.766C488.582 418.654 490.138 419.598 492.273 419.598C494.435 419.598 495.997 418.641 496.961 416.727C497.938 414.799 498.426 411.785 498.426 407.684C498.426 403.582 497.938 400.581 496.961 398.68C495.997 396.766 494.435 395.809 492.273 395.809C490.138 395.809 488.582 396.753 487.605 398.641C486.629 400.516 486.141 403.53 486.141 407.684ZM524.48 422H505.711V419.207L513.23 411.648C515.522 409.331 517.033 407.677 517.762 406.688C518.491 405.698 519.038 404.734 519.402 403.797C519.767 402.859 519.949 401.85 519.949 400.77C519.949 399.246 519.487 398.042 518.562 397.156C517.638 396.258 516.355 395.809 514.715 395.809C513.53 395.809 512.404 396.004 511.336 396.395C510.281 396.785 509.103 397.495 507.801 398.523L506.082 396.316C508.712 394.129 511.577 393.035 514.676 393.035C517.358 393.035 519.461 393.725 520.984 395.105C522.508 396.473 523.27 398.315 523.27 400.633C523.27 402.443 522.762 404.233 521.746 406.004C520.73 407.775 518.829 410.014 516.043 412.723L509.793 418.836V418.992H524.48V422ZM547.527 407.684C547.527 412.618 546.746 416.303 545.184 418.738C543.634 421.173 541.258 422.391 538.055 422.391C534.982 422.391 532.645 421.147 531.043 418.66C529.441 416.16 528.641 412.501 528.641 407.684C528.641 402.71 529.415 399.018 530.965 396.609C532.514 394.201 534.878 392.996 538.055 392.996C541.154 392.996 543.504 394.253 545.105 396.766C546.72 399.279 547.527 402.918 547.527 407.684ZM531.922 407.684C531.922 411.837 532.41 414.865 533.387 416.766C534.363 418.654 535.919 419.598 538.055 419.598C540.216 419.598 541.779 418.641 542.742 416.727C543.719 414.799 544.207 411.785 544.207 407.684C544.207 403.582 543.719 400.581 542.742 398.68C541.779 396.766 540.216 395.809 538.055 395.809C535.919 395.809 534.363 396.753 533.387 398.641C532.41 400.516 531.922 403.53 531.922 407.684Z" fill="black"/>
<rect x="793" y="227" width="240.541" height="100" rx="23" fill="#00D7DF"/>
<path d="M834.734 286V268.938H840.582C842.512 268.938 843.98 269.324 844.988 270.098C845.996 270.871 846.5 272.023 846.5 273.555C846.5 274.336 846.289 275.039 845.867 275.664C845.445 276.289 844.828 276.773 844.016 277.117C844.938 277.367 845.648 277.84 846.148 278.535C846.656 279.223 846.91 280.051 846.91 281.02C846.91 282.621 846.395 283.852 845.363 284.711C844.34 285.57 842.871 286 840.957 286H834.734ZM837.699 278.301V283.633H840.992C841.922 283.633 842.648 283.402 843.172 282.941C843.695 282.48 843.957 281.84 843.957 281.02C843.957 279.246 843.051 278.34 841.238 278.301H837.699ZM837.699 276.121H840.605C841.527 276.121 842.246 275.914 842.762 275.5C843.285 275.078 843.547 274.484 843.547 273.719C843.547 272.875 843.305 272.266 842.82 271.891C842.344 271.516 841.598 271.328 840.582 271.328H837.699V276.121ZM863.492 277.914C863.492 279.586 863.203 281.055 862.625 282.32C862.047 283.578 861.219 284.547 860.141 285.227C859.07 285.898 857.836 286.234 856.438 286.234C855.055 286.234 853.82 285.898 852.734 285.227C851.656 284.547 850.82 283.582 850.227 282.332C849.641 281.082 849.344 279.641 849.336 278.008V277.047C849.336 275.383 849.629 273.914 850.215 272.641C850.809 271.367 851.641 270.395 852.711 269.723C853.789 269.043 855.023 268.703 856.414 268.703C857.805 268.703 859.035 269.039 860.105 269.711C861.184 270.375 862.016 271.336 862.602 272.594C863.188 273.844 863.484 275.301 863.492 276.965V277.914ZM860.527 277.023C860.527 275.133 860.168 273.684 859.449 272.676C858.738 271.668 857.727 271.164 856.414 271.164C855.133 271.164 854.129 271.668 853.402 272.676C852.684 273.676 852.316 275.094 852.301 276.93V277.914C852.301 279.789 852.664 281.238 853.391 282.262C854.125 283.285 855.141 283.797 856.438 283.797C857.75 283.797 858.758 283.297 859.461 282.297C860.172 281.297 860.527 279.836 860.527 277.914V277.023ZM880.062 277.914C880.062 279.586 879.773 281.055 879.195 282.32C878.617 283.578 877.789 284.547 876.711 285.227C875.641 285.898 874.406 286.234 873.008 286.234C871.625 286.234 870.391 285.898 869.305 285.227C868.227 284.547 867.391 283.582 866.797 282.332C866.211 281.082 865.914 279.641 865.906 278.008V277.047C865.906 275.383 866.199 273.914 866.785 272.641C867.379 271.367 868.211 270.395 869.281 269.723C870.359 269.043 871.594 268.703 872.984 268.703C874.375 268.703 875.605 269.039 876.676 269.711C877.754 270.375 878.586 271.336 879.172 272.594C879.758 273.844 880.055 275.301 880.062 276.965V277.914ZM877.098 277.023C877.098 275.133 876.738 273.684 876.02 272.676C875.309 271.668 874.297 271.164 872.984 271.164C871.703 271.164 870.699 271.668 869.973 272.676C869.254 273.676 868.887 275.094 868.871 276.93V277.914C868.871 279.789 869.234 281.238 869.961 282.262C870.695 283.285 871.711 283.797 873.008 283.797C874.32 283.797 875.328 283.297 876.031 282.297C876.742 281.297 877.098 279.836 877.098 277.914V277.023ZM887.914 278.629L885.98 280.68V286H883.016V268.938H885.98V276.941L887.621 274.914L892.613 268.938H896.199L889.859 276.496L896.562 286H893.047L887.914 278.629ZM915.758 271.328H910.438V286H907.496V271.328H902.223V268.938H915.758V271.328ZM921.137 286H918.184V268.938H921.137V286ZM937.801 280.445C937.629 282.266 936.957 283.688 935.785 284.711C934.613 285.727 933.055 286.234 931.109 286.234C929.75 286.234 928.551 285.914 927.512 285.273C926.48 284.625 925.684 283.707 925.121 282.52C924.559 281.332 924.266 279.953 924.242 278.383V276.789C924.242 275.18 924.527 273.762 925.098 272.535C925.668 271.309 926.484 270.363 927.547 269.699C928.617 269.035 929.852 268.703 931.25 268.703C933.133 268.703 934.648 269.215 935.797 270.238C936.945 271.262 937.613 272.707 937.801 274.574H934.848C934.707 273.348 934.348 272.465 933.77 271.926C933.199 271.379 932.359 271.105 931.25 271.105C929.961 271.105 928.969 271.578 928.273 272.523C927.586 273.461 927.234 274.84 927.219 276.66V278.172C927.219 280.016 927.547 281.422 928.203 282.391C928.867 283.359 929.836 283.844 931.109 283.844C932.273 283.844 933.148 283.582 933.734 283.059C934.32 282.535 934.691 281.664 934.848 280.445H937.801ZM945.359 278.629L943.426 280.68V286H940.461V268.938H943.426V276.941L945.066 274.914L950.059 268.938H953.645L947.305 276.496L954.008 286H950.492L945.359 278.629ZM965.574 278.383H958.566V283.633H966.758V286H955.602V268.938H966.676V271.328H958.566V276.039H965.574V278.383ZM981.734 271.328H976.414V286H973.473V271.328H968.199V268.938H981.734V271.328ZM992.715 281.605C992.715 280.855 992.449 280.277 991.918 279.871C991.395 279.465 990.445 279.055 989.07 278.641C987.695 278.227 986.602 277.766 985.789 277.258C984.234 276.281 983.457 275.008 983.457 273.438C983.457 272.062 984.016 270.93 985.133 270.039C986.258 269.148 987.715 268.703 989.504 268.703C990.691 268.703 991.75 268.922 992.68 269.359C993.609 269.797 994.34 270.422 994.871 271.234C995.402 272.039 995.668 272.934 995.668 273.918H992.715C992.715 273.027 992.434 272.332 991.871 271.832C991.316 271.324 990.52 271.07 989.48 271.07C988.512 271.07 987.758 271.277 987.219 271.691C986.688 272.105 986.422 272.684 986.422 273.426C986.422 274.051 986.711 274.574 987.289 274.996C987.867 275.41 988.82 275.816 990.148 276.215C991.477 276.605 992.543 277.055 993.348 277.562C994.152 278.062 994.742 278.641 995.117 279.297C995.492 279.945 995.68 280.707 995.68 281.582C995.68 283.004 995.133 284.137 994.039 284.98C992.953 285.816 991.477 286.234 989.609 286.234C988.375 286.234 987.238 286.008 986.199 285.555C985.168 285.094 984.363 284.461 983.785 283.656C983.215 282.852 982.93 281.914 982.93 280.844H985.895C985.895 281.812 986.215 282.562 986.855 283.094C987.496 283.625 988.414 283.891 989.609 283.891C990.641 283.891 991.414 283.684 991.93 283.27C992.453 282.848 992.715 282.293 992.715 281.605Z" fill="white"/>
<ellipse cx="141" cy="328.5" rx="38" ry="39.5" fill="#00D7DF"/>
<path d="M176 128.5C176 148.253 160.633 164 142 164C123.367 164 108 148.253 108 128.5C108 108.747 123.367 93 142 93C160.633 93 176 108.747 176 128.5Z" stroke="#00D7DF" stroke-width="8"/>
<line x1="141.5" y1="168" x2="141.5" y2="175" stroke="#4F5360"/>
<line x1="141.5" y1="180" x2="141.5" y2="187" stroke="#4F5360"/>
<line x1="141.5" y1="192" x2="141.5" y2="199" stroke="#4F5360"/>
<line x1="141.5" y1="204" x2="141.5" y2="211" stroke="#4F5360"/>
<line x1="141.5" y1="216" x2="141.5" y2="223" stroke="#4F5360"/>
<line x1="141.5" y1="228" x2="141.5" y2="235" stroke="#4F5360"/>
<line x1="141.5" y1="240" x2="141.5" y2="247" stroke="#4F5360"/>
<line x1="141.5" y1="252" x2="141.5" y2="259" stroke="#4F5360"/>
<line x1="141.5" y1="265" x2="141.5" y2="272" stroke="#4F5360"/>
<line x1="141.5" y1="277" x2="141.5" y2="284" stroke="#4F5360"/>
<line x1="702.5" y1="64" x2="702.5" y2="122" stroke="#BCBEC0"/>
<line x1="702.5" y1="149" x2="702.5" y2="207" stroke="#BCBEC0"/>
<line x1="702.5" y1="64" x2="702.5" y2="122" stroke="#BCBEC0"/>
<line x1="703.5" y1="397" x2="703.5" y2="455" stroke="#BCBEC0"/>
<line x1="702.5" y1="312" x2="702.5" y2="370" stroke="#BCBEC0"/>
<line x1="702.5" y1="227" x2="702.5" y2="285" stroke="#BCBEC0"/>
<defs>
<filter id="filter0_d" x="0" y="0" width="1149" height="539" filterUnits="userSpaceOnUse" color-interpolation-filters="sRGB">
<feFlood flood-opacity="0" result="BackgroundImageFix"/>
<feColorMatrix in="SourceAlpha" type="matrix" values="0 0 0 0 0 0 0 0 0 0 0 0 0 0 0 0 0 0 127 0" result="hardAlpha"/>
<feOffset dy="20"/>
<feGaussianBlur stdDeviation="8"/>
<feColorMatrix type="matrix" values="0 0 0 0 0 0 0 0 0 0 0 0 0 0 0 0 0 0 0.25 0"/>
<feBlend mode="normal" in2="BackgroundImageFix" result="effect1_dropShadow"/>
<feBlend mode="normal" in="SourceGraphic" in2="effect1_dropShadow" result="shape"/>
</filter>
</defs>
</svg>
